<?xml version="1.0" encoding="iso-8859-1"?>
<!-- Generator: Adobe Illustrator 19.0.0, SVG Export Plug-In . SVG Version: 6.00 Build 0)  -->
<svg version="1.1" id="Capa_1" xmlns="http://www.w3.org/2000/svg" xmlns:xlink="http://www.w3.org/1999/xlink" x="0px" y="0px"
	 viewBox="0 0 512 512" style="enable-background:new 0 0 512 512;" xml:space="preserve">
<path style="fill:#9B7869;" d="M320.109,280.048h0.019c4.427,0,8.016-3.589,8.016-8.016V15.516c0-4.427-3.589-8.016-8.016-8.016
	h-17.53c-3.797,0-7.073,2.664-7.847,6.381l-38.752,186.006L217.247,13.881c-0.774-3.717-4.05-6.381-7.847-6.381h-17.53
	c-4.427,0-8.016,3.589-8.016,8.016v256.516c0,4.427,3.589,8.016,8.016,8.016h0.019c8.846,0.006,16.014,7.179,16.014,16.024
	c0,8.856-7.177,16.036-16.032,16.04c-4.427,0-8.016,3.589-8.016,8.016v176.355c0,4.427,3.589,8.016,8.016,8.016h25.424
	c4.252,0,8.329-1.689,11.336-4.696l22.673-22.673c3.007-3.007,4.696-7.085,4.696-11.336c0,4.252,1.689,8.33,4.696,11.336
	l22.673,22.673c3.007,3.007,7.085,4.696,11.336,4.696h25.424c4.427,0,8.016-3.589,8.016-8.016V320.129
	c0-4.427-3.589-8.016-8.016-8.016c-8.856-0.004-16.032-7.184-16.032-16.04C304.096,287.227,311.263,280.054,320.109,280.048z
	 M255.999,223.935c8.854,0,16.032,7.178,16.032,16.032s-7.178,16.032-16.032,16.032c-8.854,0-16.032-7.178-16.032-16.032
	C239.966,231.113,247.145,223.935,255.999,223.935z M255.999,440.371c-13.282,0-24.048-10.767-24.048-24.048
	c0-13.282,10.767-24.048,24.048-24.048c13.282,0,24.048,10.767,24.048,24.048S269.28,440.371,255.999,440.371z"/>
<path style="fill:#85645D;" d="M231.95,480.452c-13.282,0-24.048-10.767-24.048-24.048V341.957c0-5.383,2.832-10.22,7.217-13.343
	c10.174-7.247,16.832-19.085,16.832-32.533c0-13.447-6.657-25.286-16.832-32.533c-4.385-3.123-7.217-7.96-7.217-13.343V7.5H191.87
	c-4.427,0-8.016,3.589-8.016,8.016v257.398c0,3.94,3.194,7.134,7.134,7.134h0.023c7.986,0,15.389,5.457,16.671,13.34
	c1.634,10.044-6.076,18.725-15.813,18.725h-0.882c-3.94,0-7.134,3.194-7.134,7.134v177.237c0,4.427,3.589,8.016,8.016,8.016h25.423
	c4.252,0,8.33-1.689,11.336-4.695l19.353-19.353L231.95,480.452L231.95,480.452z"/>
<path d="M320.128,287.548c8.556,0,15.517-6.96,15.517-15.516V15.516C335.644,6.96,328.683,0,320.128,0h-17.53
	c-7.311,0-13.699,5.195-15.19,12.352l-31.409,150.761L224.59,12.352C223.099,5.195,216.711,0,209.4,0h-17.53
	c-8.556,0-15.516,6.96-15.516,15.516v256.516c0,8.556,6.96,15.516,15.529,15.516c1.686,0.001,3.255,0.501,4.579,1.35l-1.879,1.879
	c-2.929,2.929-2.929,7.678,0,10.606c0.687,0.687,1.476,1.206,2.316,1.571c-1.412,1.037-3.148,1.657-5.029,1.658
	c-8.556,0-15.516,6.96-15.516,15.516v176.355c0,8.556,6.96,15.516,15.516,15.516h25.424c6.286,0,12.195-2.448,16.64-6.893
	l22.065-22.064l22.066,22.064c4.443,4.445,10.353,6.894,16.64,6.894h25.424c8.556,0,15.517-6.96,15.517-15.516V320.129
	c0-8.556-6.961-15.516-15.514-15.516c-4.706-0.002-8.535-3.833-8.535-8.54C311.595,291.376,315.417,287.552,320.128,287.548z
	 M255.999,231.436c4.705,0,8.532,3.828,8.532,8.532s-3.827,8.532-8.532,8.532c-4.705,0-8.532-3.828-8.532-8.532
	S251.294,231.436,255.999,231.436z M191.87,272.548c-0.285,0-0.516-0.231-0.516-0.516V15.516c0-0.285,0.231-0.516,0.516-0.516h17.53
	c0.243,0,0.455,0.173,0.505,0.411l38.594,185.249v17.008c-9.308,3.139-16.032,11.946-16.032,22.3c0,3.757,0.89,7.309,2.463,10.463
	l-27.778,27.778C203.038,274.688,197.702,272.552,191.87,272.548z M239.45,416.323c0-9.125,7.423-16.548,16.548-16.548
	c9.125,0,16.549,7.423,16.549,16.548s-7.424,16.548-16.549,16.548C246.873,432.871,239.45,425.448,239.45,416.323z M320.128,319.613
	c0.285,0,0.517,0.231,0.517,0.516v176.355c0,0.285-0.231,0.516-0.517,0.516h-25.424c-2.279,0-4.421-0.887-6.033-2.499
	l-22.672-22.672c-1.612-1.612-2.5-3.755-2.5-6.034v-18.832c13.786-3.375,24.049-15.829,24.049-30.64s-10.262-27.265-24.049-30.64
	v-9.441c0-4.142-3.357-7.5-7.5-7.5c-4.142,0-7.5,3.358-7.5,7.5v9.441c-13.786,3.375-24.048,15.829-24.048,30.64
	s10.262,27.265,24.048,30.64v18.832c0,2.279-0.888,4.421-2.499,6.033l-22.673,22.673c-1.612,1.611-3.754,2.499-6.033,2.499H191.87
	c-0.285,0-0.516-0.231-0.516-0.516V320.129c0-0.285,0.231-0.516,0.52-0.516c12.974-0.006,23.529-10.565,23.529-23.54
	c0-1.529-0.152-3.022-0.432-4.471l30.566-30.566c0.953,0.475,1.942,0.886,2.962,1.231v81.909c0,4.142,3.358,7.5,7.5,7.5
	c4.143,0,7.5-3.358,7.5-7.5v-81.909c9.308-3.139,16.032-11.946,16.032-22.3s-6.724-19.16-16.032-22.3v-17.006L302.093,15.41
	c0.049-0.238,0.262-0.411,0.505-0.411h17.53c0.285,0,0.517,0.231,0.517,0.516v256.516c0,0.285-0.231,0.516-0.541,0.516
	c-12.962,0.009-23.508,10.563-23.508,23.525C296.595,309.047,307.15,319.607,320.128,319.613z"/>
<g>
</g>
<g>
</g>
<g>
</g>
<g>
</g>
<g>
</g>
<g>
</g>
<g>
</g>
<g>
</g>
<g>
</g>
<g>
</g>
<g>
</g>
<g>
</g>
<g>
</g>
<g>
</g>
<g>
</g>
</svg>
