<?xml version="1.0" encoding="UTF-8" standalone="no"?>
<!-- Generator: Adobe Illustrator 19.0.0, SVG Export Plug-In . SVG Version: 6.00 Build 0)  -->

<svg
   xmlns:dc="http://purl.org/dc/elements/1.1/"
   xmlns:cc="http://creativecommons.org/ns#"
   xmlns:rdf="http://www.w3.org/1999/02/22-rdf-syntax-ns#"
   xmlns:svg="http://www.w3.org/2000/svg"
   xmlns="http://www.w3.org/2000/svg"
   xmlns:sodipodi="http://sodipodi.sourceforge.net/DTD/sodipodi-0.dtd"
   xmlns:inkscape="http://www.inkscape.org/namespaces/inkscape"
   version="1.1"
   id="Capa_1"
   x="0px"
   y="0px"
   viewBox="0 0 512 512"
   style="enable-background:new 0 0 512 512;"
   xml:space="preserve"
   sodipodi:docname="clothespinPart.svg"
   inkscape:version="0.92.3 (2405546, 2018-03-11)"><metadata
   id="metadata3797"><rdf:RDF><cc:Work
       rdf:about=""><dc:format>image/svg+xml</dc:format><dc:type
         rdf:resource="http://purl.org/dc/dcmitype/StillImage" /><dc:title></dc:title></cc:Work></rdf:RDF></metadata><defs
   id="defs3795" /><sodipodi:namedview
   pagecolor="#ffffff"
   bordercolor="#666666"
   borderopacity="1"
   objecttolerance="10"
   gridtolerance="10"
   guidetolerance="10"
   inkscape:pageopacity="0"
   inkscape:pageshadow="2"
   inkscape:window-width="1920"
   inkscape:window-height="1017"
   id="namedview3793"
   showgrid="false"
   inkscape:zoom="0.828125"
   inkscape:cx="-203.17757"
   inkscape:cy="130.75514"
   inkscape:window-x="-8"
   inkscape:window-y="-8"
   inkscape:window-maximized="1"
   inkscape:current-layer="Capa_1" />
<path
   style="fill:#9b7869"
   d="m 320.109,280.048 h 0.019 c 4.427,0 8.016,-3.589 8.016,-8.016 V 15.516 c 0,-4.427 -3.589,-8.016 -8.016,-8.016 h -17.53 c -3.797,0 -7.073,2.664 -7.847,6.381 L 255.999,199.887 217.247,13.881 C 216.473,10.164 213.197,7.5 209.4,7.5 h -17.53 c -4.427,0 -8.016,3.589 -8.016,8.016 v 256.516 c 0,4.427 3.589,8.016 8.016,8.016 h 0.019 c 8.846,0.006 16.014,7.179 16.014,16.024 0,8.856 -7.177,16.036 -16.032,16.04 -4.427,0 -12.43528,7.75469 -8.016,8.016 l 22.20048,1.31272 c 38.33068,2.14713 47.22286,-2.47914 48.24606,29.88524 0.55437,17.53472 1.02838,23.68373 0.42459,43.26751 23.01955,-2.04401 28.85362,43.63353 -0.29087,41.70954 -2.61139,8.9097 1.24153,22.36492 1.56474,29.49099 0,4.252 1.689,8.33 4.696,11.336 l 22.673,22.673 c 3.007,3.007 7.085,4.696 11.336,4.696 h 25.424 c 4.427,0 8.016,-3.589 8.016,-8.016 V 320.129 c 0,-4.427 -3.589,-8.016 -8.016,-8.016 -8.856,-0.004 -16.032,-7.184 -16.032,-16.04 -10e-4,-8.846 7.166,-16.019 16.012,-16.025 z m -64.11,-56.113 c 8.854,0 16.032,7.178 16.032,16.032 0,8.854 -7.178,16.032 -16.032,16.032 -8.854,0 -16.032,-7.178 -16.032,-16.032 -0.001,-8.854 7.178,-16.032 16.032,-16.032 z"
   id="path3756"
   inkscape:connector-curvature="0"
   sodipodi:nodetypes="cssssscccssssscscscsccccssssscccssscs" />
<path
   style="fill:#85645d"
   d="m 228.3539,321.78308 c 0,0 3.5971,-12.25408 3.5971,-25.70208 0,-13.447 -6.657,-25.286 -16.832,-32.533 -4.385,-3.123 -7.217,-7.96 -7.217,-13.343 V 7.5 H 191.87 c -4.427,0 -8.016,3.589 -8.016,8.016 v 257.398 c 0,3.94 3.194,7.134 7.134,7.134 h 0.023 c 7.986,0 15.389,5.457 16.671,13.34 1.634,10.044 -6.076,18.725 -15.813,18.725 h -0.882 c -3.94,0 -7.134,7.134 -7.134,7.134 14.00175,-0.93185 30.04373,1.09193 44.5009,2.53608 z"
   id="path3758"
   inkscape:connector-curvature="0"
   sodipodi:nodetypes="cscscssssscsscc" />
<path
   id="path3760"
   d="m 191.86914,0 c -8.556,0 -15.51562,6.959625 -15.51562,15.515625 V 272.03125 c 0,8.556 6.96029,15.51758 15.52929,15.51758 1.686,10e-4 3.25608,0.50061 4.58008,1.34961 l -1.88086,1.8789 c -2.929,2.929 -2.929,7.67747 0,10.60547 0.687,0.687 1.47641,1.20532 2.31641,1.57031 -1.412,1.037 -3.1483,1.65721 -5.0293,1.65821 -8.556,0 -15.21373,14.76286 -15.21373,14.76286 10.72886,0.26591 7.19759,-0.12719 14.6981,0.7547 v 0 c 0,0 0.23053,-0.51563 0.51953,-0.51563 12.974,-0.006 23.52929,-10.56601 23.52929,-23.54101 0,-1.529 -0.15164,-3.02171 -0.43164,-4.47071 l 30.56641,-30.5664 c 0.953,0.475 1.94094,0.88742 2.96094,1.23242 v 81.9082 c 0,4.142 3.358,7.5 7.5,7.5 4.143,0 7.5,-3.358 7.5,-7.5 v -81.9082 c 9.308,-3.139 16.0332,-11.94678 16.0332,-22.30078 0,-10.354 -6.7252,-19.15883 -16.0332,-22.29883 v -17.00781 l 38.5957,-185.250004 c 0.049,-0.238 0.26091,-0.412109 0.50391,-0.412109 h 17.53125 c 0.285,0 0.51562,0.232578 0.51562,0.517578 V 272.03125 c 0,0.285 -0.23101,0.51563 -0.54101,0.51563 -12.962,0.009 -23.50782,10.56339 -23.50782,23.52539 -10e-4,12.975 10.55521,23.53501 23.53321,23.54101 0.285,0 0.51562,0.23063 0.51562,0.51563 v 176.35547 c 0,0.285 -0.22962,0.51562 -0.51562,0.51562 h -25.42579 c -2.27899,0 -4.41924,-0.88605 -6.03124,-2.49805 l -22.67383,-22.67383 c -1.612,-1.612 -2.5,-3.7542 -2.5,-6.0332 v -18.83203 c 13.786,-3.375 24.05078,-15.82962 24.05078,-30.64062 0,-14.811 -10.26378,-27.26368 -24.05078,-30.63868 v -9.4414 c 0,-4.142 -3.357,-7.5 -7.5,-7.5 -0.84701,0 -1.65659,0.14741 -2.41602,0.40625 0.005,0.0179 0.0134,0.0346 0.0176,0.0527 -0.38945,10.62332 -0.20182,21.51449 -0.428,30.83403 0.9206,-0.15943 1.86068,-0.25977 2.82617,-0.25977 9.125,0 16.54883,7.42188 16.54883,16.54688 0,9.125 -7.42383,16.54882 -16.54883,16.54882 -1.42018,0 -2.79127,-0.19907 -4.10743,-0.53711 4.8e-4,0.0808 -0.003,0.1614 -0.002,0.24219 -0.0451,19.01813 -0.012,31.57548 0.002,47.95633 l 4.10697,2.51048 22.0664,22.0625 c 4.443,4.445 10.35363,6.89453 16.64063,6.89453 h 25.42383 c 8.556,0 15.51757,-6.95963 15.51757,-15.51562 V 320.12891 c 0,-8.556 -6.96067,-15.51563 -15.51367,-15.51563 -4.706,-0.002 -8.53515,-3.83401 -8.53515,-8.54101 -0.002,-4.697 3.82025,-8.51944 8.53125,-8.52344 8.556,0 15.51562,-6.96158 15.51562,-15.51758 V 15.515625 C 335.64353,6.959625 328.68391,0 320.12891,0 h -17.53125 c -7.311,0 -13.69846,5.1945625 -15.18946,12.351562 L 255.99805,163.11328 224.58984,12.351562 C 223.09884,5.1945625 216.71139,0 209.40039,0 Z m 0,15 h 17.53125 c 0.243,0 0.45391,0.172156 0.50391,0.410156 l 38.59375,185.250004 v 17.00781 c -9.308,3.139 -16.03125,11.94678 -16.03125,22.30078 0,3.757 0.88989,7.30889 2.46289,10.46289 l -27.77735,27.77734 c -4.114,-3.521 -9.4512,-5.65615 -15.2832,-5.66015 -0.285,0 -0.51562,-0.23258 -0.51562,-0.51758 V 15.515625 c 0,-0.285 0.23062,-0.515625 0.51562,-0.515625 z m 64.12891,216.43555 c 4.705,0 8.5332,3.8292 8.5332,8.5332 0,4.704 -3.8282,8.53125 -8.5332,8.53125 -4.705,0 -8.53125,-3.82725 -8.53125,-8.53125 0,-4.704 3.82625,-8.5332 8.53125,-8.5332 z"
   inkscape:connector-curvature="0"
   sodipodi:nodetypes="sssccccccccscscccssscscccsssscccssssssscscsscccssscccccsssscccscsscccsssscccscccssssssss" />
<g
   id="g3762">
</g>
<g
   id="g3764">
</g>
<g
   id="g3766">
</g>
<g
   id="g3768">
</g>
<g
   id="g3770">
</g>
<g
   id="g3772">
</g>
<g
   id="g3774">
</g>
<g
   id="g3776">
</g>
<g
   id="g3778">
</g>
<g
   id="g3780">
</g>
<g
   id="g3782">
</g>
<g
   id="g3784">
</g>
<g
   id="g3786">
</g>
<g
   id="g3788">
</g>
<g
   id="g3790">
</g>
</svg>