<?xml version="1.0" encoding="UTF-8"?>
<svg enable-background="new 0 0 480 480" version="1.1" viewBox="0 0 480 480" xml:space="preserve" xmlns="http://www.w3.org/2000/svg">
<path d="M272,368H8V8h464v360h-32H272z" fill="#E6E6E6"/>
<path d="M240,8h232v360H240V8z" fill="#ccc"/>
<path d="m432 216l-16-32-16 32c8.834 8.837 23.159 8.839 31.995 5e-3l5e-3 -5e-3z" fill="#333"/>
<path d="m392 424h48v48h-48v-48z" fill="#ccc"/>
<path d="m432 216c-8.834 8.837-23.159 8.839-31.995 5e-3l-5e-3 -5e-3 -7.872 15.752h47.744l-7.872-15.752z" fill="#EFC7B0"/>
<path d="M392.128,231.752L392,232v192h48V232l-0.128-0.248H392.128z" fill="#29ABE2"/>
<path d="M272,8v432l32-40l32,40V8" fill="#C1272D"/>
<path d="m472 0h-464c-4.418 0-8 3.582-8 8v360c0 4.418 3.582 8 8 8h256v64c-2e-3 4.418 3.578 8.002 7.996 8.004 2.432 1e-3 4.733-1.104 6.252-3.004l25.752-32.2 25.752 32.192c2.759 3.451 7.794 4.011 11.244 1.252 1.897-1.517 3.002-3.814 3.004-6.244v-48h40v80c0 4.418 3.582 8 8 8h48c4.418 0 8-3.582 8-8v-96h24c4.418 0 8-3.582 8-8v-360c0-4.418-3.582-8-8-8zm-456 16h216v344h-216v-344zm232 344v-344h16v344h-16zm80 57.192l-17.752-22.192c-2.994-3.451-8.218-3.821-11.669-0.827-0.295 0.256-0.571 0.532-0.827 0.827l-17.752 22.192v-401.19h48v401.19zm72-183.3l3.112-6.224c8.144 3.926 17.632 3.926 25.776 0l3.112 6.224v182.11h-32v-182.11zm10.24-20.472l5.76-11.528 5.76 11.528c-3.678 1.576-7.842 1.576-11.52 0zm-10.24 250.58v-32h32v32h-32zm64-104h-16v-128c0.014-1.238-0.26-2.462-0.8-3.576l-24-48c-2.358-3.954-7.475-5.249-11.429-2.891-1.189 0.709-2.182 1.702-2.891 2.891l-24 48c-0.567 1.107-0.869 2.332-0.88 3.576v144h-40v-200h40c4.418 0 8-3.582 8-8s-3.582-8-8-8h-40v-16h96c4.418 0 8-3.582 8-8s-3.582-8-8-8h-96v-16h96c4.418 0 8-3.582 8-8s-3.582-8-8-8h-96v-16h96c4.418 0 8-3.582 8-8s-3.582-8-8-8h-96v-48h120v344z"/>
<path d="m40 48h40c4.418 0 8-3.582 8-8s-3.582-8-8-8h-40c-4.418 0-8 3.582-8 8s3.582 8 8 8z"/>
<path d="m40 80h168c4.418 0 8-3.582 8-8s-3.582-8-8-8h-168c-4.418 0-8 3.582-8 8s3.582 8 8 8z"/>
<path d="m208 96h-168c-4.418 0-8 3.582-8 8s3.582 8 8 8h168c4.418 0 8-3.582 8-8s-3.582-8-8-8z"/>
<path d="m208 128h-168c-4.418 0-8 3.582-8 8s3.582 8 8 8h168c4.418 0 8-3.582 8-8s-3.582-8-8-8z"/>
<path d="m208 160h-168c-4.418 0-8 3.582-8 8s3.582 8 8 8h168c4.418 0 8-3.582 8-8s-3.582-8-8-8z"/>
<path d="m208 192h-168c-4.418 0-8 3.582-8 8s3.582 8 8 8h168c4.418 0 8-3.582 8-8s-3.582-8-8-8z"/>
<path d="m208 224h-168c-4.418 0-8 3.582-8 8s3.582 8 8 8h168c4.418 0 8-3.582 8-8s-3.582-8-8-8z"/>
<path d="m208 256h-168c-4.418 0-8 3.582-8 8s3.582 8 8 8h168c4.418 0 8-3.582 8-8s-3.582-8-8-8z"/>
<path d="m168 288h-128c-4.418 0-8 3.582-8 8s3.582 8 8 8h128c4.418 0 8-3.582 8-8s-3.582-8-8-8z"/>
</svg>
