<?xml version="1.0" encoding="UTF-8"?>
<svg enable-background="new 0 0 478.856 478.856" version="1.1" viewBox="0 0 478.856 478.856" xml:space="preserve" xmlns="http://www.w3.org/2000/svg">
<path d="m406.86 358.87h-400v-192h400v192z" fill="#8CC153"/>
<path d="m15.744 166.87l23.112-104 357.54 80.448-4.224 23.552" fill="#87B748"/>
<path d="m262.86 326.87h60.264l35.736-34.856v-57.592l-32.504-35.552h-251.76l-35.736 34.856v57.592l32.504 35.552h191.5z" fill="#A0D468"/>
<path d="m96.384 75.817l26.256-62.696 260.22 108.42-5.728 17.448" fill="#7CAA33"/>
<path d="m310.86 406.87v32c0 13.256 35.816 24 80 24s80-10.744 80-24v-32" fill="#F8CF26"/>
<circle cx="198.86" cy="262.87" r="64" fill="#8CC153"/>
<path d="m310.86 374.87v32c0 13.256 35.816 24 80 24s80-10.744 80-24v-32" fill="#CDA349"/>
<path d="m310.86 342.87v32c0 13.256 35.816 24 80 24s80-10.744 80-24v-32" fill="#F8CF26"/>
<path d="m310.86 310.87v32c0 13.256 35.816 24 80 24s80-10.744 80-24v-32" fill="#CDA349"/>
<path d="m310.86 278.87v32c0 13.256 35.816 24 80 24s80-10.744 80-24v-32" fill="#F8CF26"/>
<path d="m310.86 246.87v32c0 13.256 35.816 24 80 24s80-10.744 80-24v-32" fill="#CDA349"/>
<ellipse cx="390.86" cy="246.87" rx="80" ry="24" fill="#F8CF26"/>
<path d="m406.86 197.73c3.782 4e-3 6.852-3.058 6.856-6.84v-0.016-24c4e-3 -3.782-3.058-6.852-6.84-6.856h-0.016-400c-3.782-4e-3 -6.852 3.058-6.856 6.84v0.016 192c-4e-3 3.782 3.058 6.852 6.84 6.856h0.016 272c3.786 0 6.856-3.07 6.856-6.856s-3.07-6.856-6.856-6.856h-265.14v-178.29h386.29v17.144c-4e-3 3.782 3.058 6.852 6.84 6.856h0.016z"/>
<path d="m35.184 57.081c-1.537 0.979-2.624 2.526-3.024 4.304l-16 72c-0.822 3.698 1.51 7.362 5.208 8.184s7.362-1.51 8.184-5.208l14.504-65.288 313.3 70.488c0.496 0.115 1.003 0.171 1.512 0.168 3.786-7e-3 6.85-3.082 6.844-6.868-6e-3 -3.201-2.225-5.971-5.348-6.676l-320-72c-1.776-0.396-3.637-0.074-5.176 0.896z"/>
<path d="m117.01 49.945l13.128-26.272 186.07 77.528c3.504 1.462 7.53-0.192 8.992-3.696s-0.192-7.53-3.696-8.992l-192-80c-3.337-1.391-7.182 0.038-8.8 3.272l-16 32c-1.807 3.342-0.563 7.517 2.78 9.324s7.517 0.563 9.324-2.78c0.071-0.131 0.138-0.265 0.2-0.401v0.017z"/>
<path d="m333.21 198.87c0-3.786-3.07-6.856-6.856-6.856h-63.496c-3.786 0-6.856 3.07-6.856 6.856s3.07 6.856 6.856 6.856h63.496c3.786 0 6.856-3.069 6.856-6.856z"/>
<path d="m198.86 333.27c38.881 0 70.4-31.519 70.4-70.4s-31.519-70.4-70.4-70.4-70.4 31.519-70.4 70.4c0.04 38.865 31.536 70.361 70.4 70.4zm0-128c31.812 0 57.6 25.788 57.6 57.6s-25.788 57.6-57.6 57.6-57.6-25.788-57.6-57.6c0.035-31.797 25.803-57.564 57.6-57.6z"/>
<path d="m390.86 214.87c-42.4 0-88 10.016-88 32v192c0 21.984 45.6 32 88 32s88-10.016 88-32v-192c0-21.984-45.6-32-88-32zm72 191.88c-1.208 4.44-25.2 16.12-72 16.12s-70.792-11.68-72-16v-12.576c17.024 8.576 45.144 12.576 72 12.576s54.984-4.04 72-12.584v12.464zm0-32c-1.208 4.44-25.2 16.12-72 16.12s-70.792-11.68-72-16v-12.576c17.024 8.576 45.144 12.576 72 12.576s54.984-4.04 72-12.584v12.464zm0-32c-1.208 4.44-25.2 16.12-72 16.12s-70.792-11.68-72-16v-12.576c17.024 8.576 45.144 12.576 72 12.576s54.984-4.04 72-12.584v12.464zm0-32c-1.208 4.44-25.2 16.12-72 16.12s-70.792-11.68-72-16v-12.576c17.024 8.536 45.144 12.576 72 12.576s54.984-4.04 72-12.584v12.464zm0-32c-1.208 4.44-25.2 16.12-72 16.12s-70.792-11.68-72-16v-12.576c17.024 8.536 45.144 12.576 72 12.576s54.984-4.04 72-12.584v12.464zm-72-47.88c46.4 0 70.4 11.472 72 16-1.6 4.528-25.6 16-72 16-46.728 0-70.712-11.648-72-15.856v-0.048c1.288-4.456 25.272-16.096 72-16.096zm0 224c-46.8 0-70.792-11.68-72-16v-12.576c17.024 8.576 45.144 12.576 72 12.576s54.984-4.04 72-12.584v12.464c-1.208 4.44-25.2 16.12-72 16.12z"/>
<path d="m77.376 205.73h57.48c3.786 0 6.856-3.07 6.856-6.856s-3.07-6.856-6.856-6.856h-60.264c-1.792-4e-3 -3.515 0.694-4.8 1.944l-35.736 34.856c-1.335 1.56-2.067 3.547-2.064 5.6v56.896c0 1.711 0.639 3.36 1.792 4.624l32.504 35.552c1.299 1.422 3.137 2.233 5.064 2.232h63.504c3.786 0 6.856-3.07 6.856-6.856s-3.07-6.856-6.856-6.856h-60.472l-28.672-31.36v-52l31.664-30.92z"/>
<path d="m202.86 274.87h-20c-4.418 0-8 3.582-8 8s3.582 8 8 8h8c0 4.418 3.582 8 8 8s8-3.582 8-8v-0.36c8.873-1.253 15.595-8.648 16-17.6-0.573-10.489-9.507-18.548-20-18.04h-8c-2.488 0-4-1.392-4-2s1.512-2 4-2h20c4.418 0 8-3.582 8-8s-3.582-8-8-8h-8c0-4.418-3.582-8-8-8s-8 3.582-8 8v0.36c-8.873 1.253-15.595 8.648-16 17.6 0.573 10.489 9.507 18.548 20 18.04h8c2.488 0 4 1.392 4 2s-1.512 2-4 2z"/>
</svg>
