<?xml version="1.0" encoding="UTF-8"?>
<svg width="29.849mm" height="4.7869mm" version="1.1" viewBox="0 0 29.848974 4.7868752" xmlns="http://www.w3.org/2000/svg" xmlns:cc="http://creativecommons.org/ns#" xmlns:dc="http://purl.org/dc/elements/1.1/" xmlns:rdf="http://www.w3.org/1999/02/22-rdf-syntax-ns#">
<metadata>
<rdf:RDF>
<cc:Work rdf:about="">
<dc:format>image/svg+xml</dc:format>
<dc:type rdf:resource="http://purl.org/dc/dcmitype/StillImage"/>
<dc:title/>
</cc:Work>
</rdf:RDF>
</metadata>
<g transform="translate(0 -292.21)">
<g style="font-feature-settings:normal;font-variant-caps:normal;font-variant-ligatures:normal;font-variant-numeric:normal" aria-label="Татьяна Хорошилова">
<path d="m1.6953 292.21c-0.19254-8e-3 -0.37515 7e-3 -0.54688 0.043-0.18994 0.0416-0.35364 0.10815-0.49414 0.19922-0.1405 0.0911-0.2592 0.19542-0.35547 0.3125-0.093667 0.11449-0.16541 0.2371-0.21484 0.36719-0.049435 0.13009-0.076828 0.25531-0.082031 0.375-0.0078056 0.14311 0.0091516 0.28203 0.050781 0.41992 0.04163 0.1353 0.10685 0.25661 0.19531 0.36328 0.091065 0.10668 0.20716 0.19538 0.34766 0.26563 0.1405 0.0677 0.30551 0.10678 0.49805 0.11718 0.18994 8e-3 0.35429-0.0143 0.49219-0.0664 0.1379-0.052 0.25138-0.12378 0.33984-0.21485 0.091065-0.0937 0.15889-0.20193 0.20312-0.32421 0.044232-0.12229 0.07032-0.24817 0.078125-0.38086v-0.0977c0-0.0338-0.00131-0.0691-0.00391-0.10547l-0.22266 0.0234c0.00521 0.0676 0.00521 0.13284 0 0.19531-0.0052 0.11448-0.026074 0.2234-0.0625 0.33008-0.033824 0.10407-0.086 0.19668-0.15625 0.27734-0.07025 0.078-0.16025 0.14064-0.26953 0.1875-0.10928 0.0468-0.24233 0.0664-0.39844 0.0586-0.15611-8e-3 -0.28851-0.0417-0.40039-0.10157-0.11188-0.0598-0.20449-0.1368-0.27734-0.23046-0.072852-0.0963-0.12503-0.20324-0.15625-0.32032-0.031222-0.11968-0.044266-0.24034-0.039062-0.36523 0.007806-0.15091 0.045633-0.297 0.11328-0.4375 0.067648-0.1405 0.15765-0.26442 0.26953-0.37109 0.11449-0.10922 0.24558-0.19661 0.39649-0.26167 0.15351-0.0651 0.31786-0.0977 0.49219-0.0977 0.088463-3e-3 0.1876 1e-3 0.29688 0.0117 0.11188 0.0104 0.23188 0.0274 0.35938 0.0508 0.12749 0.0208 0.26184 0.0456 0.40234 0.0742 0.1431 0.0261 0.28919 0.0547 0.4375 0.0859-0.036426 0.0702-0.075558 0.16155-0.11719 0.27343-0.041629 0.10928-0.082066 0.23711-0.12109 0.38282-0.039028 0.1457-0.075551 0.30874-0.10938 0.48828-0.033824 0.17692-0.062521 0.36802-0.085937 0.57617-0.033824 0.30702-0.076869 0.57442-0.12891 0.80078-0.049435 0.22636-0.10552 0.42072-0.16797 0.58203-0.062444 0.16132-0.13158 0.29241-0.20703 0.39649-0.072852 0.10404-0.14981 0.18622-0.23047 0.24609-0.078056 0.0599-0.15893 0.10029-0.24219 0.12109-0.083259 0.0234-0.16674 0.0352-0.25 0.0352-0.11188 0-0.2084-0.0157-0.28906-0.0469-0.080657-0.0312-0.14523-0.0729-0.19727-0.125-0.052037-0.052-0.091169-0.11204-0.11719-0.17968-0.023417-0.065-0.035156-0.13093-0.035156-0.20117 0-0.0572 0.007826-0.11331 0.023438-0.16797 0.018213-0.0521 0.042996-0.0977 0.074219-0.13672 0.031222-0.0417 0.067745-0.0743 0.10938-0.0977s0.08533-0.0351 0.13477-0.0351l-0.011719-0.21485c-0.078056 0-0.14915 0.0183-0.2168 0.0547-0.065046 0.0364-0.12114 0.0847-0.16797 0.14453-0.046833 0.0573-0.083356 0.12507-0.10938 0.20313-0.026018 0.0754-0.039062 0.15371-0.039062 0.23437 0 0.0859 0.015653 0.16869 0.046875 0.25195 0.033824 0.0832 0.084696 0.15759 0.15234 0.22266 0.067648 0.0651 0.15374 0.11725 0.25781 0.15625 0.10407 0.0416 0.22734 0.0625 0.37305 0.0625 0.15611 0 0.31133-0.0326 0.46484-0.0977 0.15351-0.0624 0.29699-0.17984 0.42969-0.35156 0.13269-0.16912 0.25009-0.40196 0.35156-0.70117 0.10147-0.29921 0.17713-0.68532 0.22656-1.1562 0.046833-0.46573 0.10031-0.83423 0.16016-1.1074 0.062444-0.2732 0.11984-0.46885 0.17188-0.58594 0.26019 0.0521 0.52172 0.10033 0.78711 0.14453 0.26799 0.0443 0.52365 0.0703 0.76562 0.0781 0.24197 5e-3 0.46502-0.0144 0.66797-0.0586 0.20555-0.0442 0.37447-0.12771 0.50977-0.25l-0.10156-0.12096c-0.1379 0.10144-0.28856 0.17318-0.45508 0.21484-0.16652 0.039-0.34392 0.0586-0.53125 0.0586-0.18733 0-0.3843-0.0157-0.58984-0.0469-0.20294-0.0313-0.41034-0.0691-0.62109-0.11328-0.21075-0.0443-0.42141-0.0899-0.63477-0.13672-0.21075-0.0495-0.41945-0.0899-0.625-0.12109-0.20555-0.0312-0.40512-0.0508-0.59766-0.0586zm16.787 0.0195c-0.18994-1e-5 -0.36081 0.0535-0.51172 0.16015-0.1483 0.10667-0.28396 0.25016-0.40625 0.42969-0.11968 0.17693-0.22926 0.38171-0.32812 0.61328-0.09627 0.22896-0.18562 0.46702-0.27148 0.7168-0.04163-0.23937-0.0912-0.4709-0.14844-0.69727-0.05464-0.22636-0.12377-0.42724-0.20703-0.60156-0.08326-0.17693-0.18631-0.3178-0.30859-0.42188-0.11968-0.10667-0.26578-0.16015-0.4375-0.16015-0.10668 0-0.20842 0.0183-0.30469 0.0547-0.09367 0.0338-0.17584 0.0821-0.24609 0.14454-0.07025 0.0624-0.12634 0.1381-0.16797 0.22656-0.04163 0.0859-0.0625 0.17978-0.0625 0.28125 0 0.0859 0.01435 0.17065 0.04297 0.25391 0.02862 0.0806 0.07036 0.15368 0.125 0.21874 0.05724 0.0651 0.12768 0.11726 0.21094 0.15626s0.17848 0.0566 0.28516 0.0566c0.01041-0.0417 0.01824-0.0801 0.02344-0.11914 0.0078-0.0417 0.01694-0.0834 0.02734-0.125-0.08066-3e-3 -0.1524-0.0183-0.21484-0.0469-0.06244-0.0312-0.11462-0.0717-0.15625-0.12109-0.04163-0.0494-0.07424-0.1042-0.09766-0.16407-0.02081-0.0624-0.03125-0.12503-0.03125-0.1875 0-0.0624 0.01044-0.12242 0.03125-0.17968 0.02081-0.0599 0.05342-0.11205 0.09766-0.15625 0.04423-0.0469 0.09902-0.0847 0.16406-0.11329 0.06765-0.0286 0.14722-0.043 0.23828-0.043 0.1457 0 0.26832 0.0509 0.36719 0.15234 0.10147 0.0989 0.18756 0.23974 0.25781 0.42188 0.07025 0.17952 0.13025 0.39605 0.17969 0.64843 0.05204 0.25238 0.1003 0.52957 0.14453 0.83399l0.01172 0.0859c-0.09367 0.24198-0.19541 0.47807-0.30469 0.70704-0.10668 0.22896-0.22798 0.43244-0.36328 0.60937-0.1353 0.17953-0.28922 0.32106-0.46094 0.42774-0.17172 0.10667-0.36868 0.16015-0.58984 0.16015-0.1483 0-0.27549-0.0287-0.38476-0.0859-0.10668-0.0546-0.19668-0.12899-0.26953-0.22265-0.07025-0.0937-0.12242-0.19868-0.15625-0.31836-0.03383-0.11968-0.05078-0.24491-0.05078-0.375 0-0.15091 0.02087-0.30091 0.0625-0.44922 0.04423-0.14831 0.10815-0.28135 0.19141-0.39844 0.08326-0.11968 0.185-0.21621 0.30469-0.28906 0.12229-0.0728 0.2586-0.10938 0.41211-0.10938 0.08586 0 0.16412 0.0183 0.23437 0.0547 0.07025 0.0338 0.12895 0.0808 0.17578 0.14063 0.04943 0.0572 0.08726 0.12376 0.11328 0.19922 0.02862 0.0729 0.04297 0.14981 0.04297 0.23046 0 0.10148-0.01957 0.20713-0.05859 0.31641-0.03643 0.10667-0.09643 0.20972-0.17969 0.30859l0.19141 0.11329c0.08326-0.0989 0.14587-0.20584 0.1875-0.32032 0.04163-0.11708 0.0625-0.23447 0.0625-0.35156 0-0.10927-0.01695-0.21363-0.05078-0.3125-0.03122-0.0989-0.07949-0.18626-0.14453-0.26172-0.06505-0.0755-0.14461-0.13549-0.23828-0.17969-0.09367-0.0442-0.20063-0.0664-0.32031-0.0664-0.20034 0-0.37318 0.0404-0.52148 0.12109-0.14831 0.0807-0.27353 0.18762-0.375 0.32031-0.09887 0.1301-0.17322 0.27749-0.22266 0.44141-0.04943 0.16131-0.07422 0.32437-0.07422 0.48828 0 0.14831 0.02087 0.28984 0.0625 0.42774 0.04423 0.1405 0.10945 0.26442 0.19531 0.37109 0.08846 0.10926 0.19934 0.19665 0.33203 0.26172 0.1327 0.0676 0.28727 0.10156 0.4668 0.10156 0.22896 0 0.43245-0.0535 0.60938-0.16016 0.17953-0.10668 0.33997-0.24755 0.48047-0.42187 0.1405-0.17433 0.26442-0.37194 0.37109-0.5957 0.10928-0.22376 0.21102-0.45204 0.30469-0.6836 0.02602 0.18734 0.05341 0.37256 0.08203 0.55469 0.03122 0.18213 0.06905 0.35692 0.11328 0.52344 0.04423 0.16652 0.09641 0.31979 0.15625 0.46289 0.06245 0.14311 0.13745 0.26702 0.22852 0.37109 0.09107 0.10405 0.19802 0.18623 0.32031 0.2461 0.12489 0.0599 0.27098 0.0898 0.4375 0.0898 0.17172 0 0.31651-0.0351 0.43359-0.10547h0.16406c0.01369-0.087 0.03049-0.17308 0.04492-0.25976 0.02106-0.0362 0.05471-0.0493 0.07227-0.0918l-0.05469-0.0176c0.01827-0.10729 0.03528-0.21554 0.05469-0.32227 0.03903-0.22896 0.07685-0.45788 0.11328-0.68945 0.01821 0.078 0.05082 0.13802 0.09766 0.17969 0.04944 0.0416 0.11987 0.0625 0.21094 0.0625 0.08846 0 0.17716-0.0196 0.26562-0.0586 0.09107-0.039 0.17716-0.0938 0.25781-0.16407 0.08066-0.0702 0.15501-0.15503 0.22266-0.2539 0.05172-0.0756 0.09174-0.16463 0.13281-0.25391-0.0086 0.11442-0.016 0.22824 0 0.32422 0.01822 0.12229 0.05735 0.22142 0.11719 0.29687 0.06245 0.0729 0.14984 0.10938 0.26172 0.10938 0.10147 0 0.1993-0.043 0.29297-0.12891 0.09366-0.0885 0.17193-0.19673 0.23438-0.32422 0.09627-0.0286 0.1778-0.0821 0.24805-0.16015 0.0282-0.0324 0.04742-0.0866 0.07227-0.12696-0.01522 0.11916-0.02734 0.23387-0.02734 0.33399 0 0.12489 0.01565 0.22403 0.04687 0.29687 0.03122 0.0703 0.0847 0.10547 0.16016 0.10547 0.07545 0 0.1498-0.0457 0.22266-0.13672 0.07285-0.0911 0.13677-0.20846 0.19141-0.35156-0.0052 0.0546-0.0065 0.1107-0.0039 0.16797 0.0052 0.0572 0.01434 0.11069 0.02734 0.16016 0.01561 0.0469 0.03779 0.086 0.06641 0.11718 0.02862 0.0286 0.06645 0.043 0.11328 0.043 0.07545 0 0.1498-0.0457 0.22266-0.13672 0.07285-0.0911 0.13677-0.20846 0.19141-0.35156 0 0.013-0.0013 0.0261-0.0039 0.0391v0.0391c0 0.12488 0.01304 0.22532 0.03906 0.30078 0.02862 0.0729 0.07949 0.10937 0.15234 0.10937 0.06245 0 0.11658-0.0222 0.16602-0.0664 0.04943-0.0468 0.09639-0.11075 0.14062-0.19141 0.04683-0.0833 0.09248-0.18109 0.13672-0.29297 0.0082-0.0207 0.0189-0.0469 0.02734-0.0684-0.0062 0.0716-0.01758 0.14907-0.01758 0.21289 0 0.12229 0.01565 0.22012 0.04687 0.29297 0.03122 0.0729 0.0847 0.10938 0.16016 0.10938 0.07545 0 0.1498-0.0457 0.22266-0.13672 0.07285-0.0911 0.13677-0.20846 0.19141-0.35156 0 0.013-0.0013 0.0261-0.0039 0.0391v0.0391c0 0.12489 0.01304 0.22533 0.03906 0.30078 0.02862 0.0729 0.07949 0.10938 0.15234 0.10938 0.06245 0 0.11854-0.0222 0.16797-0.0664 0.04943-0.0468 0.09639-0.11075 0.14062-0.19141 0.03772-0.0671 0.07334-0.15069 0.10938-0.23632-0.0196 0.0404-0.03672 0.0827-0.04297 0.13476-0.0078 0.0624-0.0039 0.12242 0.01172 0.17969 0.01561 0.0547 0.04561 0.099 0.08984 0.13281 0.04163 0.0338 0.10033 0.0443 0.17578 0.0312 0.05724-0.0104 0.11072-0.0482 0.16016-0.11328 0.04943-0.0677 0.09639-0.15113 0.14062-0.25 0.04423-0.10147 0.08467-0.21365 0.12109-0.33594 0.03903-0.12489 0.07425-0.2488 0.10547-0.37109 0.03382-0.12229 0.06382-0.23968 0.08984-0.35156 0.02863-0.11188 0.05471-0.20711 0.07813-0.28516h0.08594c-0.02081 0.0989-0.04429 0.20583-0.07031 0.32031-0.02342 0.11448-0.04559 0.23058-0.06641 0.34766-0.02081 0.11449-0.03907 0.22666-0.05469 0.33594-0.01301 0.10928-0.01953 0.20841-0.01953 0.29687 0 0.11968 0.01565 0.21752 0.04687 0.29297 0.03122 0.0754 0.08209 0.11328 0.15234 0.11328 0.06245 0 0.11854-0.0222 0.16797-0.0664 0.05204-0.0468 0.1003-0.11075 0.14453-0.19141 0.04423-0.0833 0.08663-0.18109 0.13086-0.29297 0.01023-0.0259 0.02255-0.0588 0.0332-0.0859-0.0026 0.0865-0.01253 0.17875 0 0.25391 0.01822 0.12229 0.05735 0.22142 0.11719 0.29687 0.06245 0.0729 0.14984 0.10938 0.26172 0.10938 0.10147 0 0.1993-0.043 0.29297-0.12891 0.09366-0.0885 0.17193-0.19673 0.23438-0.32422 0.09627-0.0286 0.17975-0.0821 0.25-0.16015 0.03985-0.0457 0.06841-0.11803 0.10156-0.17969-5e-6 2e-3 0 5e-3 0 8e-3 0 0.11188 0.0065 0.21624 0.01953 0.3125 0.01301 0.0963 0.03388 0.17976 0.0625 0.25 0.03122 0.0703 0.07035 0.12507 0.11719 0.16407 0.04683 0.039 0.10553 0.0586 0.17578 0.0586 0.10407 0 0.19669-0.0404 0.27734-0.12109 0.08066-0.0833 0.14979-0.18892 0.20703-0.31641 0.09887-0.0234 0.18887-0.0782 0.26953-0.16406 0.03672-0.0379 0.0592-0.0976 0.08984-0.14453-0.0152 0.1-0.02344 0.19531-0.02344 0.28515 0 0.1405 0.01957 0.25137 0.05859 0.33203 0.03903 0.0807 0.10034 0.1211 0.18359 0.1211 0.05204 0 0.1003-0.0157 0.14453-0.0469 0.04683-0.0338 0.08988-0.0768 0.12891-0.1289 0.03903-0.0546 0.07425-0.11726 0.10547-0.1875 0.03383-0.0729 0.06513-0.14851 0.09375-0.22657l-0.01953 0.1875c0 0.268 0.05348 0.40235 0.16016 0.40235 0.04163 0 0.08207-0.017 0.12109-0.0508 0.03903-0.0338 0.08077-0.0873 0.125-0.16016 0.04683-0.0755 0.0964-0.17198 0.14844-0.28906 0.05464-0.11709 0.11594-0.25796 0.18359-0.42188 0-5e-3 -0.0091-0.013-0.02734-0.0234-0.01561-0.0104-0.02996-0.0156-0.04297-0.0156-0.09887 0.26279-0.18887 0.46236-0.26953 0.59766-0.07805 0.13269-0.13936 0.19921-0.18359 0.19921-0.03122 0-0.04687-0.0469-0.04687-0.14062 0-0.0261 0.0013-0.0547 0.0039-0.0859 0.0026-0.0338 0.0065-0.0704 0.01172-0.10937 0.02342-0.18474 0.05472-0.38692 0.09375-0.60547 0.04163-0.21856 0.08729-0.44943 0.13672-0.69141h-0.17578l-0.05469 0.27344c-0.01041-0.0884-0.03389-0.16018-0.07031-0.21484-0.03643-0.0573-0.09382-0.0859-0.17188-0.0859-0.05984 0-0.11724 0.0222-0.17188 0.0664-0.05204 0.0416-0.1016 0.0977-0.14844 0.16797-0.04683 0.0703-0.08988 0.15243-0.12891 0.2461-0.03903 0.0937-0.07294 0.19149-0.10156 0.29297-0.0076 0.0295-0.01089 0.0601-0.01758 0.0898-4.54e-4 -1e-5 -0.0015 0-2e-3 0-0.04684 0.12227-0.10032 0.21618-0.16016 0.28125-0.05984 0.0651-0.12506 0.10941-0.19531 0.13281 0.03643-0.0989 0.06382-0.20192 0.08203-0.30859 0.01821-0.10928 0.02734-0.21493 0.02734-0.31641 0-0.0885-0.0078-0.17194-0.02344-0.25-0.01301-0.078-0.03519-0.14586-0.06641-0.20312-0.03122-0.0599-0.07166-0.10683-0.12109-0.14063-0.04683-0.0364-0.10292-0.0547-0.16797-0.0547-0.07546 0-0.14328 0.0196-0.20312 0.0586-0.05984 0.0364-0.11202 0.086-0.15625 0.14844l0.03516-0.1836c0.19996-0.20823 0.2068-0.38353 0.30078-0.57422-0.07327 0.14646-0.16152 0.28542-0.26953 0.41797 0.02862-0.1379 0.05862-0.26638 0.08984-0.38867 0.03383-0.12489 0.06644-0.23316 0.09766-0.32422 0.03383-0.0936 0.06513-0.16799 0.09375-0.22265 0.02862-0.0547 0.05341-0.082 0.07422-0.082 0.03122 0 0.04687 0.03 0.04687 0.0899 0 0.16002-0.04085 0.31759-0.11524 0.47265 0.07186-0.15611 0.24805-0.32843 0.24805-0.47265 0-0.0755-0.02087-0.13288-0.0625-0.17188-0.03902-0.0416-0.08468-0.0625-0.13672-0.0625-0.04423 0-0.08727 0.0144-0.12891 0.043-0.03903 0.0286-0.07294 0.073-0.10156 0.13281-0.04943 0.10928-0.10161 0.25016-0.15625 0.42188-0.05204 0.17173-0.1003 0.35695-0.14453 0.55469-0.04163 0.19774-0.07685 0.39927-0.10547 0.60742-0.01963 0.14096-0.02313 0.26776-0.0293 0.39648-0.0015-1.2e-4 -0.0045-2e-3 -0.0059-2e-3 -0.04423 0.11706-0.09249 0.20576-0.14453 0.26562-0.04943 0.0599-0.10683 0.10552-0.17188 0.13672 0.05204-0.1353 0.08856-0.27747 0.10938-0.42578 0.02341-0.1483 0.02603-0.28396 0.0078-0.40625-0.01561-0.12489-0.05213-0.22794-0.10938-0.30859-0.05464-0.0807-0.13421-0.1211-0.23828-0.1211-0.06765 0-0.13026 0.0157-0.1875 0.0469-0.05464 0.0286-0.1029 0.0677-0.14453 0.11719-0.04163 0.0494-0.07685 0.10681-0.10547 0.17187-0.02862 0.065-0.04949 0.13418-0.0625 0.20703l-0.12109-0.0312c-0.03595 0.12784-0.05513 0.25177-0.07422 0.375-0.08797 0.23319-0.16824 0.4252-0.23828 0.55078-0.07286 0.1327-0.13938 0.19922-0.19922 0.19922-0.02082 0-0.03777-0.0118-0.05078-0.0352s-0.01953-0.0651-0.01953-0.125c0-0.0807 0.0065-0.17458 0.01953-0.28125 0.01561-0.10668 0.03387-0.22407 0.05469-0.35157 0.02342-0.12749 0.0495-0.26184 0.07813-0.40234 0.03123-0.1431 0.06253-0.28919 0.09375-0.4375h-0.5625l-0.03906 0.0937h0.19922c-0.02602 0.0859-0.05472 0.19413-0.08594 0.32422-0.03122 0.12749-0.06644 0.26054-0.10547 0.39844-0.03903 0.1379-0.08207 0.27225-0.12891 0.40234-0.04683 0.13009-0.09901 0.24097-0.15625 0.33203-0.03903 0.0651-0.07685 0.0977-0.11328 0.0977-0.03643 0-0.06512-0.0183-0.08594-0.0547-0.01821-0.0364-0.02604-0.0834-0.02344-0.14062 0.0052-0.0572 0.02738-0.112 0.06641-0.16407h-0.19141c0.0036-9e-3 0.0081-0.0144 0.01172-0.0234 0.04423-0.11188 0.0925-0.2358 0.14453-0.3711 0-0.0104-0.01044-0.0195-0.03125-0.0273-0.01821-8e-3 -0.03126-0.0117-0.03906-0.0117-0.09887 0.25498-0.18496 0.45194-0.25781 0.58984-0.07286 0.1353-0.13938 0.20313-0.19922 0.20313-0.02081 0-0.03907-0.0118-0.05469-0.0352-0.01301-0.0234-0.01953-0.0651-0.01953-0.125 0-0.0806 0.0065-0.17457 0.01953-0.28125 0.01561-0.10667 0.03517-0.22407 0.05859-0.35156s0.0495-0.26184 0.07813-0.40234c0.02862-0.14311 0.05862-0.2892 0.08984-0.4375h-0.20312c-0.02602 0.11708-0.05472 0.24491-0.08594 0.38281-0.02862 0.13789-0.05601 0.28138-0.08203 0.42969-0.02081 0.11188-0.04951 0.21883-0.08594 0.32031-0.03383 0.0989-0.07035 0.18626-0.10938 0.26172-0.03643 0.0729-0.07426 0.13158-0.11328 0.17578-0.03642 0.0442-0.06642 0.0664-0.08984 0.0664-0.02602 0-0.04689-0.0131-0.0625-0.0391-0.01561-0.0286-0.02344-0.0743-0.02344-0.13672 0-0.0624 0.0052-0.13809 0.01563-0.22656 0.01041-0.0885 0.02345-0.18107 0.03906-0.27734 0.01821-0.0989 0.03778-0.198 0.05859-0.29688 0.02081-0.0989 0.04038-0.19148 0.05859-0.27734 0.01821-0.0885 0.03517-0.16673 0.05078-0.23438 0.01561-0.0677 0.02605-0.11723 0.03125-0.14843h-0.20703c-0.0078 0.0442-0.02476 0.11988-0.05078 0.22656s-0.05341 0.22799-0.08203 0.36328c-0.01715 0.0875-0.03199 0.18228-0.04687 0.27539-0.09435 0.24632-0.17785 0.4419-0.24805 0.57227-0.07286 0.13269-0.13938 0.19921-0.19922 0.19921-0.02081 0-0.03712-0.0118-0.05273-0.0351-0.01301-0.0234-0.01953-0.0651-0.01953-0.125 0-0.0781 0.0065-0.17067 0.01953-0.27735 0.01561-0.10928 0.03192-0.22797 0.05273-0.35546 0.02342-0.12749 0.0495-0.26185 0.07813-0.40235 0.03123-0.1431 0.06253-0.2892 0.09375-0.4375h-0.20312c-0.02602 0.11708-0.05276 0.24491-0.08398 0.38281-0.02862 0.1379-0.05601 0.28139-0.08203 0.42969-0.02081 0.11188-0.04951 0.21884-0.08594 0.32031-0.03383 0.0989-0.07035 0.18627-0.10938 0.26172-0.03643 0.0729-0.07425 0.13158-0.11328 0.17578-0.03642 0.0442-0.06642 0.0664-0.08984 0.0664-0.02601 0-0.04689-0.0131-0.0625-0.0391-0.01561-0.0286-0.02344-0.0743-0.02344-0.13672 0-0.0625 0.0052-0.1381 0.01563-0.22656 0.01301-0.0885 0.02736-0.18108 0.04297-0.27735l0.05469-0.29687c0.02081-0.0989 0.04038-0.19149 0.05859-0.27735 0.02082-0.0884 0.03777-0.1654 0.05078-0.23046 0.01561-0.0677 0.02605-0.11855 0.03125-0.15235h-0.20703c-0.0052 0.0286-0.01434 0.0703-0.02734 0.125-0.01301 0.0546-0.02736 0.11986-0.04297 0.19531-0.01561 0.0729-0.03257 0.15243-0.05078 0.23829-0.01821 0.0833-0.03517 0.16804-0.05078 0.2539-0.02081 0.11188-0.04951 0.21884-0.08594 0.32031-0.03382 0.0989-0.07165 0.18627-0.11328 0.26172-0.03903 0.0729-0.07816 0.13158-0.11719 0.17578-0.03642 0.0442-0.06642 0.0664-0.08984 0.0664-0.02602 0-0.04689-0.0131-0.0625-0.0391-0.01561-0.0286-0.02344-0.0743-0.02344-0.13672 0-0.0625 0.0052-0.1381 0.01563-0.22656 0.01301-0.0885 0.02736-0.18108 0.04297-0.27735l0.05469-0.29687c0.02081-0.0989 0.04038-0.19149 0.05859-0.27735 0.02082-0.0884 0.03777-0.1654 0.05078-0.23046 0.01561-0.0677 0.02605-0.11855 0.03125-0.15235h-0.20703c-0.0078 0.0442-0.02476 0.11988-0.05078 0.22656s-0.05341 0.22799-0.08203 0.36329c-0.01605 0.0818-0.0289 0.17103-0.04297 0.25781-0.04264 0.10962-0.08889 0.19663-0.13867 0.2539-0.04943 0.0599-0.10488 0.10552-0.16992 0.13672 0.05204-0.1353 0.08856-0.27747 0.10938-0.42578 0.02341-0.1483 0.02603-0.28396 0.0078-0.40625-0.01561-0.12489-0.05213-0.22794-0.10938-0.30859-0.05464-0.0807-0.13421-0.1211-0.23828-0.1211-0.06765 0-0.13026 0.0157-0.1875 0.0469-0.05464 0.0286-0.1029 0.0677-0.14453 0.11719-0.04163 0.0494-0.07685 0.10681-0.10547 0.17187-0.02863 0.065-0.04949 0.13418-0.0625 0.20703l-0.12109-0.0312c-0.03372 0.1199-0.05143 0.23572-0.07031 0.35157-0.0027-6.5e-4 -0.0074-4e-3 -0.0098-4e-3 -0.08586 0.22636-0.19217 0.4155-0.32226 0.56641-0.12749 0.14834-0.26967 0.24355-0.42578 0.28515 0.06244-0.0598 0.11984-0.1368 0.17188-0.23047 0.05204-0.0963 0.09639-0.19931 0.13281-0.30859 0.03643-0.11188 0.06512-0.22667 0.08594-0.34375 0.02081-0.11709 0.03125-0.22666 0.03125-0.32813 0-0.1457-0.02348-0.26701-0.07031-0.36328-0.04423-0.0963-0.11597-0.14453-0.21484-0.14453-0.07545 0-0.1485 0.0417-0.21875 0.125-0.06765 0.0807-0.12895 0.18762-0.18359 0.32031l0.0625-0.41796h-0.1875c-0.0052 0.0702-0.01955 0.18373-0.04297 0.33984-0.02013 0.14838-0.04633 0.31858-0.07617 0.50586-0.04338 0.11305-0.08979 0.20129-0.14062 0.25976-0.04943 0.0599-0.10683 0.10552-0.17188 0.13672 0.05204-0.1353 0.08856-0.27747 0.10938-0.42578 0.02341-0.1483 0.02603-0.28396 0.0078-0.40625-0.01561-0.12489-0.05214-0.22794-0.10938-0.30859-0.05464-0.0807-0.13225-0.1211-0.23633-0.1211-0.06765 0-0.13026 0.0157-0.1875 0.0469-0.05464 0.0286-0.1029 0.0677-0.14453 0.11719-0.04163 0.0494-0.07685 0.10681-0.10547 0.17187-0.02862 0.065-0.04949 0.13418-0.0625 0.20703l-0.12109-0.0312c-0.04683 0.16652-0.07944 0.32957-0.09766 0.48828-0.02081 0.15612-0.02081 0.29699 0 0.42188 0.01822 0.12229 0.05735 0.22142 0.11719 0.29687 0.06244 0.0729 0.14984 0.10938 0.26172 0.10938 0.10147 0 0.1993-0.043 0.29297-0.12891 0.09366-0.0885 0.16998-0.19673 0.23242-0.32422 0.09627-0.0286 0.17975-0.0821 0.25-0.16015 0.02736-0.0314 0.04611-0.0841 0.07031-0.12305-0.02104 0.13022-0.0423 0.25845-0.06445 0.39649-0.03383 0.21074-0.06644 0.40706-0.09766 0.59179-0.02081 0.065-0.04038 0.142-0.05859 0.23047-0.01561 0.0755-0.03257 0.16807-0.05078 0.27734-2.1e-4 1e-3 2.1e-4 3e-3 0 4e-3 -0.0358 0.0948-0.07754 0.18172-0.14062 0.23828-0.07545 0.0677-0.18241 0.10157-0.32031 0.10157-0.1353-1e-5 -0.254-0.03-0.35547-0.0899-0.09887-0.0572-0.18626-0.13811-0.26172-0.24219-0.07545-0.10407-0.14067-0.22799-0.19531-0.37109-0.05204-0.14311-0.09769-0.29638-0.13672-0.46289-0.03903-0.16652-0.0723-0.34392-0.10352-0.53125-0.02862-0.18733-0.05601-0.37647-0.08203-0.56641l-0.035017-0.25424c0.09367-0.24718 0.18563-0.48719 0.2793-0.71875 0.09627-0.23156 0.20062-0.4357 0.3125-0.61524 0.11188-0.17952 0.2358-0.32301 0.37109-0.42969 0.1353-0.10928 0.29052-0.16406 0.46484-0.16406 0.10928 0 0.2045 0.0222 0.28516 0.0664 0.08065 0.0416 0.13805 0.11076 0.17188 0.20703l0.08594-0.0469c0.03123-0.0182 0.06253-0.0352 0.09375-0.0508-0.01561-0.0442-0.04039-0.0872-0.07422-0.1289-0.03383-0.0443-0.07557-0.0821-0.125-0.11328-0.04943-0.0338-0.10683-0.0612-0.17188-0.082-0.06505-0.0208-0.13548-0.0312-0.21094-0.0312zm9.3691 1.1055c-0.0055 0.012-0.01163 0.025-0.01758 0.0371 0.0044-9e-3 0.01136-0.0166 0.01563-0.0254 0.0019-4e-3 1.42e-4 -8e-3 2e-3 -0.0117zm-23.553-0.42964c-0.057241 0.23937-0.1055 0.45851-0.14453 0.65625-0.036426 0.19514-0.067731 0.38232-0.09375 0.56445-0.023417 0.18213-0.045592 0.36344-0.066406 0.54297-0.020815 0.17692-0.041685 0.36345-0.0625 0.55859-0.00781 0.065-0.013025 0.1381-0.015625 0.21875-0.0026 0.078-0.00391 0.14586-0.00391 0.20313 0 0.27579 0.037828 0.47211 0.11328 0.59179 0.078056 0.11969 0.20197 0.17969 0.37109 0.17969 0.14831 0 0.27353-0.0574 0.375-0.17187 0.10407-0.11188 0.17451-0.29646 0.21094-0.55664l-0.19531-0.0117c-0.020815 0.20814-0.065164 0.36011-0.13281 0.45898-0.065046 0.0989-0.14722 0.14844-0.24609 0.14844-0.096268 0-0.17062-0.0509-0.22266-0.15235-0.049435-0.0989-0.074219-0.23909-0.074219-0.42382 0-0.1379 0.00522-0.2879 0.015625-0.44922 0.013009-0.16132 0.028662-0.32828 0.046875-0.5 0.020815-0.17433 0.044294-0.34781 0.070312-0.51953 0.026019-0.17433 0.052106-0.34129 0.078125-0.5 0.026018-0.16132 0.053411-0.31067 0.082031-0.45117 0.02862-0.14051 0.056013-0.26181 0.082031-0.36329zm-0.72656 0.0742-0.61914 3.4805h0.24805l0.51562-3.4414zm3.4355 0.93164c-0.049435 0-0.093784 0.0131-0.13281 0.0391-0.039028 0.0234-0.075551 0.0574-0.10938 0.10156-0.033824 0.0442-0.066434 0.0964-0.097656 0.15625-0.031223 0.0598-0.062528 0.12507-0.09375 0.19531 0.020815-0.10407 0.037772-0.19799 0.050781-0.28125 0.015608-0.0833 0.026043-0.14328 0.03125-0.17968h-0.20703c-0.013009 0.0729-0.027357 0.15502-0.042969 0.24609-0.015611 0.0911-0.032568 0.1876-0.050781 0.28906-0.015611 0.10148-0.033873 0.20713-0.054688 0.31641-6.441e-4 3e-3 -0.00131 6e-3 -0.00195 0.01-0.094679 0.24891-0.18201 0.44575-0.25977 0.57618-0.078056 0.13269-0.13936 0.19921-0.18359 0.19921-0.031222 0-0.046875-0.0469-0.046875-0.14062 0-0.0261 0.00131-0.0547 0.00391-0.0859 0.0026-0.0338 0.00651-0.0704 0.011719-0.10937 0.023417-0.18474 0.054722-0.38692 0.09375-0.60547 0.041629-0.21856 0.087283-0.44943 0.13672-0.69141h-0.17579l-0.054687 0.27344c-0.010407-0.0884-0.033887-0.16018-0.070313-0.21484-0.036426-0.0573-0.093819-0.0859-0.17188-0.0859-0.059843 0-0.11724 0.0222-0.17188 0.0664-0.052037 0.0416-0.099651 0.0977-0.14648 0.16797-0.046833 0.0703-0.089878 0.15243-0.12891 0.2461-0.039027 0.0937-0.072942 0.19149-0.10156 0.29297-0.026018 0.10147-0.046889 0.20452-0.0625 0.30859-0.015611 0.10147-0.023437 0.198-0.023437 0.28906 0 0.1405 0.019566 0.25137 0.058594 0.33203 0.039028 0.0807 0.10033 0.1211 0.18359 0.1211 0.052037 0 0.098347-0.0157 0.14258-0.0469 0.046833-0.0338 0.089878-0.0768 0.12891-0.1289 0.039028-0.0546 0.074247-0.11726 0.10547-0.1875 0.033824-0.0729 0.065129-0.14851 0.09375-0.22657l-0.019531 0.1875c0 0.268 0.05348 0.40235 0.16016 0.40235 0.041629 0 0.082066-0.017 0.12109-0.0508 0.039028-0.0338 0.080769-0.0873 0.125-0.16016 0.046833-0.0755 0.0964-0.17198 0.14844-0.28906 0.00914-0.0196 0.021749-0.0494 0.03125-0.0703-0.015413 0.0555-0.031655 0.11127-0.042969 0.16407-0.015611 0.0728-0.028655 0.13804-0.039063 0.19531-0.013009 0.0572-0.024749 0.12116-0.035156 0.19141h0.21094l0.14844-0.76595c0.031222-0.12489 0.065137-0.23968 0.10156-0.34375 0.039028-0.10667 0.076855-0.19928 0.11328-0.27734 0.039028-0.0781 0.076855-0.1394 0.11328-0.1836 0.039028-0.0442 0.074247-0.0664 0.10547-0.0664 0.028621 0 0.046882 0.0157 0.054687 0.0469 0.010407 0.0287 0.015625 0.0613 0.015625 0.0977 0 0.0286-0.00522 0.0756-0.015625 0.14062-0.00781 0.0624-0.019545 0.13811-0.035156 0.22657-0.015611 0.0859-0.033873 0.17977-0.054687 0.28125l-0.0625 0.30468c-0.020815 0.0989-0.041685 0.1967-0.0625 0.29297-0.018213 0.0937-0.03517 0.17585-0.050781 0.2461h0.22266c0.018213-0.0755 0.042997-0.18634 0.074219-0.33204 0.031222-0.1483 0.061223-0.30483 0.089844-0.46875 0.065046-0.27579 0.1407-0.4871 0.22656-0.63281 0.085862-0.1457 0.16152-0.21875 0.22656-0.21875 0.059843 0 0.089844 0.0496 0.089844 0.14844-1e-7 0.0625-0.014348 0.14201-0.042969 0.23828-0.028621 0.0963-0.059926 0.20192-0.09375 0.31641-0.033824 0.11188-0.065129 0.22667-0.09375 0.34375-0.028621 0.11448-0.042969 0.22274-0.042969 0.32422 1e-7 0.0962 0.018262 0.17059 0.054688 0.22265 0.036426 0.0521 0.091211 0.0781 0.16406 0.0781 0.057241 0 0.11007-0.0222 0.16211-0.0664 0.054639-0.0468 0.10551-0.10814 0.15234-0.18359 0.046833-0.0755 0.091182-0.16154 0.13281-0.25782 0.02298-0.0531 0.044218-0.10933 0.066406-0.16406-0.00857 0.0761-0.015625 0.15118-0.015625 0.21875-0.0026 0.0806 0.00262 0.15238 0.015625 0.21485 0.013009 0.0625 0.033879 0.11334 0.0625 0.15234 0.020815 0.0287 0.049511 0.0482 0.085937 0.0586 0.036426 0.0105 0.074253 0.0144 0.11328 0.0117 0.039028-3e-3 0.078159-0.0104 0.11719-0.0234 0.039028-0.013 0.071638-0.0287 0.097656-0.0469 0.078056-0.052 0.14719-0.12508 0.20703-0.21875 0.062444-0.0937 0.11332-0.1928 0.15234-0.29688 0.039028-3e-3 0.079464-0.0143 0.12109-0.0351 0.04163-0.0235 0.080761-0.0534 0.11719-0.0899 0.036425-0.039 0.069036-0.0833 0.097656-0.13281 0.02862-0.0494 0.050795-0.1055 0.066406-0.16797-0.0052-0.0103-0.016943-0.0181-0.035156-0.0234-0.015611-8e-3 -0.028655-0.0117-0.039063-0.0117-0.041629 0.11445-0.088588 0.20054-0.14062 0.25781-0.049435 0.0547-0.10031 0.0886-0.15234 0.10156 0.023417-0.0754 0.03907-0.14587 0.046875-0.21094 0.00781-0.0677 0.00781-0.12376 0-0.16796-0.010407-0.0521-0.031278-0.0951-0.0625-0.12891-0.031222-0.0339-0.071658-0.0483-0.12109-0.043-0.07025 8e-3 -0.12764 0.0378-0.17188 0.0898-0.044231 0.0494-0.071624 0.10814-0.082031 0.17579-0.010408 0.065-0.00128 0.13157 0.027344 0.19921 0.02862 0.0651 0.083405 0.11725 0.16406 0.15625-0.031222 0.0781-0.066441 0.15371-0.10547 0.22657-0.036426 0.0728-0.074253 0.13282-0.11328 0.17968-0.031223 0.0365-0.063832 0.0612-0.097656 0.0742-0.031222 0.0105-0.061223 0.0117-0.089844 4e-3 -0.026019-0.0104-0.049498-0.03-0.070312-0.0586-0.018215-0.0287-0.02865-0.0652-0.03125-0.10938-0.00521-0.0416-0.00521-0.0886 0-0.14062 0.0052-0.0546 0.011726-0.11071 0.019531-0.16797 0.00781-0.0598 0.016936-0.11852 0.027344-0.17578 0.010407-0.0598 0.019538-0.11721 0.027344-0.17188 0.020815-0.12749 0.045598-0.26054 0.074219-0.39844 0.028621-0.1405 0.058622-0.28398 0.089844-0.42968h-0.20703c-0.0026 0.026-0.00912 0.0651-0.019531 0.11718-0.00781 0.052-0.018241 0.11334-0.03125 0.1836-0.013009 0.0676-0.028662 0.14199-0.046875 0.22265-0.015611 0.0807-0.031264 0.16414-0.046875 0.25-0.00494 0.0253-0.00736 0.0475-0.011719 0.0723-0.00381-1e-3 -0.00811-6e-3 -0.011719-6e-3 -0.044232 0.11188-0.087277 0.21623-0.12891 0.3125-0.039028 0.0963-0.078159 0.18106-0.11719 0.25391-0.039028 0.0703-0.076855 0.12636-0.11328 0.16796-0.033824 0.039-0.067738 0.0586-0.10156 0.0586-0.028621 0-0.050147-9e-3 -0.068359-0.0274-0.015611-0.0208-0.023437-0.0573-0.023437-0.10937 0-0.0807 0.014348-0.17588 0.042969-0.28516 0.028621-0.11188 0.057973-0.22666 0.091797-0.34375 0.033824-0.11708 0.065129-0.23056 0.09375-0.33984 0.028621-0.11188 0.042969-0.20971 0.042969-0.29297 0-0.0859-0.02087-0.1485-0.0625-0.1875-0.039028-0.0417-0.082728-0.0625-0.13477-0.0625-0.10928 0-0.20189 0.0496-0.27734 0.14844-0.072852 0.0963-0.14068 0.21888-0.20312 0.36719 0.020815-0.11967 0.03125-0.21098 0.03125-0.27344 0-0.0728-0.014349-0.13413-0.042969-0.1836-0.026019-0.0494-0.069064-0.0742-0.12891-0.0742zm5.4805 8e-3c-0.05984 0-0.11724 0.0222-0.17188 0.0664-0.05204 0.0416-0.1016 0.0977-0.14844 0.16797-0.04683 0.0703-0.08988 0.15243-0.12891 0.2461-0.03903 0.0937-0.07099 0.19149-0.09961 0.29297-0.0112 0.0437-0.01807 0.0886-0.02734 0.13281-0.08875 0.23291-0.17127 0.42447-0.24414 0.55078-0.07546 0.1353-0.14328 0.20312-0.20312 0.20312-0.02082 0-0.03777-0.0118-0.05078-0.0351-0.01301-0.0234-0.01953-0.0651-0.01953-0.125 0-0.0807 0.0065-0.17457 0.01953-0.28125 0.01561-0.10668 0.03518-0.22407 0.05859-0.35156 0.02602-0.12749 0.05341-0.26185 0.08203-0.40235 0.03123-0.1431 0.06253-0.2892 0.09375-0.4375h-0.20313c-0.02081 0.0989-0.0456 0.20975-0.07422 0.33203-0.02862 0.12229-0.05471 0.24751-0.07813 0.375h-0.41016l0.13281-0.70703h-0.21875c-0.01041 0.10408-0.02867 0.23582-0.05469 0.39453-0.0228 0.13679-0.04743 0.28096-0.07422 0.42774-0.0021-2.6e-4 -0.0059-2e-3 -0.0078-2e-3 -0.09627 0.25759-0.18041 0.45455-0.25586 0.58985-0.07286 0.13529-0.13938 0.20312-0.19922 0.20312-0.02082 0-0.03777-0.0118-0.05078-0.0352s-0.01953-0.0651-0.01953-0.125c0-0.0833 0.0065-0.17849 0.01953-0.28516 0.01561-0.10928 0.03517-0.22928 0.05859-0.35937l0.01953-0.14063h-0.19531c0.02081-0.0859 0.03516-0.16543 0.04297-0.23828 0.0078-0.0728 0.0091-0.13413 0.0039-0.18359-0.01041-0.11711-0.04302-0.19146-0.097656-0.22266-0.052037-0.0338-0.11204-0.0469-0.17969-0.0391-0.083259 0.0104-0.15761 0.0378-0.22266 0.082-0.062445 0.0442-0.11592 0.099-0.16016 0.16406-0.04163 0.065-0.071631 0.13548-0.089844 0.21094-0.018213 0.0754-0.02343 0.1498-0.015625 0.22265 0.010407 0.0702 0.035191 0.13414 0.074219 0.19141 0.039028 0.0546 0.093813 0.0951 0.16406 0.12109 0.044232 0.0104 0.088581 0.0156 0.13281 0.0156 0.046833-3e-3 0.095096-0.0117 0.14453-0.0273-0.10407 0.26018-0.2293 0.45975-0.375 0.59765-0.059843 0.0546-0.10811 0.0781-0.14453 0.0703-0.036426-0.0104-0.062514-0.0352-0.078125-0.0742-0.015611-0.0391-0.019524-0.086-0.011719-0.14063 0.00781-0.0547 0.027372-0.10162 0.058594-0.14062h-0.1914c-0.028621 0.0468-0.048186 0.10159-0.058594 0.16406-0.013009 0.0599-0.013009 0.11727 0 0.17187 0.010407 0.0547 0.035191 0.099 0.074219 0.13282 0.039028 0.0338 0.096421 0.0455 0.17188 0.0351 0.067648-0.0104 0.13417-0.0417 0.19922-0.0937 0.065046-0.0546 0.12766-0.12246 0.1875-0.20312 0.059843-0.0833 0.11463-0.17457 0.16406-0.27344 0.052037-0.10147 0.097691-0.20452 0.13672-0.30859 0.0052-5e-3 0.01303-0.0103 0.023437-0.0156-0.013009 0.0885-0.024749 0.17455-0.035156 0.25781-0.00781 0.0833-0.011719 0.16022-0.011719 0.23047 0 0.11968 0.015653 0.21752 0.046875 0.29297 0.031222 0.0754 0.082094 0.11328 0.15234 0.11328 0.06245 0 0.11854-0.0222 0.16797-0.0664 0.05204-0.0468 0.1003-0.11075 0.14453-0.19141 0.04423-0.0833 0.08663-0.18109 0.13086-0.29297 0.0023-6e-3 0.0055-0.0136 0.0078-0.0195-0.01087 0.0555-0.02263 0.11334-0.0332 0.16797-0.03382 0.15871-0.06252 0.28981-0.08594 0.39648h0.20898l0.17969-0.9707 0.41016 4e-3c-0.02082 0.10928-0.03777 0.21363-0.05078 0.3125-0.01041 0.0989-0.01563 0.19017-0.01563 0.27343 0 0.11969 0.01435 0.21752 0.04297 0.29297 0.03122 0.0755 0.08209 0.11328 0.15234 0.11328 0.06245 0 0.11854-0.0222 0.16797-0.0664 0.05204-0.0468 0.1016-0.11075 0.14844-0.19141 0.04683-0.0833 0.09248-0.18109 0.13672-0.29297 0.0021-5e-3 0.0057-0.0121 0.0078-0.0176-0.0023 0.0366-0.0098 0.0762-0.0098 0.11133 0 0.1405 0.01957 0.25137 0.05859 0.33203 0.03903 0.0807 0.09838 0.1211 0.18164 0.1211 0.05204 0 0.1003-0.0157 0.14453-0.0469 0.04683-0.0338 0.08988-0.0768 0.12891-0.1289 0.03903-0.0546 0.07425-0.11726 0.10547-0.1875 0.03383-0.0729 0.06513-0.14851 0.09375-0.22657l-0.01953 0.1875c0 0.268 0.05348 0.40235 0.16016 0.40235 0.04163 0 0.08207-0.017 0.12109-0.0508 0.03903-0.0338 0.08077-0.0873 0.125-0.16016 0.04683-0.0755 0.0964-0.17198 0.14844-0.28906 0.05464-0.11709 0.11595-0.25796 0.18359-0.42188 0-5e-3 -0.0091-0.013-0.02734-0.0234-0.01561-0.0104-0.02996-0.0156-0.04297-0.0156-0.09887 0.26279-0.18887 0.46236-0.26953 0.59766-0.07805 0.13269-0.13936 0.19921-0.18359 0.19921-0.03122 0-0.04687-0.0469-0.04687-0.14062 0-0.0261 0.0013-0.0547 0.0039-0.0859 0.0026-0.0338 0.0065-0.0704 0.01172-0.10937 0.02342-0.18474 0.05472-0.38692 0.09375-0.60547 0.04163-0.21856 0.08729-0.44943 0.13672-0.69141h-0.17578l-0.05469 0.27344c-0.01041-0.0884-0.03389-0.16018-0.07031-0.21484-0.03643-0.0573-0.09382-0.0859-0.17188-0.0859zm5.9004 0.10547c0.06245 0 0.10614 0.0378 0.13477 0.11328 0.03122 0.0754 0.04557 0.17197 0.04297 0.28906 0 0.11708-0.01435 0.24622-0.04297 0.38672-0.02862 0.1379-0.0658 0.27094-0.11524 0.39844-0.10408 0-0.18625-0.0287-0.24609-0.0859-0.05984-0.0598-0.10289-0.1342-0.12891-0.22266-0.02601-0.0885-0.03645-0.18368-0.03125-0.28515 0.0078-0.10147 0.02737-0.19669 0.05859-0.28516 0.03382-0.0884 0.07817-0.16148 0.13281-0.21875 0.05724-0.0599 0.12246-0.0898 0.19531-0.0898zm2.5 0c0.06245 0 0.1081 0.0378 0.13672 0.11328 0.03122 0.0754 0.04557 0.17197 0.04297 0.28906 0 0.11708-0.01435 0.24622-0.04297 0.38672-0.02862 0.1379-0.06775 0.27094-0.11719 0.39844-0.10408 0-0.18625-0.0287-0.24609-0.0859-0.05984-0.0598-0.10289-0.1342-0.12891-0.22266-0.02601-0.0885-0.03645-0.18368-0.03125-0.28515 0.0078-0.10147 0.02737-0.19669 0.05859-0.28516 0.03382-0.0884 0.07817-0.16148 0.13281-0.21875 0.05724-0.0599 0.12246-0.0898 0.19531-0.0898zm5.7852 0c0.06245 0 0.1081 0.0378 0.13672 0.11328 0.03122 0.0754 0.04557 0.17197 0.04297 0.28906 0 0.11708-0.01435 0.24622-0.04297 0.38672-0.02862 0.1379-0.06775 0.27094-0.11719 0.39844-0.10408 0-0.18625-0.0287-0.24609-0.0859-0.05984-0.0598-0.10289-0.1342-0.12891-0.22266-0.02601-0.0885-0.03645-0.18368-0.03125-0.28515 0.0078-0.10147 0.02737-0.19669 0.05859-0.28516 0.03382-0.0884 0.07817-0.16148 0.13281-0.21875 0.05724-0.0599 0.12246-0.0898 0.19531-0.0898zm1.0977 0.0156c0.04684 0 0.08597 0.0157 0.11719 0.0469 0.03383 0.0286 0.06122 0.069 0.08203 0.12109 0.02081 0.052 0.03647 0.11335 0.04687 0.18359 0.01041 0.0677 0.01563 0.1407 0.01563 0.21875 0 0.0989-0.0091 0.20192-0.02734 0.3086-0.01561 0.10667-0.03779 0.20711-0.06641 0.30078-0.09107-3e-3 -0.16933-0.0222-0.23438-0.0586-0.06245-0.0364-0.11332-0.0821-0.15234-0.13672-0.03903-0.0572-0.06772-0.12116-0.08594-0.19141-0.01821-0.0703-0.02734-0.14199-0.02734-0.21484 0-0.0728 0.0078-0.14329 0.02344-0.21094 0.01561-0.0702 0.03779-0.13283 0.06641-0.1875 0.03122-0.0547 0.06644-0.0977 0.10547-0.12891 0.04163-0.0338 0.08729-0.0508 0.13672-0.0508zm-17.969 8e-3c0.039027-0.0104 0.072942-3e-3 0.10156 0.0234 0.031222 0.0234 0.052093 0.073 0.0625 0.14844 0.013009 0.10407-0.00264 0.24625-0.046875 0.42578-0.00781 0.0287-0.015632 0.056-0.023437 0.082-0.0052 0.0234-0.01303 0.0469-0.023437 0.0703-0.054639 0.0287-0.11073 0.0405-0.16797 0.0352-0.059842-5e-3 -0.10419-0.0287-0.13281-0.0703-0.028621-0.0416-0.046882-0.0925-0.054687-0.15235-0.0052-0.0624 1.37e-5 -0.12766 0.015625-0.19531 0.015611-0.0676 0.039091-0.12893 0.070312-0.18359 0.023417-0.0417 0.053418-0.0795 0.089844-0.11328 0.036426-0.0364 0.072949-0.0599 0.10938-0.0703zm-4.2129 0.0274c0.052037 0 0.091169 0.0287 0.11719 0.0859 0.026019 0.0572 0.039063 0.13289 0.039063 0.22656 0 0.065-0.00783 0.13939-0.023438 0.22265-0.013009 0.0833-0.032575 0.16936-0.058594 0.25782-0.023417 0.0859-0.052113 0.17064-0.085937 0.2539-0.031222 0.0833-0.065137 0.15892-0.10156 0.22657-0.033824 0.065-0.070347 0.11849-0.10938 0.16015-0.039028 0.039-0.073598 0.0586-0.10742 0.0586-0.04163 0-0.071631-0.0248-0.089844-0.0742-0.018213-0.052-0.027344-0.11987-0.027344-0.20313 0-0.10927 0.013044-0.23319 0.039063-0.37109 0.026019-0.1405 0.059933-0.27355 0.10156-0.39844 0.044231-0.12489 0.090541-0.23055 0.14258-0.31641 0.054639-0.0859 0.10942-0.1289 0.16406-0.1289zm6.9063 0c0.05204 0 0.09117 0.0287 0.11719 0.0859 0.02602 0.0572 0.03906 0.13289 0.03906 0.22656 0 0.065-0.0078 0.13939-0.02344 0.22265-0.01301 0.0833-0.03257 0.16936-0.05859 0.25782-0.02341 0.0859-0.05211 0.17064-0.08594 0.2539-0.03122 0.0833-0.06514 0.15892-0.10156 0.22657-0.03382 0.065-0.07035 0.11849-0.10937 0.16015-0.03903 0.039-0.07555 0.0586-0.10938 0.0586-0.04163 0-0.07163-0.0248-0.08984-0.0742-0.01821-0.052-0.02734-0.11987-0.02734-0.20313 0-0.10927 0.01304-0.23319 0.03906-0.37109 0.02602-0.1405 0.05993-0.27355 0.10156-0.39844 0.04424-0.12489 0.0925-0.23055 0.14453-0.31641 0.05464-0.0859 0.10942-0.1289 0.16406-0.1289zm7.0254 0c0.04424 0 0.07815 0.0313 0.10156 0.0937 0.02602 0.0624 0.03906 0.1394 0.03906 0.23047 0 0.10928-0.01304 0.23189-0.03906 0.36718-0.02341 0.1327-0.05602 0.25922-0.09766 0.37891-0.04163 0.11969-0.0912 0.22013-0.14844 0.30078-0.05464 0.0807-0.11333 0.1211-0.17578 0.1211-0.03383 0-0.06122-9e-3 -0.08203-0.0274-0.02082-0.0182-0.03777-0.0417-0.05078-0.0703-0.01041-0.0312-0.01824-0.0665-0.02344-0.10547-0.0052-0.0391-0.0078-0.0782-0.0078-0.11719 0-0.0676 0.0078-0.13939 0.02344-0.21484 0.01561-0.078 0.02996-0.1511 0.04297-0.21875 0.02601-0.10667 0.05602-0.20581 0.08984-0.29688 0.03382-0.091 0.06904-0.1693 0.10547-0.23437 0.03903-0.0651 0.07685-0.11594 0.11328-0.15234 0.03642-0.0364 0.07295-0.0547 0.10938-0.0547zm9.5391 0c0.05204 0 0.09117 0.0287 0.11719 0.0859 0.02602 0.0572 0.03906 0.13289 0.03906 0.22656 0 0.065-0.0078 0.13939-0.02344 0.22265-0.01301 0.0833-0.03257 0.16936-0.05859 0.25782-0.02341 0.0859-0.05211 0.17064-0.08594 0.2539-0.03122 0.0833-0.06514 0.15892-0.10156 0.22657-0.03383 0.065-0.07035 0.11849-0.10938 0.16015-0.03903 0.039-0.07555 0.0586-0.10938 0.0586-0.04163 0-0.07163-0.0248-0.08984-0.0742-0.01821-0.052-0.02734-0.11987-0.02734-0.20313 0-0.10927 0.01304-0.23319 0.03906-0.37109 0.02602-0.1405 0.05993-0.27355 0.10156-0.39844 0.04423-0.12489 0.09249-0.23055 0.14453-0.31641 0.05464-0.0859 0.10942-0.1289 0.16406-0.1289zm-20.254 0.52344c0.01821 3e-3 0.02995 0.017 0.035156 0.043 0.00781 0.0235 0.010412 0.0548 0.00781 0.0937-0.0026 0.0365-0.010428 0.0795-0.023437 0.12891-0.010408 0.0494-0.024756 0.10028-0.042969 0.15234-0.046833-0.026-0.078139-0.0626-0.09375-0.10937-0.015614-0.0495-0.020832-0.0977-0.015625-0.14453 0.0052-0.0469 0.019552-0.0873 0.042969-0.1211 0.026019-0.0339 0.05602-0.0483 0.089844-0.043zm9.0781 0.0898c0.0026 0.0781 0.01304 0.15371 0.03125 0.22656 0.01821 0.0728 0.04691 0.13935 0.08594 0.19922 0.03903 0.0573 0.0886 0.10423 0.14844 0.14063 0.05984 0.0364 0.13158 0.0586 0.21484 0.0664-0.03643 0.091-0.08208 0.1667-0.13672 0.22656-0.05204 0.0599-0.10943 0.0899-0.17188 0.0899-0.07805 0-0.13414-0.0339-0.16797-0.10156-0.03122-0.0677-0.05079-0.15113-0.05859-0.25-0.0052-0.0989-0.0013-0.20192 0.01172-0.3086 0.01301-0.10928 0.02736-0.2058 0.04297-0.28906zm2.5 0c0.0026 0.0781 0.01304 0.15371 0.03125 0.22656 0.01821 0.0728 0.04691 0.13935 0.08594 0.19922 0.03903 0.0573 0.0886 0.10423 0.14844 0.14063 0.05984 0.0364 0.13158 0.0586 0.21484 0.0664-0.03642 0.091-0.08208 0.1667-0.13672 0.22656-0.05204 0.0599-0.10943 0.0899-0.17188 0.0899-0.07805 0-0.13414-0.0339-0.16797-0.10156-0.03122-0.0677-0.05079-0.15113-0.05859-0.25-0.0052-0.0989-0.0013-0.20192 0.01172-0.3086 0.01301-0.10928 0.02736-0.2058 0.04297-0.28906zm5.7852 0c0.0026 0.0781 0.01304 0.15371 0.03125 0.22656 0.01821 0.0728 0.04691 0.13935 0.08594 0.19922 0.03903 0.0573 0.0886 0.10423 0.14844 0.14063 0.05984 0.0364 0.13158 0.0586 0.21484 0.0664-0.03642 0.091-0.08208 0.1667-0.13672 0.22656-0.05204 0.0599-0.10943 0.0899-0.17188 0.0899-0.07805 0-0.13414-0.0339-0.16797-0.10156-0.03122-0.0677-0.05079-0.15113-0.05859-0.25-0.0052-0.0989-0.0013-0.20192 0.01172-0.3086 0.01301-0.10928 0.02736-0.2058 0.04297-0.28906zm1.2344 0.23828c0.03643 0.10408 0.09512 0.19278 0.17578 0.26563 0.08066 0.0729 0.18762 0.1159 0.32031 0.1289-0.03642 0.0936-0.08077 0.1706-0.13281 0.23047-0.05204 0.0573-0.10943 0.0859-0.17188 0.0859-0.07025 0-0.12112-0.0483-0.15234-0.14453-0.03122-0.0963-0.04687-0.2228-0.04687-0.37891v-0.0898c0.0026-0.0313 0.0052-0.0639 0.0078-0.0977z" stroke-width=".26458"/>
</g>
</g>
</svg>
