<?xml version="1.0" encoding="UTF-8" standalone="no"?>
<!-- Created with Inkscape (http://www.inkscape.org/) -->

<svg
   xmlns:dc="http://purl.org/dc/elements/1.1/"
   xmlns:cc="http://creativecommons.org/ns#"
   xmlns:rdf="http://www.w3.org/1999/02/22-rdf-syntax-ns#"
   xmlns:svg="http://www.w3.org/2000/svg"
   xmlns="http://www.w3.org/2000/svg"
   xmlns:sodipodi="http://sodipodi.sourceforge.net/DTD/sodipodi-0.dtd"
   xmlns:inkscape="http://www.inkscape.org/namespaces/inkscape"
   width="29.848974mm"
   height="4.7868752mm"
   viewBox="0 0 29.848974 4.7868752"
   version="1.1"
   id="svg8"
   inkscape:version="0.92.4 (5da689c313, 2019-01-14)"
   sodipodi:docname="name.svg">
  <defs
     id="defs2" />
  <sodipodi:namedview
     id="base"
     pagecolor="#ffffff"
     bordercolor="#666666"
     borderopacity="1.0"
     inkscape:pageopacity="0.0"
     inkscape:pageshadow="2"
     inkscape:zoom="15.839192"
     inkscape:cx="53.942626"
     inkscape:cy="6.0827157"
     inkscape:document-units="mm"
     inkscape:current-layer="layer1"
     showgrid="false"
     inkscape:window-width="1920"
     inkscape:window-height="1017"
     inkscape:window-x="-8"
     inkscape:window-y="-8"
     inkscape:window-maximized="1" />
  <metadata
     id="metadata5">
    <rdf:RDF>
      <cc:Work
         rdf:about="">
        <dc:format>image/svg+xml</dc:format>
        <dc:type
           rdf:resource="http://purl.org/dc/dcmitype/StillImage" />
        <dc:title></dc:title>
      </cc:Work>
    </rdf:RDF>
  </metadata>
  <g
     inkscape:label="Layer 1"
     inkscape:groupmode="layer"
     id="layer1"
     transform="translate(0,-292.21312)">
    <g
       id="g16">
      <g
         aria-label="Татьяна Хорошилова"
         style="font-style:normal;font-variant:normal;font-weight:normal;font-stretch:normal;font-size:3.90278053px;line-height:1.25;font-family:LavanderiaC;-inkscape-font-specification:LavanderiaC;font-variant-ligatures:normal;font-variant-caps:normal;font-variant-numeric:normal;font-feature-settings:normal;text-align:start;letter-spacing:0px;word-spacing:0px;writing-mode:lr-tb;text-anchor:start;fill:#000000;fill-opacity:1;stroke:none;stroke-width:0.26458332"
         id="text12">
        <path
           sodipodi:type="inkscape:offset"
           inkscape:radius="0"
           inkscape:original="M 1.6953125 292.21484 C 1.5027754 292.20704 1.3201598 292.22141 1.1484375 292.25781 C 0.95850216 292.29944 0.79479698 292.36596 0.65429688 292.45703 C 0.51379677 292.5481 0.39509671 292.65245 0.29882812 292.76953 C 0.20516139 292.88402 0.1334196 293.00663 0.083984375 293.13672 C 0.034549155 293.26681 0.0071568317 293.39203 0.001953125 293.51172 C -0.005852435 293.65483 0.011104715 293.79375 0.052734375 293.93164 C 0.094364028 294.06694 0.15958385 294.18825 0.24804688 294.29492 C 0.33911176 294.4016 0.45520303 294.4903 0.59570312 294.56055 C 0.73620322 294.6282 0.90121285 294.66733 1.09375 294.67773 C 1.2836853 294.6856 1.4480392 294.66339 1.5859375 294.61133 C 1.7238358 294.55929 1.8373182 294.48755 1.9257812 294.39648 C 2.0168463 294.30282 2.0846749 294.19455 2.1289062 294.07227 C 2.1731383 293.94998 2.1992259 293.8241 2.2070312 293.69141 L 2.2070312 293.59375 C 2.2070312 293.5599 2.205725 293.52468 2.203125 293.48828 L 1.9804688 293.51172 C 1.9856754 293.57935 1.9856754 293.64456 1.9804688 293.70703 C 1.9752648 293.82151 1.9543948 293.93043 1.9179688 294.03711 C 1.8841447 294.14118 1.8319688 294.23379 1.7617188 294.31445 C 1.6914687 294.39247 1.6014653 294.45509 1.4921875 294.50195 C 1.3829096 294.54875 1.2498613 294.56835 1.09375 294.56055 C 0.93763881 294.55277 0.80523909 294.51885 0.69335938 294.45898 C 0.58147967 294.39914 0.48886752 294.32218 0.41601562 294.22852 C 0.34316374 294.13225 0.29098789 294.02528 0.25976562 293.9082 C 0.22854309 293.78852 0.21549912 293.66786 0.22070312 293.54297 C 0.22850869 293.39206 0.26633618 293.24597 0.33398438 293.10547 C 0.40163258 292.96497 0.49163592 292.84105 0.60351562 292.73438 C 0.71799719 292.62511 0.84909249 292.53772 1 292.47266 C 1.1535094 292.40759 1.3178633 292.375 1.4921875 292.375 C 1.5806505 292.3724 1.6797846 292.37632 1.7890625 292.38672 C 1.9009422 292.39712 2.0209466 292.4141 2.1484375 292.4375 C 2.2759283 292.4583 2.4102811 292.48312 2.5507812 292.51172 C 2.6938832 292.53779 2.8399756 292.56646 2.9882812 292.59766 C 2.951855 292.66791 2.9127231 292.75921 2.8710938 292.87109 C 2.8294643 292.98037 2.789028 293.1082 2.75 293.25391 C 2.7109721 293.39961 2.674449 293.56265 2.640625 293.74219 C 2.606801 293.91911 2.5781042 294.11021 2.5546875 294.31836 C 2.5208636 294.62538 2.4778186 294.89278 2.4257812 295.11914 C 2.3763462 295.3455 2.3202572 295.53986 2.2578125 295.70117 C 2.195368 295.86249 2.126235 295.99358 2.0507812 296.09766 C 1.9779293 296.2017 1.90097 296.28388 1.8203125 296.34375 C 1.7422569 296.40361 1.6613843 296.44404 1.578125 296.46484 C 1.4948657 296.48824 1.4113843 296.5 1.328125 296.5 C 1.2162453 296.5 1.11972 296.48433 1.0390625 296.45312 C 0.95840507 296.42193 0.89383394 296.38019 0.84179688 296.32812 C 0.7897598 296.27608 0.75062791 296.21608 0.72460938 296.14844 C 0.70119271 296.08339 0.68945313 296.01751 0.68945312 295.94727 C 0.68945312 295.89005 0.69727949 295.83396 0.71289062 295.7793 C 0.73110356 295.72723 0.75588711 295.68158 0.78710938 295.64258 C 0.81833161 295.60091 0.85485471 295.56832 0.89648438 295.54492 C 0.93811405 295.52152 0.9818148 295.50977 1.03125 295.50977 L 1.0195312 295.29492 C 0.94147562 295.29492 0.87038257 295.31321 0.80273438 295.34961 C 0.737688 295.38601 0.68159896 295.43427 0.63476562 295.49414 C 0.58793225 295.55139 0.55140916 295.61921 0.52539062 295.69727 C 0.49937209 295.77272 0.48632812 295.85098 0.48632812 295.93164 C 0.48632812 296.0175 0.50198086 296.10033 0.53320312 296.18359 C 0.56702723 296.26683 0.61789868 296.34118 0.68554688 296.40625 C 0.75319508 296.47132 0.83928523 296.5235 0.94335938 296.5625 C 1.0474335 296.6041 1.1707025 296.625 1.3164062 296.625 C 1.4725175 296.625 1.6277407 296.59241 1.78125 296.52734 C 1.9347594 296.4649 2.078243 296.3475 2.2109375 296.17578 C 2.343632 296.00666 2.4610277 295.77382 2.5625 295.47461 C 2.6639722 295.1754 2.7396272 294.78929 2.7890625 294.31836 C 2.8358958 293.85263 2.8893761 293.48413 2.9492188 293.21094 C 3.0116629 292.93774 3.0690564 292.74209 3.1210938 292.625 C 3.3812792 292.67707 3.6428141 292.72533 3.9082031 292.76953 C 4.1761941 292.8138 4.4318557 292.83986 4.6738281 292.84766 C 4.9158005 292.85286 5.1388523 292.83326 5.3417969 292.78906 C 5.5473433 292.74483 5.7162661 292.66135 5.8515625 292.53906 L 5.75 292.41797 C 5.6121017 292.51941 5.4614405 292.59115 5.2949219 292.63281 C 5.1284032 292.67181 4.9510053 292.69141 4.7636719 292.69141 C 4.5763384 292.69141 4.3793745 292.67573 4.1738281 292.64453 C 3.9708835 292.61327 3.7634845 292.57545 3.5527344 292.53125 C 3.3419842 292.48699 3.1313208 292.44133 2.9179688 292.39453 C 2.7072186 292.34507 2.4985151 292.30464 2.2929688 292.27344 C 2.0874223 292.24224 1.8878497 292.22264 1.6953125 292.21484 z M 18.482422 292.23438 C 18.292487 292.23437 18.121611 292.28785 17.970703 292.39453 C 17.822398 292.5012 17.68674 292.64469 17.564453 292.82422 C 17.444768 293.00115 17.335198 293.20593 17.236328 293.4375 C 17.140059 293.66646 17.050705 293.90452 16.964844 294.1543 C 16.923213 293.91493 16.873646 293.6834 16.816406 293.45703 C 16.761768 293.23067 16.692634 293.02979 16.609375 292.85547 C 16.526116 292.67854 16.423069 292.53767 16.300781 292.43359 C 16.181096 292.32692 16.035003 292.27344 15.863281 292.27344 C 15.756605 292.27344 15.654862 292.29173 15.558594 292.32812 C 15.464927 292.36193 15.38275 292.41019 15.3125 292.47266 C 15.242253 292.5351 15.186165 292.61076 15.144531 292.69922 C 15.102905 292.78509 15.082031 292.879 15.082031 292.98047 C 15.082031 293.06634 15.09638 293.15112 15.125 293.23438 C 15.153619 293.31502 15.19536 293.38806 15.25 293.45312 C 15.307241 293.5182 15.377678 293.57038 15.460938 293.60938 C 15.544197 293.64837 15.639418 293.66602 15.746094 293.66602 C 15.756507 293.62436 15.764331 293.58588 15.769531 293.54688 C 15.777338 293.50521 15.786468 293.46348 15.796875 293.42188 C 15.71622 293.41928 15.644478 293.4036 15.582031 293.375 C 15.51959 293.34375 15.467415 293.30331 15.425781 293.25391 C 15.384155 293.20449 15.351545 293.14971 15.328125 293.08984 C 15.307312 293.02742 15.296875 292.96481 15.296875 292.90234 C 15.296875 292.83992 15.307312 292.77992 15.328125 292.72266 C 15.348938 292.66278 15.381548 292.61061 15.425781 292.56641 C 15.470013 292.51955 15.524797 292.48172 15.589844 292.45312 C 15.657492 292.42453 15.73706 292.41016 15.828125 292.41016 C 15.973829 292.41016 16.096443 292.46103 16.195312 292.5625 C 16.296785 292.66137 16.382875 292.80224 16.453125 292.98438 C 16.523377 293.1639 16.583379 293.38043 16.632812 293.63281 C 16.684848 293.88519 16.73311 294.16238 16.777344 294.4668 L 16.789062 294.55273 C 16.695396 294.79471 16.593653 295.0308 16.484375 295.25977 C 16.377699 295.48873 16.25639 295.69221 16.121094 295.86914 C 15.985798 296.04867 15.831879 296.1902 15.660156 296.29688 C 15.488434 296.40355 15.291471 296.45703 15.070312 296.45703 C 14.922007 296.45703 14.794825 296.42836 14.685547 296.37109 C 14.578871 296.31645 14.488868 296.2421 14.416016 296.14844 C 14.345768 296.05477 14.293592 295.94976 14.259766 295.83008 C 14.225939 295.7104 14.208984 295.58517 14.208984 295.45508 C 14.208984 295.30417 14.229858 295.15417 14.271484 295.00586 C 14.315716 294.85755 14.379631 294.72451 14.462891 294.60742 C 14.54615 294.48774 14.647893 294.39121 14.767578 294.31836 C 14.889865 294.24551 15.026178 294.20898 15.179688 294.20898 C 15.265549 294.20898 15.343812 294.22727 15.414062 294.26367 C 15.484313 294.29747 15.54301 294.34443 15.589844 294.4043 C 15.639278 294.46154 15.677105 294.52806 15.703125 294.60352 C 15.731745 294.67637 15.746094 294.75333 15.746094 294.83398 C 15.746094 294.93546 15.726527 295.04111 15.6875 295.15039 C 15.651074 295.25706 15.591072 295.36011 15.507812 295.45898 L 15.699219 295.57227 C 15.782475 295.47339 15.845085 295.36643 15.886719 295.25195 C 15.928345 295.13487 15.949219 295.01748 15.949219 294.90039 C 15.949219 294.79112 15.932264 294.68676 15.898438 294.58789 C 15.867215 294.48902 15.818953 294.40163 15.753906 294.32617 C 15.68886 294.25069 15.609292 294.19068 15.515625 294.14648 C 15.421958 294.10228 15.314998 294.08008 15.195312 294.08008 C 14.99497 294.08008 14.822133 294.12052 14.673828 294.20117 C 14.525522 294.28183 14.4003 294.38879 14.298828 294.52148 C 14.199955 294.65158 14.125605 294.79897 14.076172 294.96289 C 14.026739 295.1242 14.001953 295.28726 14.001953 295.45117 C 14.001953 295.59948 14.022826 295.74101 14.064453 295.87891 C 14.108684 296.01941 14.173904 296.14333 14.259766 296.25 C 14.348229 296.35926 14.459103 296.44665 14.591797 296.51172 C 14.724492 296.57937 14.879066 296.61328 15.058594 296.61328 C 15.287557 296.61328 15.491043 296.5598 15.667969 296.45312 C 15.847497 296.34644 16.007937 296.20557 16.148438 296.03125 C 16.288937 295.85692 16.412855 295.65931 16.519531 295.43555 C 16.628809 295.21179 16.730552 294.98351 16.824219 294.75195 C 16.850239 294.93929 16.87763 295.12451 16.90625 295.30664 C 16.937471 295.48877 16.975298 295.66356 17.019531 295.83008 C 17.063765 295.9966 17.115941 296.14987 17.175781 296.29297 C 17.238226 296.43608 17.313232 296.55999 17.404297 296.66406 C 17.495362 296.76811 17.602322 296.85029 17.724609 296.91016 C 17.849499 296.97002 17.995591 297 18.162109 297 C 18.333831 297 18.478623 296.96485 18.595703 296.89453 L 18.759766 296.89453 C 18.773458 296.80748 18.790259 296.72145 18.804688 296.63477 C 18.825745 296.59854 18.859399 296.5855 18.876953 296.54297 L 18.822266 296.52539 C 18.84054 296.4181 18.857547 296.30985 18.876953 296.20312 C 18.91598 295.97416 18.953808 295.74524 18.990234 295.51367 C 19.008448 295.59169 19.041057 295.65169 19.087891 295.69336 C 19.137326 295.73496 19.207763 295.75586 19.298828 295.75586 C 19.387291 295.75586 19.47599 295.73627 19.564453 295.69727 C 19.655518 295.65824 19.741608 295.60346 19.822266 295.5332 C 19.902923 295.46296 19.977274 295.37817 20.044922 295.2793 C 20.096645 295.20371 20.13666 295.11467 20.177734 295.02539 C 20.169144 295.13981 20.161739 295.25363 20.177734 295.34961 C 20.19595 295.4719 20.235082 295.57103 20.294922 295.64648 C 20.357367 295.71934 20.444761 295.75586 20.556641 295.75586 C 20.658113 295.75586 20.755943 295.71281 20.849609 295.62695 C 20.943274 295.53849 21.021538 295.43022 21.083984 295.30273 C 21.180253 295.27411 21.261781 295.22064 21.332031 295.14258 C 21.360235 295.1102 21.379449 295.05597 21.404297 295.01562 C 21.389077 295.13478 21.376953 295.24949 21.376953 295.34961 C 21.376953 295.4745 21.392608 295.57364 21.423828 295.64648 C 21.455051 295.71674 21.508531 295.75195 21.583984 295.75195 C 21.659438 295.75195 21.733789 295.7063 21.806641 295.61523 C 21.879491 295.52417 21.943407 295.40677 21.998047 295.26367 C 21.992847 295.31829 21.991541 295.37437 21.994141 295.43164 C 21.999347 295.48885 22.008478 295.54233 22.021484 295.5918 C 22.037098 295.63866 22.059271 295.67778 22.087891 295.70898 C 22.116511 295.73758 22.154339 295.75195 22.201172 295.75195 C 22.276625 295.75195 22.350976 295.7063 22.423828 295.61523 C 22.496679 295.52417 22.560594 295.40677 22.615234 295.26367 C 22.615234 295.27667 22.613928 295.28973 22.611328 295.30273 L 22.611328 295.3418 C 22.611328 295.46668 22.624371 295.56712 22.650391 295.64258 C 22.679011 295.71543 22.729882 295.75195 22.802734 295.75195 C 22.865181 295.75195 22.919317 295.72975 22.96875 295.68555 C 23.018183 295.63871 23.065142 295.5748 23.109375 295.49414 C 23.156206 295.41089 23.20186 295.31305 23.246094 295.20117 C 23.25427 295.18049 23.264994 295.1543 23.273438 295.13281 C 23.267253 295.20437 23.255859 295.28188 23.255859 295.3457 C 23.255859 295.46799 23.271514 295.56582 23.302734 295.63867 C 23.333957 295.71153 23.387437 295.74805 23.462891 295.74805 C 23.538345 295.74805 23.612695 295.70239 23.685547 295.61133 C 23.758398 295.52026 23.822313 295.40287 23.876953 295.25977 C 23.876953 295.27277 23.875647 295.28583 23.873047 295.29883 L 23.873047 295.33789 C 23.873047 295.46278 23.886089 295.56322 23.912109 295.63867 C 23.94073 295.71153 23.991601 295.74805 24.064453 295.74805 C 24.126899 295.74805 24.182989 295.72584 24.232422 295.68164 C 24.281855 295.63481 24.328814 295.57089 24.373047 295.49023 C 24.410769 295.42317 24.446386 295.33954 24.482422 295.25391 C 24.462826 295.2943 24.445704 295.33657 24.439453 295.38867 C 24.431646 295.45109 24.435559 295.51109 24.451172 295.56836 C 24.466779 295.62302 24.496782 295.66737 24.541016 295.70117 C 24.582645 295.73497 24.641343 295.74542 24.716797 295.73242 C 24.77404 295.72204 24.82752 295.68421 24.876953 295.61914 C 24.926386 295.55149 24.973345 295.46801 25.017578 295.36914 C 25.061809 295.26767 25.102245 295.15549 25.138672 295.0332 C 25.177702 294.90831 25.212921 294.7844 25.244141 294.66211 C 25.277961 294.53982 25.307964 294.42243 25.333984 294.31055 C 25.362611 294.19867 25.388696 294.10344 25.412109 294.02539 L 25.498047 294.02539 C 25.477234 294.12426 25.453754 294.23122 25.427734 294.3457 C 25.404314 294.46018 25.382141 294.57628 25.361328 294.69336 C 25.340515 294.80785 25.322254 294.92002 25.306641 295.0293 C 25.293634 295.13858 25.287109 295.23771 25.287109 295.32617 C 25.287109 295.44585 25.302764 295.54369 25.333984 295.61914 C 25.365207 295.69459 25.416078 295.73242 25.486328 295.73242 C 25.548774 295.73242 25.604864 295.71022 25.654297 295.66602 C 25.706332 295.61918 25.754595 295.55527 25.798828 295.47461 C 25.843058 295.39135 25.885454 295.29352 25.929688 295.18164 C 25.939919 295.15576 25.952241 295.12284 25.962891 295.0957 C 25.960339 295.18218 25.950364 295.27445 25.962891 295.34961 C 25.981106 295.4719 26.020238 295.57103 26.080078 295.64648 C 26.142523 295.71934 26.229917 295.75586 26.341797 295.75586 C 26.443269 295.75586 26.541099 295.71281 26.634766 295.62695 C 26.72843 295.53849 26.806694 295.43022 26.869141 295.30273 C 26.965409 295.27411 27.048891 295.22064 27.119141 295.14258 C 27.158991 295.09683 27.187552 295.02455 27.220703 294.96289 C 27.220698 294.96531 27.220703 294.96829 27.220703 294.9707 C 27.220703 295.08258 27.227228 295.18694 27.240234 295.2832 C 27.253241 295.37948 27.274114 295.46296 27.302734 295.5332 C 27.333957 295.60348 27.373089 295.65827 27.419922 295.69727 C 27.466755 295.73627 27.525453 295.75586 27.595703 295.75586 C 27.699777 295.75586 27.79239 295.71543 27.873047 295.63477 C 27.953706 295.55151 28.022838 295.44585 28.080078 295.31836 C 28.178948 295.29494 28.268951 295.24016 28.349609 295.1543 C 28.386327 295.11643 28.408809 295.05674 28.439453 295.00977 C 28.424256 295.10974 28.416016 295.20508 28.416016 295.29492 C 28.416016 295.43542 28.435583 295.54629 28.474609 295.62695 C 28.513637 295.70761 28.574944 295.74805 28.658203 295.74805 C 28.710238 295.74805 28.758501 295.73237 28.802734 295.70117 C 28.849569 295.66738 28.892614 295.62433 28.931641 295.57227 C 28.970671 295.51763 29.005889 295.45501 29.037109 295.38477 C 29.070936 295.31191 29.102239 295.23626 29.130859 295.1582 L 29.111328 295.3457 C 29.111328 295.6137 29.164808 295.74805 29.271484 295.74805 C 29.313115 295.74805 29.353551 295.73107 29.392578 295.69727 C 29.431604 295.66344 29.473345 295.60996 29.517578 295.53711 C 29.564409 295.46165 29.613976 295.36513 29.666016 295.24805 C 29.720654 295.13096 29.781961 294.99009 29.849609 294.82617 C 29.849609 294.82097 29.840479 294.81313 29.822266 294.80273 C 29.806652 294.79233 29.792304 294.78711 29.779297 294.78711 C 29.680427 295.0499 29.590424 295.24947 29.509766 295.38477 C 29.431712 295.51746 29.370405 295.58398 29.326172 295.58398 C 29.294952 295.58398 29.279297 295.53703 29.279297 295.44336 C 29.279297 295.41729 29.280603 295.38862 29.283203 295.35742 C 29.28581 295.32357 29.289722 295.28705 29.294922 295.24805 C 29.318342 295.06331 29.349645 294.86113 29.388672 294.64258 C 29.430304 294.42402 29.475957 294.19315 29.525391 293.95117 L 29.349609 293.95117 L 29.294922 294.22461 C 29.284515 294.13618 29.261036 294.06443 29.224609 294.00977 C 29.188184 293.9525 29.13079 293.92383 29.052734 293.92383 C 28.992893 293.92383 28.935499 293.94603 28.880859 293.99023 C 28.828822 294.03187 28.779255 294.08796 28.732422 294.1582 C 28.685587 294.22846 28.642542 294.31063 28.603516 294.4043 C 28.564488 294.49796 28.530573 294.59579 28.501953 294.69727 C 28.49439 294.72677 28.491059 294.75739 28.484375 294.78711 C 28.483921 294.7871 28.482862 294.78711 28.482422 294.78711 C 28.435586 294.90938 28.382106 295.00329 28.322266 295.06836 C 28.262423 295.13343 28.197203 295.17777 28.126953 295.20117 C 28.16338 295.1023 28.190771 294.99925 28.208984 294.89258 C 28.227198 294.7833 28.236328 294.67765 28.236328 294.57617 C 28.236328 294.48771 28.228504 294.40423 28.212891 294.32617 C 28.199877 294.24815 28.177704 294.18031 28.146484 294.12305 C 28.11526 294.06318 28.074824 294.01622 28.025391 293.98242 C 27.978557 293.94602 27.922469 293.92773 27.857422 293.92773 C 27.781966 293.92773 27.714137 293.94733 27.654297 293.98633 C 27.594456 294.02273 27.54228 294.0723 27.498047 294.13477 L 27.533203 293.95117 C 27.733159 293.74294 27.740007 293.56764 27.833984 293.37695 C 27.760715 293.52341 27.672461 293.66237 27.564453 293.79492 C 27.593073 293.65702 27.623077 293.52854 27.654297 293.40625 C 27.688124 293.28136 27.720733 293.17309 27.751953 293.08203 C 27.78578 292.98839 27.817083 292.91404 27.845703 292.85938 C 27.874323 292.80471 27.899109 292.77734 27.919922 292.77734 C 27.951142 292.77734 27.966797 292.80732 27.966797 292.86719 C 27.966797 293.02721 27.92595 293.18478 27.851562 293.33984 C 27.923426 293.18373 28.099609 293.01141 28.099609 292.86719 C 28.099609 292.79171 28.078743 292.73431 28.037109 292.69531 C 27.998085 292.65371 27.952431 292.63281 27.900391 292.63281 C 27.856163 292.63281 27.813118 292.64718 27.771484 292.67578 C 27.732456 292.70437 27.698542 292.74873 27.669922 292.80859 C 27.620488 292.91787 27.568312 293.05875 27.513672 293.23047 C 27.461637 293.4022 27.413374 293.58742 27.369141 293.78516 C 27.327511 293.9829 27.292292 294.18443 27.263672 294.39258 C 27.244045 294.53354 27.240542 294.66034 27.234375 294.78906 C 27.23288 294.78894 27.229842 294.78711 27.228516 294.78711 C 27.184287 294.90417 27.136024 294.99287 27.083984 295.05273 C 27.03455 295.1126 26.977156 295.15825 26.912109 295.18945 C 26.964147 295.05415 27.000671 294.91198 27.021484 294.76367 C 27.044898 294.61537 27.04751 294.47971 27.029297 294.35742 C 27.013685 294.23253 26.977162 294.12948 26.919922 294.04883 C 26.865283 293.96817 26.785715 293.92773 26.681641 293.92773 C 26.613991 293.92773 26.551381 293.94341 26.494141 293.97461 C 26.439505 294.0032 26.391243 294.04233 26.349609 294.0918 C 26.307979 294.14121 26.272761 294.19861 26.244141 294.26367 C 26.215521 294.32872 26.194647 294.39785 26.181641 294.4707 L 26.060547 294.43945 C 26.024593 294.56729 26.005414 294.69122 25.986328 294.81445 C 25.898358 295.04764 25.818084 295.23965 25.748047 295.36523 C 25.675192 295.49793 25.608668 295.56445 25.548828 295.56445 C 25.528008 295.56445 25.511054 295.5527 25.498047 295.5293 C 25.48504 295.5059 25.478516 295.46416 25.478516 295.4043 C 25.478516 295.32364 25.48504 295.22972 25.498047 295.12305 C 25.51366 295.01637 25.531921 294.89898 25.552734 294.77148 C 25.576154 294.64399 25.602239 294.50964 25.630859 294.36914 C 25.662086 294.22604 25.693389 294.07995 25.724609 293.93164 L 25.162109 293.93164 L 25.123047 294.02539 L 25.322266 294.02539 C 25.296246 294.11125 25.267548 294.21952 25.236328 294.34961 C 25.205105 294.4771 25.169886 294.61015 25.130859 294.74805 C 25.091831 294.88595 25.048786 295.0203 25.001953 295.15039 C 24.955119 295.28048 24.902943 295.39136 24.845703 295.48242 C 24.806676 295.54749 24.768849 295.58008 24.732422 295.58008 C 24.695995 295.58008 24.667298 295.56179 24.646484 295.52539 C 24.628271 295.48899 24.620447 295.44203 24.623047 295.38477 C 24.628254 295.32755 24.650426 295.27277 24.689453 295.2207 L 24.498047 295.2207 C 24.501648 295.21183 24.506182 295.20633 24.509766 295.19727 C 24.554 295.08539 24.602264 294.96147 24.654297 294.82617 C 24.654297 294.81577 24.64386 294.80663 24.623047 294.79883 C 24.604834 294.79103 24.591791 294.78711 24.583984 294.78711 C 24.485114 295.04209 24.399024 295.23905 24.326172 295.37695 C 24.253317 295.51225 24.186793 295.58008 24.126953 295.58008 C 24.10614 295.58008 24.087879 295.56832 24.072266 295.54492 C 24.059259 295.52153 24.052734 295.47979 24.052734 295.41992 C 24.052734 295.33927 24.059259 295.24535 24.072266 295.13867 C 24.087872 295.032 24.107439 294.9146 24.130859 294.78711 C 24.154279 294.65962 24.180364 294.52527 24.208984 294.38477 C 24.237604 294.24166 24.267608 294.09557 24.298828 293.94727 L 24.095703 293.94727 C 24.069683 294.06435 24.040986 294.19218 24.009766 294.33008 C 23.981146 294.46797 23.953754 294.61146 23.927734 294.75977 C 23.906921 294.87165 23.878224 294.9786 23.841797 295.08008 C 23.807972 295.17895 23.771449 295.26634 23.732422 295.3418 C 23.695995 295.41468 23.658167 295.47338 23.619141 295.51758 C 23.582721 295.56178 23.552717 295.58398 23.529297 295.58398 C 23.503277 295.58398 23.48241 295.57092 23.466797 295.54492 C 23.451184 295.51632 23.443359 295.47067 23.443359 295.4082 C 23.443359 295.34576 23.448578 295.27011 23.458984 295.18164 C 23.469391 295.09318 23.482434 295.00057 23.498047 294.9043 C 23.51626 294.80543 23.535827 294.7063 23.556641 294.60742 C 23.577454 294.50856 23.597021 294.41594 23.615234 294.33008 C 23.633448 294.24161 23.650402 294.16335 23.666016 294.0957 C 23.681629 294.02803 23.692066 293.97847 23.697266 293.94727 L 23.490234 293.94727 C 23.482428 293.9915 23.465473 294.06715 23.439453 294.17383 C 23.413433 294.28051 23.386042 294.40182 23.357422 294.53711 C 23.340272 294.62457 23.325435 294.71939 23.310547 294.8125 C 23.216194 295.05882 23.132696 295.2544 23.0625 295.38477 C 22.989645 295.51746 22.923121 295.58398 22.863281 295.58398 C 22.842468 295.58398 22.82616 295.57223 22.810547 295.54883 C 22.79754 295.52543 22.791016 295.48369 22.791016 295.42383 C 22.791016 295.34577 22.79754 295.25316 22.810547 295.14648 C 22.82616 295.0372 22.842468 294.91851 22.863281 294.79102 C 22.886701 294.66353 22.912786 294.52917 22.941406 294.38867 C 22.972633 294.24557 23.003936 294.09947 23.035156 293.95117 L 22.832031 293.95117 C 22.806011 294.06825 22.779267 294.19608 22.748047 294.33398 C 22.719427 294.47188 22.692036 294.61537 22.666016 294.76367 C 22.645202 294.87555 22.616505 294.98251 22.580078 295.08398 C 22.546253 295.18286 22.50973 295.27025 22.470703 295.3457 C 22.434276 295.41858 22.396449 295.47728 22.357422 295.52148 C 22.321002 295.56568 22.290998 295.58789 22.267578 295.58789 C 22.241565 295.58789 22.220691 295.57483 22.205078 295.54883 C 22.189465 295.52023 22.181641 295.47458 22.181641 295.41211 C 22.181641 295.34966 22.186859 295.27401 22.197266 295.18555 C 22.210272 295.09708 22.224621 295.00447 22.240234 294.9082 L 22.294922 294.61133 C 22.315735 294.51245 22.335302 294.41984 22.353516 294.33398 C 22.374336 294.24554 22.39129 294.16858 22.404297 294.10352 C 22.41991 294.03585 22.430347 293.98497 22.435547 293.95117 L 22.228516 293.95117 C 22.223309 293.97977 22.214179 294.02151 22.201172 294.07617 C 22.188165 294.13081 22.173816 294.19603 22.158203 294.27148 C 22.14259 294.34434 22.125635 294.42391 22.107422 294.50977 C 22.089209 294.59303 22.072254 294.67781 22.056641 294.76367 C 22.035827 294.87555 22.00713 294.98251 21.970703 295.08398 C 21.936882 295.18286 21.899055 295.27025 21.857422 295.3457 C 21.818393 295.41858 21.779261 295.47728 21.740234 295.52148 C 21.703814 295.56568 21.673811 295.58789 21.650391 295.58789 C 21.624371 295.58789 21.603504 295.57483 21.587891 295.54883 C 21.572277 295.52023 21.564453 295.47458 21.564453 295.41211 C 21.564453 295.34966 21.569671 295.27401 21.580078 295.18555 C 21.593085 295.09708 21.607434 295.00447 21.623047 294.9082 L 21.677734 294.61133 C 21.698548 294.51245 21.718115 294.41984 21.736328 294.33398 C 21.757148 294.24554 21.774103 294.16858 21.787109 294.10352 C 21.802723 294.03585 21.813159 293.98497 21.818359 293.95117 L 21.611328 293.95117 C 21.603521 293.9954 21.586567 294.07105 21.560547 294.17773 C 21.534527 294.28441 21.507136 294.40572 21.478516 294.54102 C 21.46247 294.62284 21.449613 294.71205 21.435547 294.79883 C 21.392905 294.90845 21.346655 294.99546 21.296875 295.05273 C 21.24744 295.1126 21.192 295.15825 21.126953 295.18945 C 21.178992 295.05415 21.215515 294.91198 21.236328 294.76367 C 21.259741 294.61537 21.262354 294.47971 21.244141 294.35742 C 21.228529 294.23253 21.192006 294.12948 21.134766 294.04883 C 21.080126 293.96817 21.000558 293.92773 20.896484 293.92773 C 20.828836 293.92773 20.766224 293.94341 20.708984 293.97461 C 20.654342 294.0032 20.60608 294.04233 20.564453 294.0918 C 20.522823 294.14121 20.487604 294.19861 20.458984 294.26367 C 20.430358 294.32872 20.409491 294.39785 20.396484 294.4707 L 20.275391 294.43945 C 20.241671 294.55935 20.223962 294.67517 20.205078 294.79102 C 20.202375 294.79037 20.197629 294.78711 20.195312 294.78711 C 20.109452 295.01347 20.00314 295.20261 19.873047 295.35352 C 19.745556 295.50186 19.603376 295.59707 19.447266 295.63867 C 19.509707 295.57883 19.567101 295.50187 19.619141 295.4082 C 19.671177 295.31194 19.715526 295.20889 19.751953 295.09961 C 19.78838 294.98773 19.817077 294.87294 19.837891 294.75586 C 19.858704 294.63877 19.869141 294.5292 19.869141 294.42773 C 19.869141 294.28203 19.845661 294.16072 19.798828 294.06445 C 19.754597 293.96818 19.682855 293.91992 19.583984 293.91992 C 19.50853 293.91992 19.435484 293.96166 19.365234 294.04492 C 19.297588 294.12558 19.236281 294.23254 19.181641 294.36523 L 19.244141 293.94727 L 19.056641 293.94727 C 19.051441 294.01752 19.037092 294.131 19.013672 294.28711 C 18.993547 294.43549 18.967342 294.60569 18.9375 294.79297 C 18.89412 294.90602 18.847708 294.99426 18.796875 295.05273 C 18.74744 295.1126 18.690047 295.15825 18.625 295.18945 C 18.677039 295.05415 18.713562 294.91198 18.734375 294.76367 C 18.757788 294.61537 18.760401 294.47971 18.742188 294.35742 C 18.726575 294.23253 18.690052 294.12948 18.632812 294.04883 C 18.578174 293.96817 18.500558 293.92773 18.396484 293.92773 C 18.328835 293.92773 18.266224 293.94341 18.208984 293.97461 C 18.154343 294.0032 18.10608 294.04233 18.064453 294.0918 C 18.022822 294.14121 17.987604 294.19861 17.958984 294.26367 C 17.930364 294.32872 17.909491 294.39785 17.896484 294.4707 L 17.775391 294.43945 C 17.728557 294.60597 17.695948 294.76902 17.677734 294.92773 C 17.656921 295.08385 17.656921 295.22472 17.677734 295.34961 C 17.69595 295.4719 17.735082 295.57103 17.794922 295.64648 C 17.857366 295.71934 17.944761 295.75586 18.056641 295.75586 C 18.158113 295.75586 18.255942 295.71281 18.349609 295.62695 C 18.443273 295.53849 18.519585 295.43022 18.582031 295.30273 C 18.6783 295.27411 18.761781 295.22064 18.832031 295.14258 C 18.859393 295.11117 18.87814 295.05844 18.902344 295.01953 C 18.881307 295.14975 18.860046 295.27798 18.837891 295.41602 C 18.804064 295.62676 18.771454 295.82308 18.740234 296.00781 C 18.719421 296.07286 18.699854 296.14981 18.681641 296.23828 C 18.666027 296.31373 18.649073 296.40635 18.630859 296.51562 C 18.630649 296.51675 18.631069 296.5184 18.630859 296.51953 C 18.595056 296.61428 18.553316 296.70125 18.490234 296.75781 C 18.414781 296.82546 18.307821 296.85938 18.169922 296.85938 C 18.034626 296.85937 17.915926 296.8294 17.814453 296.76953 C 17.715582 296.71229 17.628188 296.63142 17.552734 296.52734 C 17.477282 296.42327 17.412062 296.29935 17.357422 296.15625 C 17.305383 296.01314 17.25973 295.85987 17.220703 295.69336 C 17.181673 295.52684 17.148408 295.34944 17.117188 295.16211 C 17.088567 294.97478 17.061176 294.78564 17.035156 294.5957 L 17 294.3418 C 17.093667 294.09462 17.18563 293.85461 17.279297 293.62305 C 17.375566 293.39149 17.479917 293.18735 17.591797 293.00781 C 17.703676 292.82829 17.827594 292.6848 17.962891 292.57812 C 18.098187 292.46884 18.25341 292.41406 18.427734 292.41406 C 18.537012 292.41406 18.632233 292.43627 18.712891 292.48047 C 18.793545 292.5221 18.850939 292.59123 18.884766 292.6875 L 18.970703 292.64062 C 19.00193 292.62243 19.033233 292.60544 19.064453 292.58984 C 19.048846 292.54564 19.024061 292.5026 18.990234 292.46094 C 18.956408 292.41668 18.914668 292.37886 18.865234 292.34766 C 18.8158 292.31386 18.758406 292.28643 18.693359 292.26562 C 18.628313 292.24483 18.557875 292.23438 18.482422 292.23438 z M 27.851562 293.33984 C 27.846039 293.35184 27.839933 293.36488 27.833984 293.37695 C 27.838376 293.36818 27.845343 293.36039 27.849609 293.35156 C 27.851465 293.34779 27.849751 293.34362 27.851562 293.33984 z M 4.2988281 292.91016 C 4.2415875 293.14953 4.1933249 293.36867 4.1542969 293.56641 C 4.1178709 293.76155 4.0865655 293.94873 4.0605469 294.13086 C 4.0371302 294.31299 4.0149553 294.4943 3.9941406 294.67383 C 3.9733253 294.85075 3.9524553 295.03728 3.9316406 295.23242 C 3.9238333 295.29747 3.9186156 295.37052 3.9160156 295.45117 C 3.9134156 295.52921 3.9121094 295.59703 3.9121094 295.6543 C 3.9121094 295.93009 3.9499369 296.12641 4.0253906 296.24609 C 4.1034462 296.36578 4.2273638 296.42578 4.3964844 296.42578 C 4.54479 296.42578 4.6700121 296.36839 4.7714844 296.25391 C 4.8755584 296.14203 4.9459959 295.95745 4.9824219 295.69727 L 4.7871094 295.68555 C 4.7662946 295.89369 4.7219451 296.04566 4.6542969 296.14453 C 4.5892505 296.2434 4.5070736 296.29297 4.4082031 296.29297 C 4.3119348 296.29297 4.2375842 296.24209 4.1855469 296.14062 C 4.1361115 296.04175 4.1113281 295.90153 4.1113281 295.7168 C 4.1113281 295.5789 4.1165458 295.4289 4.1269531 295.26758 C 4.1399625 295.10626 4.1556155 294.9393 4.1738281 294.76758 C 4.1946428 294.59325 4.218122 294.41977 4.2441406 294.24805 C 4.2701593 294.07372 4.296247 293.90676 4.3222656 293.74805 C 4.3482836 293.58673 4.3756762 293.43738 4.4042969 293.29688 C 4.4329169 293.15637 4.4603095 293.03507 4.4863281 292.93359 L 4.2988281 292.91016 z M 3.5722656 292.98438 L 2.953125 296.46484 L 3.2011719 296.46484 L 3.7167969 293.02344 L 3.5722656 292.98438 z M 7.0078125 293.91602 C 6.9583775 293.91602 6.914028 293.92908 6.875 293.95508 C 6.8359721 293.97852 6.799449 294.01244 6.765625 294.05664 C 6.731801 294.10085 6.6991908 294.15302 6.6679688 294.21289 C 6.6367461 294.27274 6.6054407 294.33796 6.5742188 294.4082 C 6.5950334 294.30413 6.6119907 294.21021 6.625 294.12695 C 6.640608 294.04367 6.6510433 293.98367 6.65625 293.94727 L 6.4492188 293.94727 C 6.4362094 294.02012 6.4218613 294.10229 6.40625 294.19336 C 6.3906393 294.28443 6.3736821 294.38096 6.3554688 294.48242 C 6.3398574 294.5839 6.3215959 294.68955 6.3007812 294.79883 C 6.3001371 294.80213 6.2994698 294.8053 6.2988281 294.80859 C 6.2041486 295.0575 6.1168166 295.25434 6.0390625 295.38477 C 5.9610067 295.51746 5.8997001 295.58398 5.8554688 295.58398 C 5.8242468 295.58398 5.8085938 295.53703 5.8085938 295.44336 C 5.8085938 295.41729 5.8099 295.38862 5.8125 295.35742 C 5.8150987 295.32357 5.8190121 295.28705 5.8242188 295.24805 C 5.8476354 295.06331 5.8789407 294.86113 5.9179688 294.64258 C 5.9595983 294.42402 6.0052522 294.19315 6.0546875 293.95117 L 5.8789062 293.95117 L 5.8242188 294.22461 C 5.8138114 294.13618 5.7903322 294.06443 5.7539062 294.00977 C 5.7174803 293.9525 5.6600869 293.92383 5.5820312 293.92383 C 5.5221884 293.92383 5.4647949 293.94603 5.4101562 293.99023 C 5.3581191 294.03187 5.3105052 294.08796 5.2636719 294.1582 C 5.2168387 294.22846 5.1737936 294.31063 5.1347656 294.4043 C 5.0957381 294.49796 5.0618238 294.59579 5.0332031 294.69727 C 5.0071851 294.79874 4.9863145 294.90179 4.9707031 295.00586 C 4.9550918 295.10733 4.9472656 295.20386 4.9472656 295.29492 C 4.9472656 295.43542 4.9668314 295.54629 5.0058594 295.62695 C 5.0448872 295.70761 5.1061938 295.74805 5.1894531 295.74805 C 5.2414903 295.74805 5.2877999 295.73237 5.3320312 295.70117 C 5.3788645 295.66738 5.4219095 295.62433 5.4609375 295.57227 C 5.4999656 295.51763 5.5351842 295.45501 5.5664062 295.38477 C 5.6002302 295.31191 5.6315356 295.23626 5.6601562 295.1582 L 5.640625 295.3457 C 5.640625 295.6137 5.6941052 295.74805 5.8007812 295.74805 C 5.8424107 295.74805 5.882847 295.73107 5.921875 295.69727 C 5.960903 295.66344 6.0026437 295.60996 6.046875 295.53711 C 6.0937081 295.46165 6.1432752 295.36513 6.1953125 295.24805 C 6.2044498 295.22847 6.2170613 295.19862 6.2265625 295.17773 C 6.2111493 295.23326 6.1949075 295.289 6.1835938 295.3418 C 6.1679824 295.41462 6.1549386 295.47984 6.1445312 295.53711 C 6.1315219 295.59435 6.1197823 295.65827 6.109375 295.72852 L 6.3203125 295.72852 L 6.46875 294.96289 C 6.4999722 294.838 6.5338865 294.72321 6.5703125 294.61914 C 6.6093402 294.51247 6.6471677 294.41986 6.6835938 294.3418 C 6.7226215 294.26371 6.760449 294.2024 6.796875 294.1582 C 6.8359031 294.114 6.8711217 294.0918 6.9023438 294.0918 C 6.9309644 294.0918 6.9492259 294.10747 6.9570312 294.13867 C 6.9674386 294.16734 6.9726562 294.19993 6.9726562 294.23633 C 6.9726562 294.26493 6.9674386 294.31189 6.9570312 294.37695 C 6.9492259 294.4394 6.9374863 294.51506 6.921875 294.60352 C 6.9062637 294.68938 6.8880022 294.78329 6.8671875 294.88477 L 6.8046875 295.18945 C 6.7838722 295.28832 6.7630022 295.38615 6.7421875 295.48242 C 6.7239748 295.57609 6.7070176 295.65827 6.6914062 295.72852 L 6.9140625 295.72852 C 6.9322758 295.65306 6.9570593 295.54218 6.9882812 295.39648 C 7.0195033 295.24818 7.0495043 295.09165 7.078125 294.92773 C 7.1431714 294.65194 7.2188264 294.44063 7.3046875 294.29492 C 7.390549 294.14922 7.466204 294.07617 7.53125 294.07617 C 7.5910927 294.07617 7.6210938 294.12574 7.6210938 294.22461 C 7.6210937 294.28706 7.6067457 294.36662 7.578125 294.46289 C 7.5495043 294.55916 7.518199 294.66481 7.484375 294.7793 C 7.450551 294.89118 7.4192457 295.00597 7.390625 295.12305 C 7.3620043 295.23753 7.3476563 295.34579 7.3476562 295.44727 C 7.3476563 295.54351 7.3659178 295.61786 7.4023438 295.66992 C 7.4387698 295.72199 7.4935544 295.74805 7.5664062 295.74805 C 7.6236468 295.74805 7.6764783 295.72584 7.7285156 295.68164 C 7.7831546 295.63481 7.834026 295.5735 7.8808594 295.49805 C 7.9276924 295.42259 7.9720419 295.33651 8.0136719 295.24023 C 8.0366524 295.18709 8.0578903 295.1309 8.0800781 295.07617 C 8.0715103 295.15231 8.0644531 295.22735 8.0644531 295.29492 C 8.0618511 295.37556 8.0670688 295.4473 8.0800781 295.50977 C 8.0930868 295.57223 8.1139575 295.62311 8.1425781 295.66211 C 8.1633928 295.69078 8.1920896 295.7103 8.2285156 295.7207 C 8.2649414 295.73117 8.3027689 295.73509 8.3417969 295.73242 C 8.3808245 295.72982 8.4199564 295.72198 8.4589844 295.70898 C 8.4980124 295.69598 8.530622 295.68031 8.5566406 295.66211 C 8.6346962 295.61008 8.7038292 295.53703 8.7636719 295.44336 C 8.8261161 295.34969 8.8769876 295.25056 8.9160156 295.14648 C 8.9550438 295.14388 8.99548 295.13213 9.0371094 295.11133 C 9.078739 295.08786 9.1178709 295.05788 9.1542969 295.02148 C 9.1907222 294.98248 9.2233325 294.93814 9.2519531 294.88867 C 9.2805731 294.83926 9.302748 294.78317 9.3183594 294.7207 C 9.313156 294.71044 9.3014165 294.7026 9.2832031 294.69727 C 9.2675918 294.68947 9.254548 294.68555 9.2441406 294.68555 C 9.2025112 294.8 9.155553 294.88609 9.1035156 294.94336 C 9.0540807 294.99801 9.0032092 295.03192 8.9511719 295.04492 C 8.9745885 294.96948 8.9902415 294.89905 8.9980469 294.83398 C 9.0058522 294.76631 9.0058522 294.71022 8.9980469 294.66602 C 8.9876395 294.61395 8.9667689 294.57091 8.9355469 294.53711 C 8.9043248 294.50318 8.8638885 294.48881 8.8144531 294.49414 C 8.7442029 294.50194 8.6868095 294.53192 8.6425781 294.58398 C 8.5983468 294.63342 8.5709542 294.69212 8.5605469 294.75977 C 8.5501389 294.82481 8.55927 294.89134 8.5878906 294.95898 C 8.616511 295.02406 8.6712957 295.07623 8.7519531 295.11523 C 8.7207311 295.19329 8.6855124 295.26894 8.6464844 295.3418 C 8.6100586 295.41461 8.5722311 295.47462 8.5332031 295.52148 C 8.5019805 295.55795 8.4693709 295.5827 8.4355469 295.5957 C 8.4043249 295.60617 8.3743238 295.60741 8.3457031 295.59961 C 8.3196845 295.58921 8.2962053 295.56962 8.2753906 295.54102 C 8.257176 295.51236 8.2467406 295.47584 8.2441406 295.43164 C 8.238934 295.39004 8.238934 295.34308 8.2441406 295.29102 C 8.2493446 295.2364 8.2558665 295.18031 8.2636719 295.12305 C 8.2714779 295.06323 8.2806083 295.00453 8.2910156 294.94727 C 8.301423 294.88745 8.310554 294.83006 8.3183594 294.77539 C 8.339174 294.6479 8.3639575 294.51485 8.3925781 294.37695 C 8.4211988 294.23645 8.4511999 294.09297 8.4824219 293.94727 L 8.2753906 293.94727 C 8.2727886 293.97326 8.2662667 294.01239 8.2558594 294.06445 C 8.248054 294.11649 8.2376187 294.17779 8.2246094 294.24805 C 8.2116007 294.31569 8.1959477 294.39004 8.1777344 294.4707 C 8.1621237 294.55136 8.1464707 294.63484 8.1308594 294.7207 C 8.1259164 294.74604 8.1234967 294.76822 8.1191406 294.79297 C 8.1153316 294.79197 8.1110306 294.78711 8.1074219 294.78711 C 8.06319 294.89899 8.020145 295.00334 7.9785156 295.09961 C 7.939488 295.19588 7.9003561 295.28067 7.8613281 295.35352 C 7.8223004 295.4238 7.7844729 295.47988 7.7480469 295.52148 C 7.7142227 295.56048 7.6803084 295.58008 7.6464844 295.58008 C 7.6178637 295.58008 7.5963377 295.57093 7.578125 295.55273 C 7.5625137 295.53195 7.5546875 295.49543 7.5546875 295.44336 C 7.5546875 295.3627 7.5690356 295.26748 7.5976562 295.1582 C 7.6262769 295.04632 7.6556291 294.93154 7.6894531 294.81445 C 7.7232771 294.69737 7.7545825 294.58389 7.7832031 294.47461 C 7.8118238 294.36273 7.8261719 294.2649 7.8261719 294.18164 C 7.8261719 294.09575 7.8053019 294.03314 7.7636719 293.99414 C 7.7246443 293.95247 7.6809436 293.93164 7.6289062 293.93164 C 7.5196284 293.93164 7.4270162 293.9812 7.3515625 294.08008 C 7.2787108 294.17634 7.2108822 294.29896 7.1484375 294.44727 C 7.1692522 294.3276 7.1796875 294.23629 7.1796875 294.17383 C 7.1796875 294.10101 7.1653388 294.0397 7.1367188 293.99023 C 7.1107002 293.94083 7.0676552 293.91602 7.0078125 293.91602 z M 12.488281 293.92383 C 12.428439 293.92383 12.371046 293.94603 12.316406 293.99023 C 12.26437 294.03187 12.214802 294.08796 12.167969 294.1582 C 12.121134 294.22846 12.078089 294.31063 12.039062 294.4043 C 12.000034 294.49796 11.968073 294.59579 11.939453 294.69727 C 11.92825 294.74097 11.921383 294.7859 11.912109 294.83008 C 11.82336 295.06299 11.740843 295.25455 11.667969 295.38086 C 11.592512 295.51616 11.524684 295.58398 11.464844 295.58398 C 11.444024 295.58398 11.427069 295.57223 11.414062 295.54883 C 11.401056 295.52543 11.394531 295.48369 11.394531 295.42383 C 11.394531 295.34317 11.401056 295.24926 11.414062 295.14258 C 11.429676 295.0359 11.449243 294.91851 11.472656 294.79102 C 11.498676 294.66353 11.526067 294.52917 11.554688 294.38867 C 11.585914 294.24557 11.617217 294.09947 11.648438 293.95117 L 11.445312 293.95117 C 11.424499 294.05004 11.399714 294.16092 11.371094 294.2832 C 11.342474 294.40549 11.316389 294.53071 11.292969 294.6582 L 10.882812 294.6582 L 11.015625 293.95117 L 10.796875 293.95117 C 10.786468 294.05525 10.768208 294.18699 10.742188 294.3457 C 10.719388 294.48249 10.69476 294.62666 10.667969 294.77344 C 10.665832 294.77318 10.662037 294.77148 10.660156 294.77148 C 10.563888 295.02907 10.47975 295.22603 10.404297 295.36133 C 10.331442 295.49662 10.264918 295.56445 10.205078 295.56445 C 10.184258 295.56445 10.167304 295.5527 10.154297 295.5293 C 10.14129 295.5059 10.134766 295.46416 10.134766 295.4043 C 10.134766 295.32104 10.14129 295.22581 10.154297 295.11914 C 10.169904 295.00986 10.189471 294.88986 10.212891 294.75977 L 10.232422 294.61914 L 10.037109 294.61914 C 10.057923 294.53328 10.072271 294.45371 10.080078 294.38086 C 10.087878 294.30804 10.089184 294.24673 10.083984 294.19727 C 10.073577 294.08016 10.040967 294.00581 9.9863281 293.97461 C 9.9342911 293.94081 9.8742888 293.92775 9.8066406 293.93555 C 9.7233816 293.94595 9.649031 293.97338 9.5839844 294.01758 C 9.5215397 294.06179 9.4680595 294.11657 9.4238281 294.18164 C 9.3821981 294.24669 9.352197 294.31712 9.3339844 294.39258 C 9.3157717 294.46803 9.310554 294.54238 9.3183594 294.61523 C 9.3287667 294.68546 9.3535501 294.74937 9.3925781 294.80664 C 9.4316059 294.86129 9.4863906 294.90173 9.5566406 294.92773 C 9.6008723 294.93813 9.6452218 294.94336 9.6894531 294.94336 C 9.7362864 294.94076 9.784549 294.93162 9.8339844 294.91602 C 9.7299102 295.1762 9.6046882 295.37577 9.4589844 295.51367 C 9.3991418 295.56827 9.3508791 295.59178 9.3144531 295.58398 C 9.2780271 295.57358 9.2519395 295.54877 9.2363281 295.50977 C 9.2207175 295.4707 9.216804 295.42374 9.2246094 295.36914 C 9.2324154 295.31447 9.2519811 295.26752 9.2832031 295.22852 L 9.0917969 295.22852 C 9.0631762 295.27532 9.0436105 295.33011 9.0332031 295.39258 C 9.0201938 295.45246 9.0201938 295.50985 9.0332031 295.56445 C 9.0436105 295.61912 9.0683939 295.66347 9.1074219 295.69727 C 9.1464497 295.73107 9.2038431 295.74282 9.2792969 295.73242 C 9.3469447 295.72202 9.413469 295.69074 9.4785156 295.63867 C 9.5435619 295.58403 9.606173 295.51621 9.6660156 295.43555 C 9.7258582 295.35229 9.7806428 295.26098 9.8300781 295.16211 C 9.882115 295.06064 9.9277689 294.95759 9.9667969 294.85352 C 9.9720009 294.84845 9.979827 294.84322 9.9902344 294.83789 C 9.977225 294.92635 9.9654855 295.01244 9.9550781 295.0957 C 9.9472728 295.17896 9.9433594 295.25592 9.9433594 295.32617 C 9.9433594 295.44585 9.9590124 295.54369 9.9902344 295.61914 C 10.021456 295.69459 10.072328 295.73242 10.142578 295.73242 C 10.205025 295.73242 10.261114 295.71022 10.310547 295.66602 C 10.362582 295.61918 10.410845 295.55527 10.455078 295.47461 C 10.499307 295.39135 10.541704 295.29352 10.585938 295.18164 C 10.588274 295.17573 10.591392 295.16808 10.59375 295.16211 C 10.582879 295.21763 10.571119 295.27545 10.560547 295.33008 C 10.526727 295.48879 10.498029 295.61989 10.474609 295.72656 L 10.683594 295.72656 L 10.863281 294.75586 L 11.273438 294.75977 C 11.252618 294.86905 11.235663 294.9734 11.222656 295.07227 C 11.21225 295.17114 11.207031 295.26244 11.207031 295.3457 C 11.207031 295.46539 11.22138 295.56322 11.25 295.63867 C 11.281223 295.71413 11.332094 295.75195 11.402344 295.75195 C 11.46479 295.75195 11.520879 295.72975 11.570312 295.68555 C 11.62235 295.63871 11.671917 295.5748 11.71875 295.49414 C 11.765581 295.41089 11.811235 295.31305 11.855469 295.20117 C 11.857603 295.19577 11.861129 295.18905 11.863281 295.18359 C 11.860963 295.22023 11.853516 295.25983 11.853516 295.29492 C 11.853516 295.43542 11.873083 295.54629 11.912109 295.62695 C 11.951137 295.70761 12.010491 295.74805 12.09375 295.74805 C 12.145785 295.74805 12.194048 295.73237 12.238281 295.70117 C 12.285115 295.66738 12.328161 295.62433 12.367188 295.57227 C 12.406217 295.51763 12.441436 295.45501 12.472656 295.38477 C 12.506483 295.31191 12.537786 295.23626 12.566406 295.1582 L 12.546875 295.3457 C 12.546875 295.6137 12.600355 295.74805 12.707031 295.74805 C 12.748662 295.74805 12.789098 295.73107 12.828125 295.69727 C 12.867151 295.66344 12.908892 295.60996 12.953125 295.53711 C 12.999956 295.46165 13.049522 295.36513 13.101562 295.24805 C 13.156201 295.13096 13.217508 294.99009 13.285156 294.82617 C 13.285156 294.82097 13.276026 294.81313 13.257812 294.80273 C 13.242199 294.79233 13.22785 294.78711 13.214844 294.78711 C 13.115973 295.0499 13.02597 295.24947 12.945312 295.38477 C 12.867259 295.51746 12.805952 295.58398 12.761719 295.58398 C 12.730499 295.58398 12.714844 295.53703 12.714844 295.44336 C 12.714844 295.41729 12.71615 295.38862 12.71875 295.35742 C 12.721357 295.32357 12.725269 295.28705 12.730469 295.24805 C 12.753889 295.06331 12.785192 294.86113 12.824219 294.64258 C 12.86585 294.42402 12.911504 294.19315 12.960938 293.95117 L 12.785156 293.95117 L 12.730469 294.22461 C 12.720062 294.13618 12.696583 294.06443 12.660156 294.00977 C 12.62373 293.9525 12.566337 293.92383 12.488281 293.92383 z M 18.388672 294.0293 C 18.451117 294.0293 18.494817 294.06712 18.523438 294.14258 C 18.554657 294.21803 18.569006 294.31455 18.566406 294.43164 C 18.566406 294.54872 18.552058 294.67786 18.523438 294.81836 C 18.494815 294.95626 18.457636 295.0893 18.408203 295.2168 C 18.304126 295.2168 18.221949 295.18813 18.162109 295.13086 C 18.102268 295.07101 18.059223 294.99666 18.033203 294.9082 C 18.00719 294.81974 17.996753 294.72452 18.001953 294.62305 C 18.00976 294.52158 18.029327 294.42636 18.060547 294.33789 C 18.09437 294.24946 18.138719 294.17641 18.193359 294.11914 C 18.2506 294.05927 18.31582 294.0293 18.388672 294.0293 z M 20.888672 294.0293 C 20.951117 294.0293 20.996771 294.06712 21.025391 294.14258 C 21.056611 294.21803 21.070959 294.31455 21.068359 294.43164 C 21.068359 294.54872 21.054011 294.67786 21.025391 294.81836 C 20.996769 294.95626 20.957636 295.0893 20.908203 295.2168 C 20.804126 295.2168 20.721949 295.18813 20.662109 295.13086 C 20.602269 295.07101 20.559223 294.99666 20.533203 294.9082 C 20.50719 294.81974 20.496753 294.72452 20.501953 294.62305 C 20.50976 294.52158 20.529327 294.42636 20.560547 294.33789 C 20.59437 294.24946 20.638719 294.17641 20.693359 294.11914 C 20.7506 294.05927 20.81582 294.0293 20.888672 294.0293 z M 26.673828 294.0293 C 26.736273 294.0293 26.781927 294.06712 26.810547 294.14258 C 26.841767 294.21803 26.856116 294.31455 26.853516 294.43164 C 26.853516 294.54872 26.839167 294.67786 26.810547 294.81836 C 26.781925 294.95626 26.742793 295.0893 26.693359 295.2168 C 26.589283 295.2168 26.507106 295.18813 26.447266 295.13086 C 26.387424 295.07101 26.344379 294.99666 26.318359 294.9082 C 26.292346 294.81974 26.281909 294.72452 26.287109 294.62305 C 26.294916 294.52158 26.314483 294.42636 26.345703 294.33789 C 26.379526 294.24946 26.423876 294.17641 26.478516 294.11914 C 26.535756 294.05927 26.600976 294.0293 26.673828 294.0293 z M 27.771484 294.04492 C 27.81832 294.04492 27.857452 294.0606 27.888672 294.0918 C 27.922499 294.12038 27.94989 294.16082 27.970703 294.21289 C 27.991516 294.26493 28.007171 294.32624 28.017578 294.39648 C 28.027985 294.46414 28.033203 294.53718 28.033203 294.61523 C 28.033203 294.7141 28.024073 294.81715 28.005859 294.92383 C 27.990246 295.0305 27.968073 295.13094 27.939453 295.22461 C 27.848388 295.22201 27.770125 295.20242 27.705078 295.16602 C 27.642632 295.12962 27.591761 295.08396 27.552734 295.0293 C 27.513708 294.97206 27.48501 294.90814 27.466797 294.83789 C 27.448584 294.76764 27.439453 294.6959 27.439453 294.62305 C 27.439453 294.5502 27.447277 294.47976 27.462891 294.41211 C 27.478504 294.34189 27.500677 294.27928 27.529297 294.22461 C 27.56052 294.16995 27.595739 294.1269 27.634766 294.0957 C 27.676397 294.0619 27.722051 294.04492 27.771484 294.04492 z M 9.8027344 294.05273 C 9.8417619 294.04233 9.8756762 294.05017 9.9042969 294.07617 C 9.9355189 294.09959 9.9563895 294.14916 9.9667969 294.22461 C 9.9798062 294.32868 9.9641532 294.47086 9.9199219 294.65039 C 9.9121159 294.67906 9.9042897 294.70642 9.8964844 294.73242 C 9.8912804 294.75582 9.8834542 294.77933 9.8730469 294.80273 C 9.8184078 294.83147 9.7623188 294.84322 9.7050781 294.83789 C 9.6452358 294.83269 9.6008863 294.80918 9.5722656 294.76758 C 9.543645 294.72597 9.5253835 294.6751 9.5175781 294.61523 C 9.5123741 294.55279 9.5175918 294.48757 9.5332031 294.41992 C 9.5488145 294.3523 9.5722936 294.29099 9.6035156 294.23633 C 9.6269323 294.19467 9.6569334 294.15685 9.6933594 294.12305 C 9.7297853 294.08665 9.7663084 294.06313 9.8027344 294.05273 z M 5.5898438 294.08008 C 5.6418807 294.08008 5.6810126 294.10875 5.7070312 294.16602 C 5.7330499 294.22326 5.7460938 294.29891 5.7460938 294.39258 C 5.7460938 294.45762 5.7382676 294.53197 5.7226562 294.61523 C 5.7096469 294.69849 5.6900812 294.78459 5.6640625 294.87305 C 5.6406458 294.95891 5.611949 295.04369 5.578125 295.12695 C 5.5469028 295.21021 5.5129885 295.28587 5.4765625 295.35352 C 5.4427386 295.41853 5.4062155 295.47201 5.3671875 295.51367 C 5.3281596 295.55267 5.2935896 295.57227 5.2597656 295.57227 C 5.2181356 295.57227 5.1881345 295.54745 5.1699219 295.49805 C 5.1517092 295.44601 5.1425781 295.37818 5.1425781 295.29492 C 5.1425781 295.18565 5.155622 295.06173 5.1816406 294.92383 C 5.2076595 294.78333 5.2415738 294.65028 5.2832031 294.52539 C 5.3274344 294.4005 5.3737439 294.29484 5.4257812 294.20898 C 5.4804204 294.12312 5.5352051 294.08008 5.5898438 294.08008 z M 12.496094 294.08008 C 12.54813 294.08008 12.587261 294.10875 12.613281 294.16602 C 12.639301 294.22326 12.652344 294.29891 12.652344 294.39258 C 12.652344 294.45762 12.64452 294.53197 12.628906 294.61523 C 12.6159 294.69849 12.596332 294.78459 12.570312 294.87305 C 12.546899 294.95891 12.518202 295.04369 12.484375 295.12695 C 12.453153 295.21021 12.419239 295.28587 12.382812 295.35352 C 12.348988 295.41853 12.312464 295.47201 12.273438 295.51367 C 12.234412 295.55267 12.197889 295.57227 12.164062 295.57227 C 12.122436 295.57227 12.092432 295.54745 12.074219 295.49805 C 12.056005 295.44601 12.046875 295.37818 12.046875 295.29492 C 12.046875 295.18565 12.059918 295.06173 12.085938 294.92383 C 12.111959 294.78333 12.145873 294.65028 12.1875 294.52539 C 12.231735 294.4005 12.279998 294.29484 12.332031 294.20898 C 12.386669 294.12312 12.441454 294.08008 12.496094 294.08008 z M 19.521484 294.08008 C 19.56572 294.08008 19.599634 294.11136 19.623047 294.17383 C 19.649067 294.23627 19.662109 294.31323 19.662109 294.4043 C 19.662109 294.51358 19.649067 294.63619 19.623047 294.77148 C 19.599634 294.90418 19.567024 295.0307 19.525391 295.15039 C 19.483761 295.27008 19.434193 295.37052 19.376953 295.45117 C 19.322316 295.53183 19.263619 295.57227 19.201172 295.57227 C 19.167345 295.57227 19.139954 295.56312 19.119141 295.54492 C 19.098321 295.52672 19.081366 295.50321 19.068359 295.47461 C 19.057946 295.44336 19.050122 295.40814 19.044922 295.36914 C 19.039722 295.33008 19.037109 295.29095 19.037109 295.25195 C 19.037109 295.18431 19.044934 295.11256 19.060547 295.03711 C 19.07616 294.95906 19.090509 294.88601 19.103516 294.81836 C 19.129529 294.71169 19.159533 294.61255 19.193359 294.52148 C 19.227183 294.43044 19.262401 294.35218 19.298828 294.28711 C 19.337855 294.22204 19.375683 294.17117 19.412109 294.13477 C 19.448534 294.09837 19.485058 294.08008 19.521484 294.08008 z M 29.060547 294.08008 C 29.112582 294.08008 29.151714 294.10875 29.177734 294.16602 C 29.203754 294.22326 29.216797 294.29891 29.216797 294.39258 C 29.216797 294.45762 29.208973 294.53197 29.193359 294.61523 C 29.180353 294.69849 29.160786 294.78459 29.134766 294.87305 C 29.111352 294.95891 29.082655 295.04369 29.048828 295.12695 C 29.017607 295.21021 28.983692 295.28587 28.947266 295.35352 C 28.91344 295.41853 28.876917 295.47201 28.837891 295.51367 C 28.798865 295.55267 28.762342 295.57227 28.728516 295.57227 C 28.686889 295.57227 28.656885 295.54745 28.638672 295.49805 C 28.620459 295.44601 28.611328 295.37818 28.611328 295.29492 C 28.611328 295.18565 28.624371 295.06173 28.650391 294.92383 C 28.676412 294.78333 28.710326 294.65028 28.751953 294.52539 C 28.796182 294.4005 28.844444 294.29484 28.896484 294.20898 C 28.951122 294.12312 29.005907 294.08008 29.060547 294.08008 z M 8.8066406 294.60352 C 8.8248506 294.60612 8.8365902 294.62048 8.8417969 294.64648 C 8.8496035 294.66995 8.8522094 294.70123 8.8496094 294.74023 C 8.8470074 294.77669 8.8391812 294.81974 8.8261719 294.86914 C 8.8157639 294.91855 8.8014158 294.96942 8.7832031 295.02148 C 8.7363698 294.99543 8.7050645 294.95891 8.6894531 294.91211 C 8.6738391 294.86264 8.6686215 294.81438 8.6738281 294.76758 C 8.6790321 294.72072 8.6933802 294.68028 8.7167969 294.64648 C 8.7428155 294.61255 8.7728166 294.59818 8.8066406 294.60352 z M 17.884766 294.69336 C 17.887366 294.77142 17.897802 294.84707 17.916016 294.91992 C 17.934229 294.99275 17.962926 295.05927 18.001953 295.11914 C 18.040984 295.17641 18.090551 295.22337 18.150391 295.25977 C 18.210233 295.29617 18.281975 295.31837 18.365234 295.32617 C 18.328809 295.41721 18.283156 295.49287 18.228516 295.55273 C 18.176481 295.6126 18.119087 295.64258 18.056641 295.64258 C 17.978587 295.64258 17.922499 295.60866 17.888672 295.54102 C 17.857452 295.47337 17.837885 295.38989 17.830078 295.29102 C 17.824878 295.19214 17.82879 295.0891 17.841797 294.98242 C 17.854804 294.87314 17.869152 294.77662 17.884766 294.69336 z M 20.384766 294.69336 C 20.387366 294.77142 20.397802 294.84707 20.416016 294.91992 C 20.434229 294.99275 20.462926 295.05927 20.501953 295.11914 C 20.540984 295.17641 20.590551 295.22337 20.650391 295.25977 C 20.710233 295.29617 20.781975 295.31837 20.865234 295.32617 C 20.82881 295.41721 20.783156 295.49287 20.728516 295.55273 C 20.67648 295.6126 20.619087 295.64258 20.556641 295.64258 C 20.478588 295.64258 20.422499 295.60866 20.388672 295.54102 C 20.357452 295.47337 20.337885 295.38989 20.330078 295.29102 C 20.324878 295.19214 20.32879 295.0891 20.341797 294.98242 C 20.354804 294.87314 20.369152 294.77662 20.384766 294.69336 z M 26.169922 294.69336 C 26.172522 294.77142 26.182959 294.84707 26.201172 294.91992 C 26.219385 294.99275 26.248083 295.05927 26.287109 295.11914 C 26.326139 295.17641 26.375707 295.22337 26.435547 295.25977 C 26.49539 295.29617 26.567131 295.31837 26.650391 295.32617 C 26.613966 295.41721 26.568312 295.49287 26.513672 295.55273 C 26.461637 295.6126 26.404244 295.64258 26.341797 295.64258 C 26.263744 295.64258 26.207655 295.60866 26.173828 295.54102 C 26.142608 295.47337 26.123041 295.38989 26.115234 295.29102 C 26.110034 295.19214 26.113946 295.0891 26.126953 294.98242 C 26.13996 294.87314 26.154309 294.77662 26.169922 294.69336 z M 27.404297 294.93164 C 27.440723 295.03572 27.499421 295.12442 27.580078 295.19727 C 27.660735 295.27013 27.767696 295.31317 27.900391 295.32617 C 27.863967 295.41981 27.819618 295.49677 27.767578 295.55664 C 27.715543 295.61391 27.65815 295.64258 27.595703 295.64258 C 27.52545 295.64258 27.474579 295.59431 27.443359 295.49805 C 27.412139 295.40177 27.396484 295.27525 27.396484 295.11914 L 27.396484 295.0293 C 27.399084 294.99803 27.401697 294.96544 27.404297 294.93164 z "
           style="stroke-width:0.26458332"
           id="path56"
           d="m 1.6953125,292.21484 c -0.1925371,-0.008 -0.3751527,0.007 -0.546875,0.043 -0.18993534,0.0416 -0.35364052,0.10815 -0.49414062,0.19922 -0.14050011,0.0911 -0.25920017,0.19542 -0.35546876,0.3125 -0.0936667,0.11449 -0.16540852,0.2371 -0.21484375,0.36719 -0.04943522,0.13009 -0.07682754,0.25531 -0.08203124,0.375 -0.00780556,0.14311 0.00915158,0.28203 0.05078124,0.41992 0.04162966,0.1353 0.10684948,0.25661 0.19531251,0.36328 0.0910649,0.10668 0.20715615,0.19538 0.34765624,0.26563 0.1405001,0.0677 0.30550973,0.10678 0.49804688,0.11718 0.1899353,0.008 0.3542892,-0.0143 0.4921875,-0.0664 0.1378983,-0.052 0.2513807,-0.12378 0.3398437,-0.21485 0.091065,-0.0937 0.1588937,-0.20193 0.203125,-0.32421 0.044232,-0.12229 0.07032,-0.24817 0.078125,-0.38086 v -0.0977 c 0,-0.0338 -0.00131,-0.0691 -0.00391,-0.10547 l -0.2226562,0.0234 c 0.00521,0.0676 0.00521,0.13284 0,0.19531 -0.0052,0.11448 -0.026074,0.2234 -0.0625,0.33008 -0.033824,0.10407 -0.086,0.19668 -0.15625,0.27734 -0.07025,0.078 -0.1602535,0.14064 -0.2695313,0.1875 -0.1092779,0.0468 -0.2423262,0.0664 -0.3984375,0.0586 -0.15611119,-0.008 -0.28851091,-0.0417 -0.40039062,-0.10157 -0.11187971,-0.0598 -0.20449186,-0.1368 -0.27734376,-0.23046 -0.0728519,-0.0963 -0.12502773,-0.20324 -0.15625,-0.32032 -0.0312225,-0.11968 -0.0442665,-0.24034 -0.0390625,-0.36523 0.007806,-0.15091 0.0456331,-0.297 0.11328126,-0.4375 0.0676482,-0.1405 0.15765154,-0.26442 0.26953124,-0.37109 C 0.71799719,292.62511 0.84909249,292.53772 1,292.47266 c 0.1535094,-0.0651 0.3178633,-0.0977 0.4921875,-0.0977 0.088463,-0.003 0.1875971,0.001 0.296875,0.0117 0.1118797,0.0104 0.2318841,0.0274 0.359375,0.0508 0.1274908,0.0208 0.2618436,0.0456 0.4023437,0.0742 0.143102,0.0261 0.2891944,0.0547 0.4375,0.0859 -0.036426,0.0702 -0.075558,0.16155 -0.1171874,0.27343 -0.041629,0.10928 -0.082066,0.23711 -0.1210938,0.38282 -0.039028,0.1457 -0.075551,0.30874 -0.109375,0.48828 -0.033824,0.17692 -0.062521,0.36802 -0.085937,0.57617 -0.033824,0.30702 -0.076869,0.57442 -0.1289063,0.80078 -0.049435,0.22636 -0.105524,0.42072 -0.1679687,0.58203 -0.062444,0.16132 -0.1315775,0.29241 -0.2070313,0.39649 -0.072852,0.10404 -0.1498112,0.18622 -0.2304687,0.24609 -0.078056,0.0599 -0.1589282,0.10029 -0.2421875,0.12109 -0.083259,0.0234 -0.1667407,0.0352 -0.25,0.0352 -0.1118797,0 -0.208405,-0.0157 -0.2890625,-0.0469 -0.0806574,-0.0312 -0.14522856,-0.0729 -0.19726562,-0.125 -0.0520371,-0.052 -0.091169,-0.11204 -0.1171875,-0.17968 -0.0234167,-0.065 -0.0351563,-0.13093 -0.0351563,-0.20117 0,-0.0572 0.007826,-0.11331 0.0234375,-0.16797 0.0182129,-0.0521 0.0429965,-0.0977 0.0742188,-0.13672 0.0312222,-0.0417 0.0677453,-0.0743 0.109375,-0.0977 0.0416297,-0.0234 0.0853304,-0.0351 0.13476562,-0.0351 l -0.011719,-0.21485 c -0.0780556,0 -0.14914863,0.0183 -0.21679682,0.0547 -0.0650464,0.0364 -0.12113542,0.0847 -0.16796876,0.14453 -0.0468334,0.0573 -0.0833565,0.12507 -0.109375,0.20313 -0.0260185,0.0754 -0.0390625,0.15371 -0.0390625,0.23437 0,0.0859 0.0156527,0.16869 0.046875,0.25195 0.0338241,0.0832 0.0846956,0.15759 0.15234376,0.22266 0.0676482,0.0651 0.15373835,0.11725 0.2578125,0.15625 0.10407412,0.0416 0.22734312,0.0625 0.37304682,0.0625 0.1561113,0 0.3113345,-0.0326 0.4648438,-0.0977 0.1535094,-0.0624 0.296993,-0.17984 0.4296875,-0.35156 0.1326945,-0.16912 0.2500902,-0.40196 0.3515625,-0.70117 0.1014722,-0.29921 0.1771272,-0.68532 0.2265625,-1.15625 0.046833,-0.46573 0.1003136,-0.83423 0.1601563,-1.10742 0.062444,-0.2732 0.1198376,-0.46885 0.171875,-0.58594 0.2601854,0.0521 0.5217203,0.10033 0.7871093,0.14453 0.267991,0.0443 0.5236526,0.0703 0.765625,0.0781 0.2419724,0.005 0.4650242,-0.0144 0.6679688,-0.0586 0.2055464,-0.0442 0.3744692,-0.12771 0.5097656,-0.25 L 5.75,292.41797 c -0.1378983,0.10144 -0.2885595,0.17318 -0.4550781,0.21484 -0.1665187,0.039 -0.3439166,0.0586 -0.53125,0.0586 -0.1873335,0 -0.3842974,-0.0157 -0.5898438,-0.0469 -0.2029446,-0.0313 -0.4103436,-0.0691 -0.6210937,-0.11328 -0.2107502,-0.0443 -0.4214136,-0.0899 -0.6347656,-0.13672 -0.2107502,-0.0495 -0.4194537,-0.0899 -0.625,-0.12109 -0.2055465,-0.0312 -0.4051191,-0.0508 -0.5976563,-0.0586 z m 16.7871095,0.0195 c -0.189935,-10e-6 -0.360811,0.0535 -0.511719,0.16015 -0.148305,0.10667 -0.283963,0.25016 -0.40625,0.42969 -0.119685,0.17693 -0.229255,0.38171 -0.328125,0.61328 -0.09627,0.22896 -0.185623,0.46702 -0.271484,0.7168 -0.04163,-0.23937 -0.0912,-0.4709 -0.148438,-0.69727 -0.05464,-0.22636 -0.123772,-0.42724 -0.207031,-0.60156 -0.08326,-0.17693 -0.186306,-0.3178 -0.308594,-0.42188 -0.119685,-0.10667 -0.265778,-0.16015 -0.4375,-0.16015 -0.106676,0 -0.208419,0.0183 -0.304687,0.0547 -0.09367,0.0338 -0.175844,0.0821 -0.246094,0.14454 -0.07025,0.0624 -0.126335,0.1381 -0.167969,0.22656 -0.04163,0.0859 -0.0625,0.17978 -0.0625,0.28125 0,0.0859 0.01435,0.17065 0.04297,0.25391 0.02862,0.0806 0.07036,0.15368 0.125,0.21874 0.05724,0.0651 0.127678,0.11726 0.210938,0.15626 0.08326,0.039 0.17848,0.0566 0.285156,0.0566 0.01041,-0.0417 0.01824,-0.0801 0.02344,-0.11914 0.0078,-0.0417 0.01694,-0.0834 0.02734,-0.125 -0.08066,-0.003 -0.152397,-0.0183 -0.214844,-0.0469 -0.06244,-0.0312 -0.114616,-0.0717 -0.15625,-0.12109 -0.04163,-0.0494 -0.07424,-0.1042 -0.09766,-0.16407 -0.02081,-0.0624 -0.03125,-0.12503 -0.03125,-0.1875 0,-0.0624 0.01044,-0.12242 0.03125,-0.17968 0.02081,-0.0599 0.05342,-0.11205 0.09766,-0.15625 0.04423,-0.0469 0.09902,-0.0847 0.164063,-0.11329 0.06765,-0.0286 0.147216,-0.043 0.238281,-0.043 0.145704,0 0.268318,0.0509 0.367187,0.15234 0.101473,0.0989 0.187563,0.23974 0.257813,0.42188 0.07025,0.17952 0.130254,0.39605 0.179687,0.64843 0.05204,0.25238 0.100298,0.52957 0.144532,0.83399 l 0.01172,0.0859 c -0.09367,0.24198 -0.195409,0.47807 -0.304687,0.70704 -0.106676,0.22896 -0.227985,0.43244 -0.363281,0.60937 -0.135296,0.17953 -0.289215,0.32106 -0.460938,0.42774 -0.171722,0.10667 -0.368685,0.16015 -0.589844,0.16015 -0.148305,0 -0.275487,-0.0287 -0.384765,-0.0859 -0.106676,-0.0546 -0.196679,-0.12899 -0.269531,-0.22265 -0.07025,-0.0937 -0.122424,-0.19868 -0.15625,-0.31836 -0.03383,-0.11968 -0.05078,-0.24491 -0.05078,-0.375 0,-0.15091 0.02087,-0.30091 0.0625,-0.44922 0.04423,-0.14831 0.108147,-0.28135 0.191407,-0.39844 0.08326,-0.11968 0.185002,-0.21621 0.304687,-0.28906 0.122287,-0.0728 0.2586,-0.10938 0.41211,-0.10938 0.08586,0 0.164124,0.0183 0.234374,0.0547 0.07025,0.0338 0.128948,0.0808 0.175782,0.14063 0.04943,0.0572 0.08726,0.12376 0.113281,0.19922 0.02862,0.0729 0.04297,0.14981 0.04297,0.23046 0,0.10148 -0.01957,0.20713 -0.05859,0.31641 -0.03643,0.10667 -0.09643,0.20972 -0.179688,0.30859 l 0.191407,0.11329 c 0.08326,-0.0989 0.145866,-0.20584 0.1875,-0.32032 0.04163,-0.11708 0.0625,-0.23447 0.0625,-0.35156 0,-0.10927 -0.01695,-0.21363 -0.05078,-0.3125 -0.03122,-0.0989 -0.07949,-0.18626 -0.144532,-0.26172 -0.06505,-0.0755 -0.144614,-0.13549 -0.238281,-0.17969 -0.09367,-0.0442 -0.200627,-0.0664 -0.320313,-0.0664 -0.200342,0 -0.373179,0.0404 -0.521484,0.12109 -0.148306,0.0807 -0.273528,0.18762 -0.375,0.32031 -0.09887,0.1301 -0.173223,0.27749 -0.222656,0.44141 -0.04943,0.16131 -0.07422,0.32437 -0.07422,0.48828 0,0.14831 0.02087,0.28984 0.0625,0.42774 0.04423,0.1405 0.109451,0.26442 0.195313,0.37109 0.08846,0.10926 0.199337,0.19665 0.332031,0.26172 0.132695,0.0676 0.287269,0.10156 0.466797,0.10156 0.228963,0 0.432449,-0.0535 0.609375,-0.16016 0.179528,-0.10668 0.339968,-0.24755 0.480469,-0.42187 0.140499,-0.17433 0.264417,-0.37194 0.371093,-0.5957 0.109278,-0.22376 0.211021,-0.45204 0.304688,-0.6836 0.02602,0.18734 0.05341,0.37256 0.08203,0.55469 0.03122,0.18213 0.06905,0.35692 0.113281,0.52344 0.04423,0.16652 0.09641,0.31979 0.15625,0.46289 0.06245,0.14311 0.137451,0.26702 0.228516,0.37109 0.09107,0.10405 0.198025,0.18623 0.320312,0.2461 0.12489,0.0599 0.270982,0.0898 0.4375,0.0898 0.171722,0 0.316514,-0.0351 0.433594,-0.10547 h 0.164063 c 0.01369,-0.087 0.03049,-0.17308 0.04492,-0.25976 0.02106,-0.0362 0.05471,-0.0493 0.07227,-0.0918 l -0.05469,-0.0176 c 0.01827,-0.10729 0.03528,-0.21554 0.05469,-0.32227 0.03903,-0.22896 0.07685,-0.45788 0.113281,-0.68945 0.01821,0.078 0.05082,0.13802 0.09766,0.17969 0.04944,0.0416 0.119872,0.0625 0.210937,0.0625 0.08846,0 0.177162,-0.0196 0.265625,-0.0586 0.09107,-0.039 0.177155,-0.0938 0.257813,-0.16407 0.08066,-0.0702 0.155008,-0.15503 0.222656,-0.2539 0.05172,-0.0756 0.09174,-0.16463 0.132812,-0.25391 -0.0086,0.11442 -0.016,0.22824 0,0.32422 0.01822,0.12229 0.05735,0.22142 0.117188,0.29687 0.06245,0.0729 0.149839,0.10938 0.261719,0.10938 0.101472,0 0.199302,-0.043 0.292968,-0.12891 0.09366,-0.0885 0.171929,-0.19673 0.234375,-0.32422 0.09627,-0.0286 0.177797,-0.0821 0.248047,-0.16015 0.0282,-0.0324 0.04742,-0.0866 0.07227,-0.12696 -0.01522,0.11916 -0.02734,0.23387 -0.02734,0.33399 0,0.12489 0.01565,0.22403 0.04687,0.29687 0.03122,0.0703 0.0847,0.10547 0.160156,0.10547 0.07545,0 0.149805,-0.0457 0.222657,-0.13672 0.07285,-0.0911 0.136766,-0.20846 0.191406,-0.35156 -0.0052,0.0546 -0.0065,0.1107 -0.0039,0.16797 0.0052,0.0572 0.01434,0.11069 0.02734,0.16016 0.01561,0.0469 0.03779,0.086 0.06641,0.11718 0.02862,0.0286 0.06645,0.043 0.113281,0.043 0.07545,0 0.149804,-0.0457 0.222656,-0.13672 0.07285,-0.0911 0.136766,-0.20846 0.191406,-0.35156 0,0.013 -0.0013,0.0261 -0.0039,0.0391 v 0.0391 c 0,0.12488 0.01304,0.22532 0.03906,0.30078 0.02862,0.0729 0.07949,0.10937 0.152343,0.10937 0.06245,0 0.116583,-0.0222 0.166016,-0.0664 0.04943,-0.0468 0.09639,-0.11075 0.140625,-0.19141 0.04683,-0.0833 0.09248,-0.18109 0.136719,-0.29297 0.0082,-0.0207 0.0189,-0.0469 0.02734,-0.0684 -0.0062,0.0716 -0.01758,0.14907 -0.01758,0.21289 0,0.12229 0.01565,0.22012 0.04687,0.29297 0.03122,0.0729 0.0847,0.10938 0.160157,0.10938 0.07545,0 0.149804,-0.0457 0.222656,-0.13672 0.07285,-0.0911 0.136766,-0.20846 0.191406,-0.35156 0,0.013 -0.0013,0.0261 -0.0039,0.0391 v 0.0391 c 0,0.12489 0.01304,0.22533 0.03906,0.30078 0.02862,0.0729 0.07949,0.10938 0.152344,0.10938 0.06245,0 0.118536,-0.0222 0.167969,-0.0664 0.04943,-0.0468 0.09639,-0.11075 0.140625,-0.19141 0.03772,-0.0671 0.07334,-0.15069 0.109375,-0.23632 -0.0196,0.0404 -0.03672,0.0827 -0.04297,0.13476 -0.0078,0.0624 -0.0039,0.12242 0.01172,0.17969 0.01561,0.0547 0.04561,0.099 0.08984,0.13281 0.04163,0.0338 0.100327,0.0443 0.175781,0.0312 0.05724,-0.0104 0.110723,-0.0482 0.160156,-0.11328 0.04943,-0.0677 0.09639,-0.15113 0.140625,-0.25 0.04423,-0.10147 0.08467,-0.21365 0.121094,-0.33594 0.03903,-0.12489 0.07425,-0.2488 0.105469,-0.37109 0.03382,-0.12229 0.06382,-0.23968 0.08984,-0.35156 0.02863,-0.11188 0.05471,-0.20711 0.07813,-0.28516 h 0.08594 c -0.02081,0.0989 -0.04429,0.20583 -0.07031,0.32031 -0.02342,0.11448 -0.04559,0.23058 -0.06641,0.34766 -0.02081,0.11449 -0.03907,0.22666 -0.05469,0.33594 -0.01301,0.10928 -0.01953,0.20841 -0.01953,0.29687 0,0.11968 0.01565,0.21752 0.04687,0.29297 0.03122,0.0754 0.08209,0.11328 0.152344,0.11328 0.06245,0 0.118536,-0.0222 0.167969,-0.0664 0.05204,-0.0468 0.100298,-0.11075 0.144531,-0.19141 0.04423,-0.0833 0.08663,-0.18109 0.13086,-0.29297 0.01023,-0.0259 0.02255,-0.0588 0.0332,-0.0859 -0.0026,0.0865 -0.01253,0.17875 0,0.25391 0.01822,0.12229 0.05735,0.22142 0.117187,0.29687 0.06245,0.0729 0.149839,0.10938 0.261719,0.10938 0.101472,0 0.199302,-0.043 0.292969,-0.12891 0.09366,-0.0885 0.171928,-0.19673 0.234375,-0.32422 0.09627,-0.0286 0.17975,-0.0821 0.25,-0.16015 0.03985,-0.0457 0.06841,-0.11803 0.101562,-0.17969 -5e-6,0.002 0,0.005 0,0.008 0,0.11188 0.0065,0.21624 0.01953,0.3125 0.01301,0.0963 0.03388,0.17976 0.0625,0.25 0.03122,0.0703 0.07035,0.12507 0.117188,0.16407 0.04683,0.039 0.105531,0.0586 0.175781,0.0586 0.104074,0 0.196687,-0.0404 0.277344,-0.12109 0.08066,-0.0833 0.149791,-0.18892 0.207031,-0.31641 0.09887,-0.0234 0.188873,-0.0782 0.269531,-0.16406 0.03672,-0.0379 0.0592,-0.0976 0.08984,-0.14453 -0.0152,0.1 -0.02344,0.19531 -0.02344,0.28515 0,0.1405 0.01957,0.25137 0.05859,0.33203 0.03903,0.0807 0.100335,0.1211 0.183594,0.1211 0.05204,0 0.100298,-0.0157 0.144531,-0.0469 0.04683,-0.0338 0.08988,-0.0768 0.128907,-0.1289 0.03903,-0.0546 0.07425,-0.11726 0.105468,-0.1875 0.03383,-0.0729 0.06513,-0.14851 0.09375,-0.22657 l -0.01953,0.1875 c 0,0.268 0.05348,0.40235 0.160156,0.40235 0.04163,0 0.08207,-0.017 0.121094,-0.0508 0.03903,-0.0338 0.08077,-0.0873 0.125,-0.16016 0.04683,-0.0755 0.0964,-0.17198 0.148438,-0.28906 0.05464,-0.11709 0.115945,-0.25796 0.183593,-0.42188 0,-0.005 -0.0091,-0.013 -0.02734,-0.0234 -0.01561,-0.0104 -0.02996,-0.0156 -0.04297,-0.0156 -0.09887,0.26279 -0.188873,0.46236 -0.269531,0.59766 -0.07805,0.13269 -0.139361,0.19921 -0.183594,0.19921 -0.03122,0 -0.04687,-0.0469 -0.04687,-0.14062 0,-0.0261 0.0013,-0.0547 0.0039,-0.0859 0.0026,-0.0338 0.0065,-0.0704 0.01172,-0.10937 0.02342,-0.18474 0.05472,-0.38692 0.09375,-0.60547 0.04163,-0.21856 0.08729,-0.44943 0.136719,-0.69141 h -0.175782 l -0.05469,0.27344 c -0.01041,-0.0884 -0.03389,-0.16018 -0.07031,-0.21484 -0.03643,-0.0573 -0.09382,-0.0859 -0.171875,-0.0859 -0.05984,0 -0.117235,0.0222 -0.171875,0.0664 -0.05204,0.0416 -0.101604,0.0977 -0.148437,0.16797 -0.04683,0.0703 -0.08988,0.15243 -0.128906,0.2461 -0.03903,0.0937 -0.07294,0.19149 -0.101563,0.29297 -0.0076,0.0295 -0.01089,0.0601 -0.01758,0.0898 -4.54e-4,-10e-6 -0.0015,0 -0.002,0 -0.04684,0.12227 -0.100316,0.21618 -0.160156,0.28125 -0.05984,0.0651 -0.125063,0.10941 -0.195313,0.13281 0.03643,-0.0989 0.06382,-0.20192 0.08203,-0.30859 0.01821,-0.10928 0.02734,-0.21493 0.02734,-0.31641 0,-0.0885 -0.0078,-0.17194 -0.02344,-0.25 -0.01301,-0.078 -0.03519,-0.14586 -0.06641,-0.20312 -0.03122,-0.0599 -0.07166,-0.10683 -0.121093,-0.14063 -0.04683,-0.0364 -0.102922,-0.0547 -0.167969,-0.0547 -0.07546,0 -0.143285,0.0196 -0.203125,0.0586 -0.05984,0.0364 -0.112017,0.086 -0.15625,0.14844 l 0.03516,-0.1836 c 0.199956,-0.20823 0.206804,-0.38353 0.300781,-0.57422 -0.07327,0.14646 -0.161523,0.28542 -0.269531,0.41797 0.02862,-0.1379 0.05862,-0.26638 0.08984,-0.38867 0.03383,-0.12489 0.06644,-0.23316 0.09766,-0.32422 0.03383,-0.0936 0.06513,-0.16799 0.09375,-0.22265 0.02862,-0.0547 0.05341,-0.082 0.07422,-0.082 0.03122,0 0.04687,0.03 0.04687,0.0899 0,0.16002 -0.04085,0.31759 -0.115235,0.47265 0.07186,-0.15611 0.248047,-0.32843 0.248047,-0.47265 0,-0.0755 -0.02087,-0.13288 -0.0625,-0.17188 -0.03902,-0.0416 -0.08468,-0.0625 -0.136718,-0.0625 -0.04423,0 -0.08727,0.0144 -0.128907,0.043 -0.03903,0.0286 -0.07294,0.073 -0.101562,0.13281 -0.04943,0.10928 -0.10161,0.25016 -0.15625,0.42188 -0.05204,0.17173 -0.100298,0.35695 -0.144531,0.55469 -0.04163,0.19774 -0.07685,0.39927 -0.105469,0.60742 -0.01963,0.14096 -0.02313,0.26776 -0.0293,0.39648 -0.0015,-1.2e-4 -0.0045,-0.002 -0.0059,-0.002 -0.04423,0.11706 -0.09249,0.20576 -0.144532,0.26562 -0.04943,0.0599 -0.106828,0.10552 -0.171875,0.13672 0.05204,-0.1353 0.08856,-0.27747 0.109375,-0.42578 0.02341,-0.1483 0.02603,-0.28396 0.0078,-0.40625 -0.01561,-0.12489 -0.05213,-0.22794 -0.109375,-0.30859 -0.05464,-0.0807 -0.134207,-0.1211 -0.238281,-0.1211 -0.06765,0 -0.13026,0.0157 -0.1875,0.0469 -0.05464,0.0286 -0.102898,0.0677 -0.144532,0.11719 -0.04163,0.0494 -0.07685,0.10681 -0.105468,0.17187 -0.02862,0.065 -0.04949,0.13418 -0.0625,0.20703 l -0.121094,-0.0312 c -0.03595,0.12784 -0.05513,0.25177 -0.07422,0.375 -0.08797,0.23319 -0.168244,0.4252 -0.238281,0.55078 -0.07286,0.1327 -0.139379,0.19922 -0.199219,0.19922 -0.02082,0 -0.03777,-0.0118 -0.05078,-0.0352 -0.01301,-0.0234 -0.01953,-0.0651 -0.01953,-0.125 0,-0.0807 0.0065,-0.17458 0.01953,-0.28125 0.01561,-0.10668 0.03387,-0.22407 0.05469,-0.35157 0.02342,-0.12749 0.0495,-0.26184 0.07813,-0.40234 0.03123,-0.1431 0.06253,-0.28919 0.09375,-0.4375 h -0.5625 l -0.03906,0.0937 h 0.199219 c -0.02602,0.0859 -0.05472,0.19413 -0.08594,0.32422 -0.03122,0.12749 -0.06644,0.26054 -0.105469,0.39844 -0.03903,0.1379 -0.08207,0.27225 -0.128906,0.40234 -0.04683,0.13009 -0.09901,0.24097 -0.15625,0.33203 -0.03903,0.0651 -0.07685,0.0977 -0.113281,0.0977 -0.03643,0 -0.06512,-0.0183 -0.08594,-0.0547 -0.01821,-0.0364 -0.02604,-0.0834 -0.02344,-0.14062 0.0052,-0.0572 0.02738,-0.112 0.06641,-0.16407 h -0.191406 c 0.0036,-0.009 0.0081,-0.0144 0.01172,-0.0234 0.04423,-0.11188 0.0925,-0.2358 0.144531,-0.3711 0,-0.0104 -0.01044,-0.0195 -0.03125,-0.0273 -0.01821,-0.008 -0.03126,-0.0117 -0.03906,-0.0117 -0.09887,0.25498 -0.18496,0.45194 -0.257812,0.58984 -0.07286,0.1353 -0.139379,0.20313 -0.199219,0.20313 -0.02081,0 -0.03907,-0.0118 -0.05469,-0.0352 -0.01301,-0.0234 -0.01953,-0.0651 -0.01953,-0.125 0,-0.0806 0.0065,-0.17457 0.01953,-0.28125 0.01561,-0.10667 0.03517,-0.22407 0.05859,-0.35156 0.02342,-0.12749 0.0495,-0.26184 0.07813,-0.40234 0.02862,-0.14311 0.05862,-0.2892 0.08984,-0.4375 h -0.203125 c -0.02602,0.11708 -0.05472,0.24491 -0.08594,0.38281 -0.02862,0.13789 -0.05601,0.28138 -0.08203,0.42969 -0.02081,0.11188 -0.04951,0.21883 -0.08594,0.32031 -0.03383,0.0989 -0.07035,0.18626 -0.109375,0.26172 -0.03643,0.0729 -0.07426,0.13158 -0.113281,0.17578 -0.03642,0.0442 -0.06642,0.0664 -0.08984,0.0664 -0.02602,0 -0.04689,-0.0131 -0.0625,-0.0391 -0.01561,-0.0286 -0.02344,-0.0743 -0.02344,-0.13672 0,-0.0624 0.0052,-0.13809 0.01563,-0.22656 0.01041,-0.0885 0.02345,-0.18107 0.03906,-0.27734 0.01821,-0.0989 0.03778,-0.198 0.05859,-0.29688 0.02081,-0.0989 0.04038,-0.19148 0.05859,-0.27734 0.01821,-0.0885 0.03517,-0.16673 0.05078,-0.23438 0.01561,-0.0677 0.02605,-0.11723 0.03125,-0.14843 h -0.207032 c -0.0078,0.0442 -0.02476,0.11988 -0.05078,0.22656 -0.02602,0.10668 -0.05341,0.22799 -0.08203,0.36328 -0.01715,0.0875 -0.03199,0.18228 -0.04687,0.27539 -0.09435,0.24632 -0.177851,0.4419 -0.248047,0.57227 -0.07286,0.13269 -0.139379,0.19921 -0.199219,0.19921 -0.02081,0 -0.03712,-0.0118 -0.05273,-0.0351 -0.01301,-0.0234 -0.01953,-0.0651 -0.01953,-0.125 0,-0.0781 0.0065,-0.17067 0.01953,-0.27735 0.01561,-0.10928 0.03192,-0.22797 0.05273,-0.35546 0.02342,-0.12749 0.0495,-0.26185 0.07813,-0.40235 0.03123,-0.1431 0.06253,-0.2892 0.09375,-0.4375 h -0.203125 c -0.02602,0.11708 -0.05276,0.24491 -0.08398,0.38281 -0.02862,0.1379 -0.05601,0.28139 -0.08203,0.42969 -0.02081,0.11188 -0.04951,0.21884 -0.08594,0.32031 -0.03383,0.0989 -0.07035,0.18627 -0.109375,0.26172 -0.03643,0.0729 -0.07425,0.13158 -0.113281,0.17578 -0.03642,0.0442 -0.06642,0.0664 -0.08984,0.0664 -0.02601,0 -0.04689,-0.0131 -0.0625,-0.0391 -0.01561,-0.0286 -0.02344,-0.0743 -0.02344,-0.13672 0,-0.0625 0.0052,-0.1381 0.01563,-0.22656 0.01301,-0.0885 0.02736,-0.18108 0.04297,-0.27735 l 0.05469,-0.29687 c 0.02081,-0.0989 0.04038,-0.19149 0.05859,-0.27735 0.02082,-0.0884 0.03777,-0.1654 0.05078,-0.23046 0.01561,-0.0677 0.02605,-0.11855 0.03125,-0.15235 h -0.207031 c -0.0052,0.0286 -0.01434,0.0703 -0.02734,0.125 -0.01301,0.0546 -0.02736,0.11986 -0.04297,0.19531 -0.01561,0.0729 -0.03257,0.15243 -0.05078,0.23829 -0.01821,0.0833 -0.03517,0.16804 -0.05078,0.2539 -0.02081,0.11188 -0.04951,0.21884 -0.08594,0.32031 -0.03382,0.0989 -0.07165,0.18627 -0.113281,0.26172 -0.03903,0.0729 -0.07816,0.13158 -0.117188,0.17578 -0.03642,0.0442 -0.06642,0.0664 -0.08984,0.0664 -0.02602,0 -0.04689,-0.0131 -0.0625,-0.0391 -0.01561,-0.0286 -0.02344,-0.0743 -0.02344,-0.13672 0,-0.0625 0.0052,-0.1381 0.01563,-0.22656 0.01301,-0.0885 0.02736,-0.18108 0.04297,-0.27735 l 0.05469,-0.29687 c 0.02081,-0.0989 0.04038,-0.19149 0.05859,-0.27735 0.02082,-0.0884 0.03777,-0.1654 0.05078,-0.23046 0.01561,-0.0677 0.02605,-0.11855 0.03125,-0.15235 h -0.207031 c -0.0078,0.0442 -0.02476,0.11988 -0.05078,0.22656 -0.02602,0.10668 -0.05341,0.22799 -0.08203,0.36329 -0.01605,0.0818 -0.0289,0.17103 -0.04297,0.25781 -0.04264,0.10962 -0.08889,0.19663 -0.138672,0.2539 -0.04943,0.0599 -0.104875,0.10552 -0.169922,0.13672 0.05204,-0.1353 0.08856,-0.27747 0.109375,-0.42578 0.02341,-0.1483 0.02603,-0.28396 0.0078,-0.40625 -0.01561,-0.12489 -0.05213,-0.22794 -0.109375,-0.30859 -0.05464,-0.0807 -0.134208,-0.1211 -0.238282,-0.1211 -0.06765,0 -0.13026,0.0157 -0.1875,0.0469 -0.05464,0.0286 -0.102904,0.0677 -0.144531,0.11719 -0.04163,0.0494 -0.07685,0.10681 -0.105469,0.17187 -0.02863,0.065 -0.04949,0.13418 -0.0625,0.20703 l -0.121093,-0.0312 c -0.03372,0.1199 -0.05143,0.23572 -0.07031,0.35157 -0.0027,-6.5e-4 -0.0074,-0.004 -0.0098,-0.004 -0.08586,0.22636 -0.192172,0.4155 -0.322265,0.56641 -0.127491,0.14834 -0.269671,0.24355 -0.425781,0.28515 0.06244,-0.0598 0.119835,-0.1368 0.171875,-0.23047 0.05204,-0.0963 0.09639,-0.19931 0.132812,-0.30859 0.03643,-0.11188 0.06512,-0.22667 0.08594,-0.34375 0.02081,-0.11709 0.03125,-0.22666 0.03125,-0.32813 0,-0.1457 -0.02348,-0.26701 -0.07031,-0.36328 -0.04423,-0.0963 -0.115973,-0.14453 -0.214844,-0.14453 -0.07545,0 -0.1485,0.0417 -0.21875,0.125 -0.06765,0.0807 -0.128953,0.18762 -0.183593,0.32031 l 0.0625,-0.41796 h -0.1875 c -0.0052,0.0702 -0.01955,0.18373 -0.04297,0.33984 -0.02013,0.14838 -0.04633,0.31858 -0.07617,0.50586 -0.04338,0.11305 -0.08979,0.20129 -0.140625,0.25976 -0.04943,0.0599 -0.106828,0.10552 -0.171875,0.13672 0.05204,-0.1353 0.08856,-0.27747 0.109375,-0.42578 0.02341,-0.1483 0.02603,-0.28396 0.0078,-0.40625 -0.01561,-0.12489 -0.05214,-0.22794 -0.109376,-0.30859 -0.05464,-0.0807 -0.132254,-0.1211 -0.236328,-0.1211 -0.06765,0 -0.13026,0.0157 -0.1875,0.0469 -0.05464,0.0286 -0.102904,0.0677 -0.144531,0.11719 -0.04163,0.0494 -0.07685,0.10681 -0.105469,0.17187 -0.02862,0.065 -0.04949,0.13418 -0.0625,0.20703 l -0.121093,-0.0312 c -0.04683,0.16652 -0.07944,0.32957 -0.09766,0.48828 -0.02081,0.15612 -0.02081,0.29699 0,0.42188 0.01822,0.12229 0.05735,0.22142 0.117188,0.29687 0.06244,0.0729 0.149839,0.10938 0.261719,0.10938 0.101472,0 0.199301,-0.043 0.292968,-0.12891 0.09366,-0.0885 0.169976,-0.19673 0.232422,-0.32422 0.09627,-0.0286 0.17975,-0.0821 0.25,-0.16015 0.02736,-0.0314 0.04611,-0.0841 0.07031,-0.12305 -0.02104,0.13022 -0.0423,0.25845 -0.06445,0.39649 -0.03383,0.21074 -0.06644,0.40706 -0.09766,0.59179 -0.02081,0.065 -0.04038,0.142 -0.05859,0.23047 -0.01561,0.0755 -0.03257,0.16807 -0.05078,0.27734 -2.1e-4,0.001 2.1e-4,0.003 0,0.004 -0.0358,0.0948 -0.07754,0.18172 -0.140625,0.23828 -0.07545,0.0677 -0.182413,0.10157 -0.320312,0.10157 -0.135296,-10e-6 -0.253996,-0.03 -0.355469,-0.0899 -0.09887,-0.0572 -0.186265,-0.13811 -0.261719,-0.24219 -0.07545,-0.10407 -0.140672,-0.22799 -0.195312,-0.37109 -0.05204,-0.14311 -0.09769,-0.29638 -0.136719,-0.46289 -0.03903,-0.16652 -0.0723,-0.34392 -0.103515,-0.53125 -0.02862,-0.18733 -0.05601,-0.37647 -0.08203,-0.56641 L 17,294.3418 c 0.09367,-0.24718 0.18563,-0.48719 0.279297,-0.71875 0.09627,-0.23156 0.20062,-0.4357 0.3125,-0.61524 0.111879,-0.17952 0.235797,-0.32301 0.371094,-0.42969 0.135296,-0.10928 0.290519,-0.16406 0.464843,-0.16406 0.109278,0 0.204499,0.0222 0.285157,0.0664 0.08065,0.0416 0.138048,0.11076 0.171875,0.20703 l 0.08594,-0.0469 c 0.03123,-0.0182 0.06253,-0.0352 0.09375,-0.0508 -0.01561,-0.0442 -0.04039,-0.0872 -0.07422,-0.1289 -0.03383,-0.0443 -0.07557,-0.0821 -0.125,-0.11328 -0.04943,-0.0338 -0.106828,-0.0612 -0.171875,-0.082 -0.06505,-0.0208 -0.135484,-0.0312 -0.210937,-0.0312 z m 9.36914,1.10546 c -0.0055,0.012 -0.01163,0.025 -0.01758,0.0371 0.0044,-0.009 0.01136,-0.0166 0.01563,-0.0254 0.0019,-0.004 1.42e-4,-0.008 0.002,-0.0117 z M 4.2988281,292.91016 c -0.057241,0.23937 -0.1055032,0.45851 -0.1445312,0.65625 -0.036426,0.19514 -0.067731,0.38232 -0.09375,0.56445 -0.023417,0.18213 -0.045592,0.36344 -0.066406,0.54297 -0.020815,0.17692 -0.041685,0.36345 -0.0625,0.55859 -0.00781,0.065 -0.013025,0.1381 -0.015625,0.21875 -0.0026,0.078 -0.00391,0.14586 -0.00391,0.20313 0,0.27579 0.037828,0.47211 0.1132812,0.59179 0.078056,0.11969 0.2019732,0.17969 0.3710938,0.17969 0.1483056,0 0.2735277,-0.0574 0.375,-0.17187 0.104074,-0.11188 0.1745115,-0.29646 0.2109375,-0.55664 l -0.1953125,-0.0117 c -0.020815,0.20814 -0.065164,0.36011 -0.1328125,0.45898 -0.065046,0.0989 -0.1472233,0.14844 -0.2460938,0.14844 -0.096268,0 -0.1706189,-0.0509 -0.2226562,-0.15235 -0.049435,-0.0989 -0.074219,-0.23909 -0.074219,-0.42382 0,-0.1379 0.00522,-0.2879 0.015625,-0.44922 0.013009,-0.16132 0.028662,-0.32828 0.046875,-0.5 0.020815,-0.17433 0.044294,-0.34781 0.070312,-0.51953 0.026019,-0.17433 0.052106,-0.34129 0.078125,-0.5 0.026018,-0.16132 0.053411,-0.31067 0.082031,-0.45117 0.02862,-0.14051 0.056013,-0.26181 0.082031,-0.36329 z m -0.7265625,0.0742 -0.6191406,3.48046 h 0.2480469 l 0.515625,-3.4414 z m 3.4355469,0.93164 c -0.049435,0 -0.093784,0.0131 -0.1328125,0.0391 -0.039028,0.0234 -0.075551,0.0574 -0.109375,0.10156 -0.033824,0.0442 -0.066434,0.0964 -0.097656,0.15625 -0.031223,0.0598 -0.062528,0.12507 -0.09375,0.19531 0.020815,-0.10407 0.037772,-0.19799 0.050781,-0.28125 0.015608,-0.0833 0.026043,-0.14328 0.03125,-0.17968 H 6.4492188 c -0.013009,0.0729 -0.027357,0.15502 -0.042969,0.24609 -0.015611,0.0911 -0.032568,0.1876 -0.050781,0.28906 -0.015611,0.10148 -0.033873,0.20713 -0.054688,0.31641 -6.441e-4,0.003 -0.00131,0.006 -0.00195,0.01 -0.094679,0.24891 -0.1820115,0.44575 -0.2597656,0.57618 -0.078056,0.13269 -0.1393624,0.19921 -0.1835937,0.19921 -0.031222,0 -0.046875,-0.0469 -0.046875,-0.14062 0,-0.0261 0.00131,-0.0547 0.00391,-0.0859 0.0026,-0.0338 0.00651,-0.0704 0.011719,-0.10937 0.023417,-0.18474 0.054722,-0.38692 0.09375,-0.60547 0.041629,-0.21856 0.087283,-0.44943 0.1367187,-0.69141 H 5.8789062 l -0.054687,0.27344 c -0.010407,-0.0884 -0.033887,-0.16018 -0.070313,-0.21484 -0.036426,-0.0573 -0.093819,-0.0859 -0.171875,-0.0859 -0.059843,0 -0.1172363,0.0222 -0.171875,0.0664 -0.052037,0.0416 -0.099651,0.0977 -0.1464843,0.16797 -0.046833,0.0703 -0.089878,0.15243 -0.1289063,0.2461 -0.039027,0.0937 -0.072942,0.19149 -0.1015625,0.29297 -0.026018,0.10147 -0.046889,0.20452 -0.0625,0.30859 -0.015611,0.10147 -0.023437,0.198 -0.023437,0.28906 0,0.1405 0.019566,0.25137 0.058594,0.33203 0.039028,0.0807 0.1003344,0.1211 0.1835937,0.1211 0.052037,0 0.098347,-0.0157 0.1425781,-0.0469 0.046833,-0.0338 0.089878,-0.0768 0.1289063,-0.1289 0.039028,-0.0546 0.074247,-0.11726 0.1054687,-0.1875 0.033824,-0.0729 0.065129,-0.14851 0.09375,-0.22657 l -0.019531,0.1875 c 0,0.268 0.05348,0.40235 0.1601562,0.40235 0.041629,0 0.082066,-0.017 0.1210938,-0.0508 0.039028,-0.0338 0.080769,-0.0873 0.125,-0.16016 0.046833,-0.0755 0.0964,-0.17198 0.1484375,-0.28906 0.00914,-0.0196 0.021749,-0.0494 0.03125,-0.0703 -0.015413,0.0555 -0.031655,0.11127 -0.042969,0.16407 -0.015611,0.0728 -0.028655,0.13804 -0.039063,0.19531 -0.013009,0.0572 -0.024749,0.12116 -0.035156,0.19141 H 6.3203125 L 6.46875,294.96289 c 0.031222,-0.12489 0.065137,-0.23968 0.1015625,-0.34375 0.039028,-0.10667 0.076855,-0.19928 0.1132813,-0.27734 0.039028,-0.0781 0.076855,-0.1394 0.1132812,-0.1836 0.039028,-0.0442 0.074247,-0.0664 0.1054688,-0.0664 0.028621,0 0.046882,0.0157 0.054687,0.0469 0.010407,0.0287 0.015625,0.0613 0.015625,0.0977 0,0.0286 -0.00522,0.0756 -0.015625,0.14062 -0.00781,0.0624 -0.019545,0.13811 -0.035156,0.22657 -0.015611,0.0859 -0.033873,0.17977 -0.054687,0.28125 l -0.0625,0.30468 c -0.020815,0.0989 -0.041685,0.1967 -0.0625,0.29297 -0.018213,0.0937 -0.03517,0.17585 -0.050781,0.2461 h 0.2226563 c 0.018213,-0.0755 0.042997,-0.18634 0.074219,-0.33204 0.031222,-0.1483 0.061223,-0.30483 0.089844,-0.46875 0.065046,-0.27579 0.1407014,-0.4871 0.2265625,-0.63281 0.085862,-0.1457 0.1615165,-0.21875 0.2265625,-0.21875 0.059843,0 0.089844,0.0496 0.089844,0.14844 -10e-8,0.0625 -0.014348,0.14201 -0.042969,0.23828 -0.028621,0.0963 -0.059926,0.20192 -0.09375,0.31641 -0.033824,0.11188 -0.065129,0.22667 -0.09375,0.34375 -0.028621,0.11448 -0.042969,0.22274 -0.042969,0.32422 10e-8,0.0962 0.018262,0.17059 0.054688,0.22265 0.036426,0.0521 0.091211,0.0781 0.1640624,0.0781 0.057241,0 0.1100721,-0.0222 0.1621094,-0.0664 0.054639,-0.0468 0.1055104,-0.10814 0.1523438,-0.18359 0.046833,-0.0755 0.091182,-0.16154 0.1328125,-0.25782 0.02298,-0.0531 0.044218,-0.10933 0.066406,-0.16406 -0.00857,0.0761 -0.015625,0.15118 -0.015625,0.21875 -0.0026,0.0806 0.00262,0.15238 0.015625,0.21485 0.013009,0.0625 0.033879,0.11334 0.0625,0.15234 0.020815,0.0287 0.049511,0.0482 0.085937,0.0586 0.036426,0.0105 0.074253,0.0144 0.1132813,0.0117 0.039028,-0.003 0.078159,-0.0104 0.1171875,-0.0234 0.039028,-0.013 0.071638,-0.0287 0.097656,-0.0469 0.078056,-0.052 0.1471886,-0.12508 0.2070313,-0.21875 0.062444,-0.0937 0.1133157,-0.1928 0.1523437,-0.29688 0.039028,-0.003 0.079464,-0.0143 0.1210938,-0.0351 0.04163,-0.0235 0.080761,-0.0534 0.1171875,-0.0899 0.036425,-0.039 0.069036,-0.0833 0.097656,-0.13281 0.02862,-0.0494 0.050795,-0.1055 0.066406,-0.16797 -0.0052,-0.0103 -0.016943,-0.0181 -0.035156,-0.0234 -0.015611,-0.008 -0.028655,-0.0117 -0.039063,-0.0117 -0.041629,0.11445 -0.088588,0.20054 -0.140625,0.25781 -0.049435,0.0547 -0.1003064,0.0886 -0.1523437,0.10156 0.023417,-0.0754 0.03907,-0.14587 0.046875,-0.21094 0.00781,-0.0677 0.00781,-0.12376 0,-0.16796 -0.010407,-0.0521 -0.031278,-0.0951 -0.0625,-0.12891 -0.031222,-0.0339 -0.071658,-0.0483 -0.1210938,-0.043 -0.07025,0.008 -0.1276436,0.0378 -0.171875,0.0898 -0.044231,0.0494 -0.071624,0.10814 -0.082031,0.17579 -0.010408,0.065 -0.00128,0.13157 0.027344,0.19921 0.02862,0.0651 0.083405,0.11725 0.1640625,0.15625 -0.031222,0.0781 -0.066441,0.15371 -0.1054687,0.22657 -0.036426,0.0728 -0.074253,0.13282 -0.1132813,0.17968 -0.031223,0.0365 -0.063832,0.0612 -0.097656,0.0742 -0.031222,0.0105 -0.061223,0.0117 -0.089844,0.004 -0.026019,-0.0104 -0.049498,-0.03 -0.070312,-0.0586 -0.018215,-0.0287 -0.02865,-0.0652 -0.03125,-0.10938 -0.00521,-0.0416 -0.00521,-0.0886 0,-0.14062 0.0052,-0.0546 0.011726,-0.11071 0.019531,-0.16797 0.00781,-0.0598 0.016936,-0.11852 0.027344,-0.17578 0.010407,-0.0598 0.019538,-0.11721 0.027344,-0.17188 0.020815,-0.12749 0.045598,-0.26054 0.074219,-0.39844 0.028621,-0.1405 0.058622,-0.28398 0.089844,-0.42968 H 8.2753906 c -0.0026,0.026 -0.00912,0.0651 -0.019531,0.11718 -0.00781,0.052 -0.018241,0.11334 -0.03125,0.1836 -0.013009,0.0676 -0.028662,0.14199 -0.046875,0.22265 -0.015611,0.0807 -0.031264,0.16414 -0.046875,0.25 -0.00494,0.0253 -0.00736,0.0475 -0.011719,0.0723 -0.00381,-0.001 -0.00811,-0.006 -0.011719,-0.006 -0.044232,0.11188 -0.087277,0.21623 -0.1289063,0.3125 -0.039028,0.0963 -0.078159,0.18106 -0.1171875,0.25391 -0.039028,0.0703 -0.076855,0.12636 -0.1132812,0.16796 -0.033824,0.039 -0.067738,0.0586 -0.1015625,0.0586 -0.028621,0 -0.050147,-0.009 -0.068359,-0.0274 -0.015611,-0.0208 -0.023437,-0.0573 -0.023437,-0.10937 0,-0.0807 0.014348,-0.17588 0.042969,-0.28516 0.028621,-0.11188 0.057973,-0.22666 0.091797,-0.34375 0.033824,-0.11708 0.065129,-0.23056 0.09375,-0.33984 0.028621,-0.11188 0.042969,-0.20971 0.042969,-0.29297 0,-0.0859 -0.02087,-0.1485 -0.0625,-0.1875 -0.039028,-0.0417 -0.082728,-0.0625 -0.1347657,-0.0625 -0.1092778,0 -0.20189,0.0496 -0.2773437,0.14844 -0.072852,0.0963 -0.1406803,0.21888 -0.203125,0.36719 0.020815,-0.11967 0.03125,-0.21098 0.03125,-0.27344 0,-0.0728 -0.014349,-0.13413 -0.042969,-0.1836 -0.026019,-0.0494 -0.069064,-0.0742 -0.1289063,-0.0742 z m 5.4804685,0.008 c -0.05984,0 -0.117235,0.0222 -0.171875,0.0664 -0.05204,0.0416 -0.101604,0.0977 -0.148437,0.16797 -0.04683,0.0703 -0.08988,0.15243 -0.128907,0.2461 -0.03903,0.0937 -0.07099,0.19149 -0.09961,0.29297 -0.0112,0.0437 -0.01807,0.0886 -0.02734,0.13281 -0.08875,0.23291 -0.171266,0.42447 -0.24414,0.55078 -0.07546,0.1353 -0.143285,0.20312 -0.203125,0.20312 -0.02082,0 -0.03777,-0.0118 -0.05078,-0.0351 -0.01301,-0.0234 -0.01953,-0.0651 -0.01953,-0.125 0,-0.0807 0.0065,-0.17457 0.01953,-0.28125 0.01561,-0.10668 0.03518,-0.22407 0.05859,-0.35156 0.02602,-0.12749 0.05341,-0.26185 0.08203,-0.40235 0.03123,-0.1431 0.06253,-0.2892 0.09375,-0.4375 h -0.203126 c -0.02081,0.0989 -0.0456,0.20975 -0.07422,0.33203 -0.02862,0.12229 -0.05471,0.24751 -0.07813,0.375 h -0.410157 l 0.132813,-0.70703 h -0.21875 c -0.01041,0.10408 -0.02867,0.23582 -0.05469,0.39453 -0.0228,0.13679 -0.04743,0.28096 -0.07422,0.42774 -0.0021,-2.6e-4 -0.0059,-0.002 -0.0078,-0.002 -0.09627,0.25759 -0.180406,0.45455 -0.255859,0.58985 -0.07286,0.13529 -0.139379,0.20312 -0.199219,0.20312 -0.02082,0 -0.03777,-0.0118 -0.05078,-0.0352 -0.01301,-0.0234 -0.01953,-0.0651 -0.01953,-0.125 0,-0.0833 0.0065,-0.17849 0.01953,-0.28516 0.01561,-0.10928 0.03517,-0.22928 0.05859,-0.35937 l 0.01953,-0.14063 h -0.195313 c 0.02081,-0.0859 0.03516,-0.16543 0.04297,-0.23828 0.0078,-0.0728 0.0091,-0.13413 0.0039,-0.18359 -0.01041,-0.11711 -0.04302,-0.19146 -0.097656,-0.22266 -0.052037,-0.0338 -0.1120393,-0.0469 -0.1796875,-0.0391 -0.083259,0.0104 -0.1576096,0.0378 -0.2226562,0.082 -0.062445,0.0442 -0.1159249,0.099 -0.1601563,0.16406 -0.04163,0.065 -0.071631,0.13548 -0.089844,0.21094 -0.018213,0.0754 -0.02343,0.1498 -0.015625,0.22265 0.010407,0.0702 0.035191,0.13414 0.074219,0.19141 0.039028,0.0546 0.093813,0.0951 0.1640625,0.12109 0.044232,0.0104 0.088581,0.0156 0.1328125,0.0156 0.046833,-0.003 0.095096,-0.0117 0.1445313,-0.0273 -0.1040742,0.26018 -0.2292962,0.45975 -0.375,0.59765 -0.059843,0.0546 -0.1081053,0.0781 -0.1445313,0.0703 -0.036426,-0.0104 -0.062514,-0.0352 -0.078125,-0.0742 -0.015611,-0.0391 -0.019524,-0.086 -0.011719,-0.14063 0.00781,-0.0547 0.027372,-0.10162 0.058594,-0.14062 H 9.0917969 c -0.028621,0.0468 -0.048186,0.10159 -0.058594,0.16406 -0.013009,0.0599 -0.013009,0.11727 0,0.17187 0.010407,0.0547 0.035191,0.099 0.074219,0.13282 0.039028,0.0338 0.096421,0.0455 0.171875,0.0351 0.067648,-0.0104 0.1341721,-0.0417 0.1992187,-0.0937 0.065046,-0.0546 0.1276574,-0.12246 0.1875,-0.20312 0.059843,-0.0833 0.1146272,-0.17457 0.1640625,-0.27344 0.052037,-0.10147 0.097691,-0.20452 0.1367188,-0.30859 0.0052,-0.005 0.01303,-0.0103 0.023437,-0.0156 -0.013009,0.0885 -0.024749,0.17455 -0.035156,0.25781 -0.00781,0.0833 -0.011719,0.16022 -0.011719,0.23047 0,0.11968 0.015653,0.21752 0.046875,0.29297 0.031222,0.0754 0.082094,0.11328 0.1523436,0.11328 0.06245,0 0.118536,-0.0222 0.167969,-0.0664 0.05204,-0.0468 0.100298,-0.11075 0.144531,-0.19141 0.04423,-0.0833 0.08663,-0.18109 0.13086,-0.29297 0.0023,-0.006 0.0055,-0.0136 0.0078,-0.0195 -0.01087,0.0555 -0.02263,0.11334 -0.0332,0.16797 -0.03382,0.15871 -0.06252,0.28981 -0.08594,0.39648 h 0.208985 l 0.179687,-0.9707 0.410157,0.004 c -0.02082,0.10928 -0.03777,0.21363 -0.05078,0.3125 -0.01041,0.0989 -0.01563,0.19017 -0.01563,0.27343 0,0.11969 0.01435,0.21752 0.04297,0.29297 0.03122,0.0755 0.08209,0.11328 0.152344,0.11328 0.06245,0 0.118535,-0.0222 0.167968,-0.0664 0.05204,-0.0468 0.101605,-0.11075 0.148438,-0.19141 0.04683,-0.0833 0.09248,-0.18109 0.136719,-0.29297 0.0021,-0.005 0.0057,-0.0121 0.0078,-0.0176 -0.0023,0.0366 -0.0098,0.0762 -0.0098,0.11133 0,0.1405 0.01957,0.25137 0.05859,0.33203 0.03903,0.0807 0.09838,0.1211 0.181641,0.1211 0.05204,0 0.100298,-0.0157 0.144531,-0.0469 0.04683,-0.0338 0.08988,-0.0768 0.128907,-0.1289 0.03903,-0.0546 0.07425,-0.11726 0.105468,-0.1875 0.03383,-0.0729 0.06513,-0.14851 0.09375,-0.22657 l -0.01953,0.1875 c 0,0.268 0.05348,0.40235 0.160156,0.40235 0.04163,0 0.08207,-0.017 0.121094,-0.0508 0.03903,-0.0338 0.08077,-0.0873 0.125,-0.16016 0.04683,-0.0755 0.0964,-0.17198 0.148437,-0.28906 0.05464,-0.11709 0.115946,-0.25796 0.183594,-0.42188 0,-0.005 -0.0091,-0.013 -0.02734,-0.0234 -0.01561,-0.0104 -0.02996,-0.0156 -0.04297,-0.0156 -0.09887,0.26279 -0.188874,0.46236 -0.269532,0.59766 -0.07805,0.13269 -0.13936,0.19921 -0.183593,0.19921 -0.03122,0 -0.04687,-0.0469 -0.04687,-0.14062 0,-0.0261 0.0013,-0.0547 0.0039,-0.0859 0.0026,-0.0338 0.0065,-0.0704 0.01172,-0.10937 0.02342,-0.18474 0.05472,-0.38692 0.09375,-0.60547 0.04163,-0.21856 0.08729,-0.44943 0.136719,-0.69141 h -0.175782 l -0.05469,0.27344 c -0.01041,-0.0884 -0.03389,-0.16018 -0.07031,-0.21484 -0.03643,-0.0573 -0.09382,-0.0859 -0.171875,-0.0859 z m 5.900391,0.10547 c 0.06245,0 0.106145,0.0378 0.134766,0.11328 0.03122,0.0754 0.04557,0.17197 0.04297,0.28906 0,0.11708 -0.01435,0.24622 -0.04297,0.38672 -0.02862,0.1379 -0.0658,0.27094 -0.115235,0.39844 -0.104077,0 -0.186254,-0.0287 -0.246094,-0.0859 -0.05984,-0.0598 -0.102886,-0.1342 -0.128906,-0.22266 -0.02601,-0.0885 -0.03645,-0.18368 -0.03125,-0.28515 0.0078,-0.10147 0.02737,-0.19669 0.05859,-0.28516 0.03382,-0.0884 0.07817,-0.16148 0.132812,-0.21875 0.05724,-0.0599 0.122461,-0.0898 0.195313,-0.0898 z m 2.5,0 c 0.06245,0 0.108099,0.0378 0.136719,0.11328 0.03122,0.0754 0.04557,0.17197 0.04297,0.28906 0,0.11708 -0.01435,0.24622 -0.04297,0.38672 -0.02862,0.1379 -0.06775,0.27094 -0.117188,0.39844 -0.104077,0 -0.186254,-0.0287 -0.246094,-0.0859 -0.05984,-0.0598 -0.102886,-0.1342 -0.128906,-0.22266 -0.02601,-0.0885 -0.03645,-0.18368 -0.03125,-0.28515 0.0078,-0.10147 0.02737,-0.19669 0.05859,-0.28516 0.03382,-0.0884 0.07817,-0.16148 0.132812,-0.21875 0.05724,-0.0599 0.122461,-0.0898 0.195313,-0.0898 z m 5.785156,0 c 0.06245,0 0.108099,0.0378 0.136719,0.11328 0.03122,0.0754 0.04557,0.17197 0.04297,0.28906 0,0.11708 -0.01435,0.24622 -0.04297,0.38672 -0.02862,0.1379 -0.06775,0.27094 -0.117188,0.39844 -0.104076,0 -0.186253,-0.0287 -0.246093,-0.0859 -0.05984,-0.0598 -0.102887,-0.1342 -0.128907,-0.22266 -0.02601,-0.0885 -0.03645,-0.18368 -0.03125,-0.28515 0.0078,-0.10147 0.02737,-0.19669 0.05859,-0.28516 0.03382,-0.0884 0.07817,-0.16148 0.132813,-0.21875 0.05724,-0.0599 0.12246,-0.0898 0.195312,-0.0898 z m 1.097656,0.0156 c 0.04684,0 0.08597,0.0157 0.117188,0.0469 0.03383,0.0286 0.06122,0.069 0.08203,0.12109 0.02081,0.052 0.03647,0.11335 0.04687,0.18359 0.01041,0.0677 0.01563,0.1407 0.01563,0.21875 0,0.0989 -0.0091,0.20192 -0.02734,0.3086 -0.01561,0.10667 -0.03779,0.20711 -0.06641,0.30078 -0.09107,-0.003 -0.169328,-0.0222 -0.234375,-0.0586 -0.06245,-0.0364 -0.113317,-0.0821 -0.152344,-0.13672 -0.03903,-0.0572 -0.06772,-0.12116 -0.08594,-0.19141 -0.01821,-0.0703 -0.02734,-0.14199 -0.02734,-0.21484 0,-0.0728 0.0078,-0.14329 0.02344,-0.21094 0.01561,-0.0702 0.03779,-0.13283 0.06641,-0.1875 0.03122,-0.0547 0.06644,-0.0977 0.105469,-0.12891 0.04163,-0.0338 0.08729,-0.0508 0.136718,-0.0508 z m -17.9687496,0.008 c 0.039027,-0.0104 0.072942,-0.003 0.1015625,0.0234 0.031222,0.0234 0.052093,0.073 0.0625,0.14844 0.013009,0.10407 -0.00264,0.24625 -0.046875,0.42578 -0.00781,0.0287 -0.015632,0.056 -0.023437,0.082 -0.0052,0.0234 -0.01303,0.0469 -0.023437,0.0703 -0.054639,0.0287 -0.1107281,0.0405 -0.1679688,0.0352 -0.059842,-0.005 -0.1041918,-0.0287 -0.1328125,-0.0703 -0.028621,-0.0416 -0.046882,-0.0925 -0.054687,-0.15235 -0.0052,-0.0624 1.37e-5,-0.12766 0.015625,-0.19531 0.015611,-0.0676 0.039091,-0.12893 0.070312,-0.18359 0.023417,-0.0417 0.053418,-0.0795 0.089844,-0.11328 0.036426,-0.0364 0.072949,-0.0599 0.109375,-0.0703 z m -4.2128906,0.0274 c 0.052037,0 0.091169,0.0287 0.1171874,0.0859 0.026019,0.0572 0.039063,0.13289 0.039063,0.22656 0,0.065 -0.00783,0.13939 -0.023438,0.22265 -0.013009,0.0833 -0.032575,0.16936 -0.058594,0.25782 -0.023417,0.0859 -0.052113,0.17064 -0.085937,0.2539 -0.031222,0.0833 -0.065137,0.15892 -0.1015625,0.22657 -0.033824,0.065 -0.070347,0.11849 -0.109375,0.16015 -0.039028,0.039 -0.073598,0.0586 -0.1074219,0.0586 -0.04163,0 -0.071631,-0.0248 -0.089844,-0.0742 -0.018213,-0.052 -0.027344,-0.11987 -0.027344,-0.20313 0,-0.10927 0.013044,-0.23319 0.039063,-0.37109 0.026019,-0.1405 0.059933,-0.27355 0.1015625,-0.39844 0.044231,-0.12489 0.090541,-0.23055 0.1425781,-0.31641 0.054639,-0.0859 0.1094239,-0.1289 0.1640626,-0.1289 z m 6.9062502,0 c 0.05204,0 0.09117,0.0287 0.117187,0.0859 0.02602,0.0572 0.03906,0.13289 0.03906,0.22656 0,0.065 -0.0078,0.13939 -0.02344,0.22265 -0.01301,0.0833 -0.03257,0.16936 -0.05859,0.25782 -0.02341,0.0859 -0.05211,0.17064 -0.08594,0.2539 -0.03122,0.0833 -0.06514,0.15892 -0.101563,0.22657 -0.03382,0.065 -0.07035,0.11849 -0.109374,0.16015 -0.03903,0.039 -0.07555,0.0586 -0.109376,0.0586 -0.04163,0 -0.07163,-0.0248 -0.08984,-0.0742 -0.01821,-0.052 -0.02734,-0.11987 -0.02734,-0.20313 0,-0.10927 0.01304,-0.23319 0.03906,-0.37109 0.02602,-0.1405 0.05993,-0.27355 0.101562,-0.39844 0.04424,-0.12489 0.0925,-0.23055 0.144531,-0.31641 0.05464,-0.0859 0.109423,-0.1289 0.164063,-0.1289 z m 7.02539,0 c 0.04424,0 0.07815,0.0313 0.101563,0.0937 0.02602,0.0624 0.03906,0.1394 0.03906,0.23047 0,0.10928 -0.01304,0.23189 -0.03906,0.36718 -0.02341,0.1327 -0.05602,0.25922 -0.09766,0.37891 -0.04163,0.11969 -0.0912,0.22013 -0.148438,0.30078 -0.05464,0.0807 -0.113334,0.1211 -0.175781,0.1211 -0.03383,0 -0.06122,-0.009 -0.08203,-0.0274 -0.02082,-0.0182 -0.03777,-0.0417 -0.05078,-0.0703 -0.01041,-0.0312 -0.01824,-0.0665 -0.02344,-0.10547 -0.0052,-0.0391 -0.0078,-0.0782 -0.0078,-0.11719 0,-0.0676 0.0078,-0.13939 0.02344,-0.21484 0.01561,-0.078 0.02996,-0.1511 0.04297,-0.21875 0.02601,-0.10667 0.05602,-0.20581 0.08984,-0.29688 0.03382,-0.091 0.06904,-0.1693 0.105469,-0.23437 0.03903,-0.0651 0.07685,-0.11594 0.113281,-0.15234 0.03642,-0.0364 0.07295,-0.0547 0.109375,-0.0547 z m 9.539063,0 c 0.05204,0 0.09117,0.0287 0.117187,0.0859 0.02602,0.0572 0.03906,0.13289 0.03906,0.22656 0,0.065 -0.0078,0.13939 -0.02344,0.22265 -0.01301,0.0833 -0.03257,0.16936 -0.05859,0.25782 -0.02341,0.0859 -0.05211,0.17064 -0.08594,0.2539 -0.03122,0.0833 -0.06514,0.15892 -0.101562,0.22657 -0.03383,0.065 -0.07035,0.11849 -0.109375,0.16015 -0.03903,0.039 -0.07555,0.0586 -0.109375,0.0586 -0.04163,0 -0.07163,-0.0248 -0.08984,-0.0742 -0.01821,-0.052 -0.02734,-0.11987 -0.02734,-0.20313 0,-0.10927 0.01304,-0.23319 0.03906,-0.37109 0.02602,-0.1405 0.05993,-0.27355 0.101562,-0.39844 0.04423,-0.12489 0.09249,-0.23055 0.144531,-0.31641 0.05464,-0.0859 0.109423,-0.1289 0.164063,-0.1289 z m -20.2539064,0.52344 c 0.01821,0.003 0.02995,0.017 0.035156,0.043 0.00781,0.0235 0.010412,0.0548 0.00781,0.0937 -0.0026,0.0365 -0.010428,0.0795 -0.023437,0.12891 -0.010408,0.0494 -0.024756,0.10028 -0.042969,0.15234 -0.046833,-0.026 -0.078139,-0.0626 -0.09375,-0.10937 -0.015614,-0.0495 -0.020832,-0.0977 -0.015625,-0.14453 0.0052,-0.0469 0.019552,-0.0873 0.042969,-0.1211 0.026019,-0.0339 0.05602,-0.0483 0.089844,-0.043 z m 9.0781254,0.0898 c 0.0026,0.0781 0.01304,0.15371 0.03125,0.22656 0.01821,0.0728 0.04691,0.13935 0.08594,0.19922 0.03903,0.0573 0.0886,0.10423 0.148438,0.14063 0.05984,0.0364 0.131584,0.0586 0.214843,0.0664 -0.03643,0.091 -0.08208,0.1667 -0.136718,0.22656 -0.05204,0.0599 -0.109429,0.0899 -0.171875,0.0899 -0.07805,0 -0.134142,-0.0339 -0.167969,-0.10156 -0.03122,-0.0677 -0.05079,-0.15113 -0.05859,-0.25 -0.0052,-0.0989 -0.0013,-0.20192 0.01172,-0.3086 0.01301,-0.10928 0.02736,-0.2058 0.04297,-0.28906 z m 2.5,0 c 0.0026,0.0781 0.01304,0.15371 0.03125,0.22656 0.01821,0.0728 0.04691,0.13935 0.08594,0.19922 0.03903,0.0573 0.0886,0.10423 0.148438,0.14063 0.05984,0.0364 0.131584,0.0586 0.214843,0.0664 -0.03642,0.091 -0.08208,0.1667 -0.136718,0.22656 -0.05204,0.0599 -0.109429,0.0899 -0.171875,0.0899 -0.07805,0 -0.134142,-0.0339 -0.167969,-0.10156 -0.03122,-0.0677 -0.05079,-0.15113 -0.05859,-0.25 -0.0052,-0.0989 -0.0013,-0.20192 0.01172,-0.3086 0.01301,-0.10928 0.02736,-0.2058 0.04297,-0.28906 z m 5.785156,0 c 0.0026,0.0781 0.01304,0.15371 0.03125,0.22656 0.01821,0.0728 0.04691,0.13935 0.08594,0.19922 0.03903,0.0573 0.0886,0.10423 0.148438,0.14063 0.05984,0.0364 0.131584,0.0586 0.214844,0.0664 -0.03642,0.091 -0.08208,0.1667 -0.136719,0.22656 -0.05204,0.0599 -0.109428,0.0899 -0.171875,0.0899 -0.07805,0 -0.134142,-0.0339 -0.167969,-0.10156 -0.03122,-0.0677 -0.05079,-0.15113 -0.05859,-0.25 -0.0052,-0.0989 -0.0013,-0.20192 0.01172,-0.3086 0.01301,-0.10928 0.02736,-0.2058 0.04297,-0.28906 z m 1.234375,0.23828 c 0.03643,0.10408 0.09512,0.19278 0.175781,0.26563 0.08066,0.0729 0.187618,0.1159 0.320313,0.1289 -0.03642,0.0936 -0.08077,0.1706 -0.132813,0.23047 -0.05204,0.0573 -0.109428,0.0859 -0.171875,0.0859 -0.07025,0 -0.121124,-0.0483 -0.152344,-0.14453 -0.03122,-0.0963 -0.04687,-0.2228 -0.04687,-0.37891 v -0.0898 c 0.0026,-0.0313 0.0052,-0.0639 0.0078,-0.0977 z" />
      </g>
    </g>
  </g>
</svg>
