<?xml version="1.0" encoding="iso-8859-1"?>
<!-- Generator: Adobe Illustrator 19.0.0, SVG Export Plug-In . SVG Version: 6.00 Build 0)  -->
<svg xmlns="http://www.w3.org/2000/svg" xmlns:xlink="http://www.w3.org/1999/xlink" version="1.1" id="Capa_1" x="0px" y="0px" viewBox="0 0 411.508 411.508" style="enable-background:new 0 0 411.508 411.508;" xml:space="preserve" width="512px" height="512px">
<path id="XMLID_691_" d="M410.438,225.699l-36.968-73.338c-1.7-3.372-5.153-5.499-8.93-5.499h-49.067  c-3.8,0-7.271,2.153-8.959,5.557l-3.173,6.398l-3.184-6.406c-1.689-3.4-5.158-5.55-8.955-5.55h-49.065  c-3.8,0-7.271,2.153-8.959,5.557l-3.174,6.399l-3.184-6.407c-1.689-3.4-5.158-5.55-8.955-5.55h-49.066  c-3.8,0-7.271,2.153-8.959,5.557l-3.173,6.399l-3.184-6.405c-1.689-3.4-5.158-5.55-8.955-5.55H95.462  c-3.8,0-7.271,2.153-8.959,5.557l-3.174,6.399l-3.184-6.407c-1.689-3.4-5.158-5.55-8.955-5.55H22.125  c-3.799,0-7.271,2.153-8.959,5.557L1.041,176.864c-1.398,2.82-1.388,6.134,0.029,8.944l36.968,73.338  c1.7,3.372,5.153,5.499,8.93,5.499h49.066c3.779,0,7.235-2.13,8.934-5.506l3.198-6.359l3.209,6.366  c1.699,3.372,5.153,5.499,8.93,5.499h49.066c3.778,0,7.234-2.13,8.933-5.505l3.2-6.359l3.209,6.366  c1.699,3.372,5.153,5.499,8.93,5.499h49.067c3.8,0,7.271-2.153,8.959-5.557l3.149-6.352l3.231,6.41  c1.699,3.372,5.153,5.499,8.93,5.499h49.065c3.8,0,7.271-2.153,8.959-5.557l3.15-6.354l3.232,6.412  c1.699,3.372,5.153,5.499,8.93,5.499h49.066c3.799,0,7.271-2.153,8.959-5.557l12.125-24.445  C411.865,231.824,411.855,228.51,410.438,225.699z M89.87,244.646H53.126l-31.945-63.374l7.146-14.409h36.666l31.968,63.688  L89.87,244.646z M163.208,244.646h-36.745L94.52,181.272l7.146-14.409h36.666l31.969,63.69L163.208,244.646z M236.507,244.646  h-36.706l-31.945-63.374l7.146-14.409h36.667l31.898,63.549L236.507,244.646z M309.842,244.646h-36.704l-31.943-63.374l7.146-14.409  h36.665l31.896,63.548L309.842,244.646z M383.181,244.646h-36.706l-31.944-63.375l7.146-14.409h36.706l31.945,63.374  L383.181,244.646z" fill="#000000"/>
<g>
</g>
<g>
</g>
<g>
</g>
<g>
</g>
<g>
</g>
<g>
</g>
<g>
</g>
<g>
</g>
<g>
</g>
<g>
</g>
<g>
</g>
<g>
</g>
<g>
</g>
<g>
</g>
<g>
</g>
</svg>
