<?xml version="1.0" encoding="UTF-8"?>
<svg width="512px" height="512px" enable-background="new 0 0 411.508 411.508" version="1.1" viewBox="0 0 411.508 411.508" xml:space="preserve" xmlns="http://www.w3.org/2000/svg">
<path d="m410.44 225.7l-36.968-73.338c-1.7-3.372-5.153-5.499-8.93-5.499h-49.067c-3.8 0-7.271 2.153-8.959 5.557l-3.173 6.398-3.184-6.406c-1.689-3.4-5.158-5.55-8.955-5.55h-49.065c-3.8 0-7.271 2.153-8.959 5.557l-3.174 6.399-3.184-6.407c-1.689-3.4-5.158-5.55-8.955-5.55h-49.066c-3.8 0-7.271 2.153-8.959 5.557l-3.173 6.399-3.184-6.405c-1.689-3.4-5.158-5.55-8.955-5.55h-49.066c-3.8 0-7.271 2.153-8.959 5.557l-3.174 6.399-3.184-6.407c-1.689-3.4-5.158-5.55-8.955-5.55h-49.065c-3.799 0-7.271 2.153-8.959 5.557l-12.125 24.447c-1.398 2.82-1.388 6.134 0.029 8.944l36.968 73.338c1.7 3.372 5.153 5.499 8.93 5.499h49.066c3.779 0 7.235-2.13 8.934-5.506l3.198-6.359 3.209 6.366c1.699 3.372 5.153 5.499 8.93 5.499h49.066c3.778 0 7.234-2.13 8.933-5.505l3.2-6.359 3.209 6.366c1.699 3.372 5.153 5.499 8.93 5.499h49.067c3.8 0 7.271-2.153 8.959-5.557l3.149-6.352 3.231 6.41c1.699 3.372 5.153 5.499 8.93 5.499h49.065c3.8 0 7.271-2.153 8.959-5.557l3.15-6.354 3.232 6.412c1.699 3.372 5.153 5.499 8.93 5.499h49.066c3.799 0 7.271-2.153 8.959-5.557l12.125-24.445c1.4-2.82 1.39-6.134-0.027-8.945zm-320.57 18.947h-36.744l-31.945-63.374 7.146-14.409h36.666l31.968 63.688-7.091 14.095zm73.338 0h-36.745l-31.943-63.374 7.146-14.409h36.666l31.969 63.69-7.093 14.093zm73.299 0h-36.706l-31.945-63.374 7.146-14.409h36.667l31.898 63.549-7.06 14.234zm73.335 0h-36.704l-31.943-63.374 7.146-14.409h36.665l31.896 63.548-7.06 14.235zm73.339 0h-36.706l-31.944-63.375 7.146-14.409h36.706l31.945 63.374-7.147 14.41z"/>
</svg>
