<?xml version="1.0" encoding="UTF-8"?>
<svg viewBox="0 -56 512 512" xmlns="http://www.w3.org/2000/svg">
<path d="m10 130h492v220h-492z" fill="#2bbdc4"/>
<path d="m482 50h-20v-20c0-11.051-8.9492-20-20-20h-20c-11.051 0-20 8.9492-20 20v20h-252v-20c0-11.051-8.9492-20-20-20h-60c-11.051 0-20 8.9492-20 20v20h-20c-11.051 0-20 8.9492-20 20v60h492v-60c0-11.051-8.9492-20-20-20z" fill="#495d85"/>
<path d="m90 110c11.051 0 20 8.94a92 20 20s-8.9492 20-20 20-20-8.9492-20-20 8.9492-20 20-20z" fill="#ffd86e"/>
<path d="m256 150c44.109 0 80 35.891 80 80s-35.891 80-80 80-80-35.891-80-80 35.891-80 80-80z" fill="#adf3ff"/>
<path d="m376 230c0 66.172-53.828 120-120 120s-120-53.828-120-120c0-66.379 54.062-120 120-120 65.863 0 120 53.547 120 120zm-40 0c0-44.109-35.891-80-80-80s-80 35.891-80 80 35.891 80 80 80 80-35.891 80-80z" fill="#e9eef0"/>
<path d="m502 350v20c0 11.051-8.9492 20-20 20h-452c-11.051 0-20-8.9492-20-20v-20z" fill="#495d85"/>
<path d="m354.93 82.93c-3.9102 3.8984-3.9102 10.242 0 14.141 3.8984 3.9102 10.242 3.9102 14.141 0 3.9102-3.8984 3.9102-10.242 0-14.141-3.8984-3.9102-10.242-3.9102-14.141 0z"/>
<path d="m482 40h-10v-10c0-16.543-13.457-30-30-30h-20c-16.543 0-30 13.457-30 30v10h-232v-10c0-16.543-13.457-30-30-30h-60c-16.543 0-30 13.457-30 30v10h-10c-16.543 0-30 13.457-30 30v300c0 16.543 13.457 30 30 30h452c16.543 0 30-13.457 30-30v-300c0-16.543-13.457-30-30-30zm-70-10c0-5.5156 4.4844-10 10-10h20c5.5156 0 10 4.4844 10 10v10h-40zm-352 0c0-5.5156 4.4844-10 10-10h60c5.5156 0 10 4.4844 10 10v10h-80zm-40 110h41.719c4.1289 11.641 15.246 20 28.281 20s24.152-8.3711 28.281-20.012h43.973c-23.055 23.965-36.254 56.043-36.254 90.012 0 46.266 24.297 86.953 60.797 110h-166.8zm60-10c0-5.5156 4.4844-10 10-10s10 4.4844 10 10-4.4844 10-10 10-10-4.4844-10-10zm176-10c60.652 0 110 49.363 110 110 0 60.652-49.348 110-110 110s-110-49.348-110-110c0-60.711 49.426-110 110-110zm236 250c0 5.5156-4.4844 10-10 10h-452c-5.5156 0-10-4.4844-10-10v-10h472zm0-30h-166.8c36.5-23.047 60.797-63.734 60.797-110 0-33.969-13.199-66.039-36.25-90h142.25zm0-220h-166.84c-20.723-13.082-44.562-20-69.164-20-24.605 0-48.445 6.918-69.164 20h-68.555c-4.1289-11.641-15.246-20-28.281-20s-24.152 8.3594-28.281 20h-41.719v-50c0-5.5156 4.4844-10 10-10h452c5.5156 0 10 4.4844 10 10z"/>
<path d="m256 320c49.625 0 90-40.375 90-90s-40.375-90-90-90-90 40.375-90 90 40.375 90 90 90zm0-160c38.598 0 70 31.402 70 70s-31.402 70-70 70-70-31.402-70-70 31.402-70 70-70z"/>
<path d="m256 200c16.543 0 30 13.457 30 30 0 5.5234 4.4766 10 10 10s10-4.4766 10-10c0-27.57-22.43-50-50-50-5.5234 0-10 4.4766-10 10s4.4766 10 10 10z"/>
<path d="m442 80h-40c-5.5234 0-10 4.4766-10 10s4.4766 10 10 10h40c5.5234 0 10-4.4766 10-10s-4.4766-10-10-10z"/>
</svg>
