<?xml version="1.0" encoding="iso-8859-1"?>
<!-- Generator: Adobe Illustrator 19.0.0, SVG Export Plug-In . SVG Version: 6.00 Build 0)  -->
<svg version="1.1" id="Capa_1" xmlns="http://www.w3.org/2000/svg" xmlns:xlink="http://www.w3.org/1999/xlink" x="0px" y="0px"
	 viewBox="0 0 462.572 462.572" style="enable-background:new 0 0 462.572 462.572;" xml:space="preserve">
<path style="fill:#FB7B76;" d="M449.031,110.036l-3.2,41.336c-1.335,17.356-16.299,30.461-33.68,29.496l-112.72-6.296l-8,56l-32-56
	h-128c-17.673,0-32-14.327-32-32v-60.96c0.016-17.673,14.356-31.987,32.029-31.971c0.957,0.001,1.914,0.045,2.867,0.131
	L419.999,75.74C437.425,77.312,450.357,92.589,449.031,110.036z"/>
<g>
	<circle style="fill:#FFD949;" cx="85.559" cy="278.572" r="48"/>
	<path style="fill:#FFD949;" d="M153.559,462.572h-136l-4-68.24c-2.077-35.285,24.844-65.573,60.129-67.649
		c1.246-0.073,2.494-0.11,3.743-0.111h16.248c35.346-0.004,64.003,28.647,64.007,63.993c0,1.256-0.037,2.512-0.111,3.767
		L153.559,462.572z"/>
</g>
<g>
	<circle style="fill:#24AE5F;" cx="357.591" cy="278.572" r="48"/>
	<path style="fill:#24AE5F;" d="M425.559,462.572h-136l-4-68.24c-2.077-35.285,24.844-65.573,60.129-67.649
		c1.246-0.073,2.494-0.11,3.743-0.111h16.248c35.346-0.004,64.003,28.647,64.007,63.993c0,1.256-0.037,2.512-0.111,3.767
		L425.559,462.572z"/>
</g>
<path style="fill:#97D7D9;" d="M76.735,13.636l251.768-13.6c13.236-0.715,24.545,9.435,25.259,22.671
	c0.05,0.928,0.046,1.858-0.011,2.785l-4.8,77.288c-0.82,13.168-12.115,23.206-25.288,22.472l-120.232-6.68l-56,104l8-112
	l-90.72-6.048c-13.226-0.88-23.233-12.315-22.353-25.541c0.106-1.597,0.372-3.179,0.793-4.723l11.72-42.976
	C57.594,21.304,66.406,14.191,76.735,13.636L76.735,13.636z"/>
<g>
</g>
<g>
</g>
<g>
</g>
<g>
</g>
<g>
</g>
<g>
</g>
<g>
</g>
<g>
</g>
<g>
</g>
<g>
</g>
<g>
</g>
<g>
</g>
<g>
</g>
<g>
</g>
<g>
</g>
</svg>
