<?xml version="1.0" encoding="UTF-8"?>
<svg enable-background="new 0 0 478.579 478.579" version="1.1" viewBox="0 0 478.579 478.579" xml:space="preserve" xmlns="http://www.w3.org/2000/svg">
<path d="m458.04 118.04l-3.2 41.336c-1.335 17.356-16.299 30.461-33.68 29.496l-112.72-6.296-8 56-32-56h-128c-17.673 0-32-14.327-32-32v-60.96c0.016-17.673 14.356-31.987 32.029-31.971 0.957 1e-3 1.914 0.045 2.867 0.131l285.67 25.968c17.426 1.572 30.358 16.849 29.032 34.296z" fill="#FB7B76"/>
<g fill="#FFD949">
	<circle cx="94.566" cy="286.58" r="48"/>
	<path d="m162.57 470.58h-136l-4-68.24c-2.077-35.285 24.844-65.573 60.129-67.649 1.246-0.073 2.494-0.11 3.743-0.111h16.248c35.346-4e-3 64.003 28.647 64.007 63.993 0 1.256-0.037 2.512-0.111 3.767l-4.016 68.24z"/>
</g>
<g fill="#24AE5F">
	<circle cx="366.6" cy="286.58" r="48"/>
	<path d="m434.57 470.58h-136l-4-68.24c-2.077-35.285 24.844-65.573 60.129-67.649 1.246-0.073 2.494-0.11 3.743-0.111h16.248c35.346-4e-3 64.003 28.647 64.007 63.993 0 1.256-0.037 2.512-0.111 3.767l-4.016 68.24z"/>
</g>
<path d="m85.742 21.643l251.77-13.6c13.236-0.715 24.545 9.435 25.259 22.671 0.05 0.928 0.046 1.858-0.011 2.785l-4.8 77.288c-0.82 13.168-12.115 23.206-25.288 22.472l-120.23-6.68-56 104 8-112-90.72-6.048c-13.226-0.88-23.233-12.315-22.353-25.541 0.106-1.597 0.372-3.179 0.793-4.723l11.72-42.976c2.723-9.98 11.534-17.093 21.864-17.648z" fill="#97D7D9"/>
<path d="m12.566 402.8l4 68.248c0.25 4.233 3.76 7.535 8 7.528h136c4.24 7e-3 7.75-3.295 8-7.528l4-68.248c1.761-30.384-15.737-58.605-43.736-70.536 25.273-17.827 31.31-52.766 13.483-78.04s-52.766-31.31-78.04-13.483c-25.273 17.826-31.31 52.766-13.483 78.039 3.052 4.326 6.701 8.198 10.84 11.499-30.866 10.306-50.982 40.035-49.072 72.52l8e-3 1e-3zm44-116.22c0-22.091 17.909-40 40-40s40 17.909 40 40-17.909 40-40 40c-22.081-0.027-39.974-17.92-40-40zm27.872 56h16.248c30.928-5e-3 56.004 25.063 56.009 55.991 0 1.1-0.032 2.199-0.097 3.297l-3.576 60.712h-120.92l-3.568-60.712c-1.816-30.875 21.741-57.375 52.615-59.191 1.095-0.065 2.192-0.097 3.289-0.097z"/>
<path d="m284.57 402.8l4 68.248c0.25 4.233 3.76 7.535 8 7.528h136c4.24 7e-3 7.75-3.295 8-7.528l4-68.248c1.761-30.384-15.737-58.605-43.736-70.536 25.273-17.827 31.31-52.766 13.483-78.04-17.827-25.273-52.766-31.31-78.04-13.483-25.273 17.827-31.31 52.766-13.483 78.04 3.052 4.326 6.701 8.198 10.84 11.499-30.866 10.306-50.982 40.035-49.072 72.52h8e-3zm44-116.22c0-22.091 17.909-40 40-40s40 17.909 40 40-17.909 40-40 40c-22.081-0.027-39.974-17.92-40-40zm27.872 56h16.248c30.928-5e-3 56.004 25.063 56.009 55.991 0 1.1-0.032 2.199-0.097 3.297l-3.576 60.712h-120.92l-3.568-60.712c-1.816-30.875 21.741-57.375 52.615-59.191 1.095-0.065 2.192-0.097 3.289-0.097z"/>
<path d="m85.302 13.659c-13.772 0.745-25.516 10.23-29.144 23.536l-11.72 42.984c-4.656 17.049 5.39 34.644 22.439 39.3 2.061 0.563 4.173 0.918 6.305 1.06l27.256 1.792v28.248c0.026 22.08 17.92 39.974 40 40h10.84l-2.84 39.432c-0.266 3.761 2.13 7.198 5.752 8.248 3.621 1.051 7.484-0.569 9.272-3.888l23.6-43.792h76.728l29.704 52c2.193 3.836 7.08 5.168 10.915 2.975 2.141-1.224 3.598-3.366 3.949-5.807l6.96-48.736 105.4 5.848c21.705 1.109 40.362-15.234 42.12-36.896l3.2-41.296c1.59-21.783-14.513-40.847-36.256-42.92l-61.256-5.6 2.264-36.192c0.562-9.116-2.79-18.038-9.216-24.528-6.476-6.444-15.372-9.852-24.496-9.384l-251.78 13.6v0.016zm55.136 160.92c-13.255 0-24-10.745-24-24v-27.2l39.448 2.632-3.448 48.568h-12zm225.47-63.288l1.6-25.128 60.8 5.528c13.046 1.232 22.715 12.667 21.76 25.736l-3.2 41.304c-1.043 12.995-12.236 22.802-25.256 22.128l-112.73-6.28c-4.136-0.21-7.756 2.752-8.368 6.848l-4.704 32.928-20.432-35.776c-1.432-2.48-4.08-4.006-6.944-4h-72.76l21.392-39.728 115.13 6.4c17.552 0.948 32.592-12.418 33.712-29.96zm-28-95.264c4.573-0.327 9.054 1.4 12.224 4.712 3.245 3.216 4.938 7.681 4.64 12.24l-4.8 77.296c-0.604 8.75-8.095 15.41-16.856 14.984l-120.23-6.68c-3.106-0.21-6.043 1.434-7.488 4.192l-38.32 71.2 5.36-74.824c0.323-4.406-2.988-8.24-7.395-8.563-0.026-2e-3 -0.052-4e-3 -0.077-5e-3l-90.72-6.048c-8.818-0.572-15.502-8.185-14.93-17.003 0.07-1.073 0.247-2.136 0.53-3.173l11.792-42.952c1.814-6.654 7.689-11.397 14.576-11.768l251.7-13.608z"/>
</svg>
