<?xml version="1.0" encoding="UTF-8"?>
<svg enable-background="new 0 0 480 480" version="1.1" viewBox="0 0 480 480" xml:space="preserve" xmlns="http://www.w3.org/2000/svg">
<path d="m216 252c-152 0-208-40-208-40v197c0 10.493 8.507 19 19 19h426c10.493 0 19-8.507 19-19v-197s-56 40-208 40h-48z" fill="#29485A"/>
<path d="m453 116h-426c-10.493 0-19 8.507-19 19v93s56 40 208 40h48c152 0 208-40 208-40v-93c0-10.493-8.507-19-19-19z" fill="#1E3642"/>
<path d="m453 100h-426c-10.493 0-19 8.507-19 19v93s56 40 208 40h48c152 0 208-40 208-40v-93c0-10.493-8.507-19-19-19z" fill="#40718C"/>
<path d="m216 212h48v72h-48v-72z" fill="#CDA349"/>
<path d="m27 436h426c14.904-0.018 26.982-12.096 27-27v-290c-0.018-14.904-12.096-26.982-27-27h-141v-26c-9e-3 -12.147-9.853-21.991-22-22h-100c-12.147 9e-3 -21.991 9.853-22 22v26h-141c-14.904 0.018-26.982 12.096-27 27v290c0.018 14.904 12.096 26.982 27 27zm426-16h-426c-6.071-9e-3 -10.991-4.929-11-11v-183.34c23.688 11.616 82.448 33.248 192 34.272v24.064c0 4.418 3.582 8 8 8h48c4.418 0 8-3.582 8-8v-24.064c109.55-1.024 168.31-22.656 192-34.272v183.34c-9e-3 6.071-4.929 10.991-11 11zm-197-144h-32v-56h32v56zm-72-210c4e-3 -3.312 2.688-5.996 6-6h100c3.312 4e-3 5.996 2.688 6 6v26h-112v-26zm-157 42h426c6.071 9e-3 10.991 4.929 11 11v88.52c-13.68 7.776-70.552 35.2-192 36.416v-31.936c0-4.418-3.582-8-8-8h-48c-4.418 0-8 3.582-8 8v31.936c-121.43-1.176-178.31-28.624-192-36.416v-88.52c9e-3 -6.071 4.929-10.991 11-11z"/>
</svg>
