<?xml version="1.0" encoding="iso-8859-1"?>
<!-- Generator: Adobe Illustrator 19.0.0, SVG Export Plug-In . SVG Version: 6.00 Build 0)  -->
<svg version="1.1" id="Capa_1" xmlns="http://www.w3.org/2000/svg" xmlns:xlink="http://www.w3.org/1999/xlink" x="0px" y="0px"
	 viewBox="0 0 512 512" style="enable-background:new 0 0 512 512;" xml:space="preserve">
<path style="fill:#603813;" d="M326.621,114.759c-4.873,0-8.828-3.955-8.828-8.828V68.414c-0.009-3.655-2.966-6.612-6.621-6.621
	H200.828c-3.655,0.009-6.612,2.966-6.621,6.621v37.517c0,4.873-3.955,8.828-8.828,8.828c-4.873,0-8.828-3.955-8.828-8.828V68.414
	c0.009-13.4,10.876-24.267,24.276-24.276h110.345c13.4,0.009,24.267,10.876,24.276,24.276v37.517
	C335.448,110.804,331.493,114.759,326.621,114.759z"/>
<path style="fill:#29485A;" d="M229.517,273.655C61.793,273.655,0,229.517,0,229.517v217.379c0,11.582,9.384,20.966,20.966,20.966
	h470.069c11.582,0,20.966-9.384,20.966-20.966V229.517c0,0-61.793,44.138-229.517,44.138H229.517z"/>
<path style="fill:#1E3642;" d="M491.034,123.586H20.966C9.384,123.586,0,132.97,0,144.552v102.621c0,0,61.793,44.138,229.517,44.138
	h52.966C450.207,291.31,512,247.172,512,247.172V144.552C512,132.97,502.616,123.586,491.034,123.586z"/>
<path style="fill:#40718C;" d="M491.034,105.931H20.966C9.384,105.931,0,115.315,0,126.897v102.621
	c0,0,61.793,44.138,229.517,44.138h52.966c167.724,0,229.517-44.138,229.517-44.138V126.897
	C512,115.315,502.616,105.931,491.034,105.931z"/>
<path style="fill:#CDA349;" d="M229.517,229.517h52.966v79.448h-52.966V229.517z"/>
<g>
</g>
<g>
</g>
<g>
</g>
<g>
</g>
<g>
</g>
<g>
</g>
<g>
</g>
<g>
</g>
<g>
</g>
<g>
</g>
<g>
</g>
<g>
</g>
<g>
</g>
<g>
</g>
<g>
</g>
</svg>
