<?xml version="1.0" encoding="iso-8859-1"?>
<!-- Generator: Adobe Illustrator 19.0.0, SVG Export Plug-In . SVG Version: 6.00 Build 0)  -->
<svg version="1.1" id="Capa_1" xmlns="http://www.w3.org/2000/svg" xmlns:xlink="http://www.w3.org/1999/xlink" x="0px" y="0px"
	 viewBox="0 0 480 480" style="enable-background:new 0 0 480 480;" xml:space="preserve">
<path style="fill:#E6E6E6;" d="M272,368H8V8h464v360h-32H272z"/>
<path style="fill:#CCCCCC;" d="M240,8h232v360H240V8z"/>
<path style="fill:#333333;" d="M432,216l-16-32l-16,32c8.834,8.837,23.159,8.839,31.995,0.005
	C431.997,216.003,431.998,216.002,432,216z"/>
<path style="fill:#CCCCCC;" d="M392,424h48v48h-48V424z"/>
<path style="fill:#EFC7B0;" d="M432,216c-8.834,8.837-23.159,8.839-31.995,0.005c-0.002-0.002-0.003-0.003-0.005-0.005
	l-7.872,15.752h47.744L432,216z"/>
<path style="fill:#29ABE2;" d="M392.128,231.752L392,232v192h48V232l-0.128-0.248H392.128z"/>
<path style="fill:#C1272D;" d="M272,8v432l32-40l32,40V8"/>
<path d="M472,0H8C3.582,0,0,3.582,0,8v360c0,4.418,3.582,8,8,8h256v64c-0.002,4.418,3.578,8.002,7.996,8.004
	c2.432,0.001,4.733-1.104,6.252-3.004L304,412.8l25.752,32.192c2.759,3.451,7.794,4.011,11.244,1.252
	c1.897-1.517,3.002-3.814,3.004-6.244v-48h40v80c0,4.418,3.582,8,8,8h48c4.418,0,8-3.582,8-8v-96h24c4.418,0,8-3.582,8-8V8
	C480,3.582,476.418,0,472,0z M16,16h216v344H16V16z M248,360V16h16v344H248z M328,417.192L310.248,395
	c-2.994-3.451-8.218-3.821-11.669-0.827c-0.295,0.256-0.571,0.532-0.827,0.827L280,417.192V16h48L328,417.192z M400,233.888
	l3.112-6.224c8.144,3.926,17.632,3.926,25.776,0l3.112,6.224V416h-32V233.888z M410.24,213.416l5.76-11.528l5.76,11.528
	C418.082,214.992,413.918,214.992,410.24,213.416L410.24,213.416z M400,464v-32h32v32H400z M464,360h-16V232
	c0.014-1.238-0.26-2.462-0.8-3.576l-24-48c-2.358-3.954-7.475-5.249-11.429-2.891c-1.189,0.709-2.182,1.702-2.891,2.891l-24,48
	c-0.567,1.107-0.869,2.332-0.88,3.576v144h-40V176h40c4.418,0,8-3.582,8-8s-3.582-8-8-8h-40v-16h96c4.418,0,8-3.582,8-8
	s-3.582-8-8-8h-96v-16h96c4.418,0,8-3.582,8-8s-3.582-8-8-8h-96V80h96c4.418,0,8-3.582,8-8s-3.582-8-8-8h-96V16h120V360z"/>
<path d="M40,48h40c4.418,0,8-3.582,8-8s-3.582-8-8-8H40c-4.418,0-8,3.582-8,8S35.582,48,40,48z"/>
<path d="M40,80h168c4.418,0,8-3.582,8-8s-3.582-8-8-8H40c-4.418,0-8,3.582-8,8S35.582,80,40,80z"/>
<path d="M208,96H40c-4.418,0-8,3.582-8,8s3.582,8,8,8h168c4.418,0,8-3.582,8-8S212.418,96,208,96z"/>
<path d="M208,128H40c-4.418,0-8,3.582-8,8s3.582,8,8,8h168c4.418,0,8-3.582,8-8S212.418,128,208,128z"/>
<path d="M208,160H40c-4.418,0-8,3.582-8,8s3.582,8,8,8h168c4.418,0,8-3.582,8-8S212.418,160,208,160z"/>
<path d="M208,192H40c-4.418,0-8,3.582-8,8s3.582,8,8,8h168c4.418,0,8-3.582,8-8S212.418,192,208,192z"/>
<path d="M208,224H40c-4.418,0-8,3.582-8,8s3.582,8,8,8h168c4.418,0,8-3.582,8-8S212.418,224,208,224z"/>
<path d="M208,256H40c-4.418,0-8,3.582-8,8s3.582,8,8,8h168c4.418,0,8-3.582,8-8S212.418,256,208,256z"/>
<path d="M168,288H40c-4.418,0-8,3.582-8,8s3.582,8,8,8h128c4.418,0,8-3.582,8-8S172.418,288,168,288z"/>
<g>
</g>
<g>
</g>
<g>
</g>
<g>
</g>
<g>
</g>
<g>
</g>
<g>
</g>
<g>
</g>
<g>
</g>
<g>
</g>
<g>
</g>
<g>
</g>
<g>
</g>
<g>
</g>
<g>
</g>
</svg>
