<svg viewBox="0 -56 512 512" xmlns="http://www.w3.org/2000/svg"><path d="m10 130h492v220h-492zm0 0" fill="#2bbdc4"/><path d="m482 50h-20v-20c0-11.050781-8.949219-20-20-20h-20c-11.050781 0-20 8.949219-20 20v20h-252v-20c0-11.050781-8.949219-20-20-20h-60c-11.050781 0-20 8.949219-20 20v20h-20c-11.050781 0-20 8.949219-20 20v60h492v-60c0-11.050781-8.949219-20-20-20zm0 0" fill="#495d85"/><path d="m90 110c11.050781 0 20 8.949219 20 20s-8.949219 20-20 20-20-8.949219-20-20 8.949219-20 20-20zm0 0" fill="#ffd86e"/><path d="m256 150c44.109375 0 80 35.890625 80 80s-35.890625 80-80 80-80-35.890625-80-80 35.890625-80 80-80zm0 0" fill="#adf3ff"/><path d="m376 230c0 66.171875-53.828125 120-120 120s-120-53.828125-120-120c0-66.378906 54.0625-120 120-120 65.863281 0 120 53.546875 120 120zm-40 0c0-44.109375-35.890625-80-80-80s-80 35.890625-80 80 35.890625 80 80 80 80-35.890625 80-80zm0 0" fill="#e9eef0"/><path d="m502 350v20c0 11.050781-8.949219 20-20 20h-452c-11.050781 0-20-8.949219-20-20v-20zm0 0" fill="#495d85"/><path d="m354.929688 82.929688c-3.910157 3.898437-3.910157 10.242187 0 14.140624 3.898437 3.910157 10.242187 3.910157 14.140624 0 3.910157-3.898437 3.910157-10.242187 0-14.140624-3.898437-3.910157-10.242187-3.910157-14.140624 0zm0 0"/><path d="m482 40h-10v-10c0-16.542969-13.457031-30-30-30h-20c-16.542969 0-30 13.457031-30 30v10h-232v-10c0-16.542969-13.457031-30-30-30h-60c-16.542969 0-30 13.457031-30 30v10h-10c-16.542969 0-30 13.457031-30 30v300c0 16.542969 13.457031 30 30 30h452c16.542969 0 30-13.457031 30-30v-300c0-16.542969-13.457031-30-30-30zm-70-10c0-5.515625 4.484375-10 10-10h20c5.515625 0 10 4.484375 10 10v10h-40zm-352 0c0-5.515625 4.484375-10 10-10h60c5.515625 0 10 4.484375 10 10v10h-80zm-40 110h41.71875c4.128906 11.640625 15.246094 20 28.28125 20s24.152344-8.371094 28.28125-20.011719h43.972656c-23.054687 23.964844-36.253906 56.042969-36.253906 90.011719 0 46.265625 24.296875 86.953125 60.796875 110h-166.796875zm60-10c0-5.515625 4.484375-10 10-10s10 4.484375 10 10-4.484375 10-10 10-10-4.484375-10-10zm176-10c60.652344 0 110 49.363281 110 110 0 60.652344-49.347656 110-110 110s-110-49.347656-110-110c0-60.710938 49.425781-110 110-110zm236 250c0 5.515625-4.484375 10-10 10h-452c-5.515625 0-10-4.484375-10-10v-10h472zm0-30h-166.796875c36.5-23.046875 60.796875-63.734375 60.796875-110 0-33.96875-13.199219-66.039062-36.25-90h142.25zm0-220h-166.835938c-20.722656-13.082031-44.5625-20-69.164062-20-24.605469 0-48.445312 6.917969-69.164062 20h-68.554688c-4.128906-11.640625-15.246094-20-28.28125-20s-24.152344 8.359375-28.28125 20h-41.71875v-50c0-5.515625 4.484375-10 10-10h452c5.515625 0 10 4.484375 10 10zm0 0"/><path d="m256 320c49.625 0 90-40.375 90-90s-40.375-90-90-90-90 40.375-90 90 40.375 90 90 90zm0-160c38.597656 0 70 31.402344 70 70s-31.402344 70-70 70-70-31.402344-70-70 31.402344-70 70-70zm0 0"/><path d="m256 200c16.542969 0 30 13.457031 30 30 0 5.523438 4.476562 10 10 10s10-4.476562 10-10c0-27.570312-22.429688-50-50-50-5.523438 0-10 4.476562-10 10s4.476562 10 10 10zm0 0"/><path d="m442 80h-40c-5.523438 0-10 4.476562-10 10s4.476562 10 10 10h40c5.523438 0 10-4.476562 10-10s-4.476562-10-10-10zm0 0"/></svg>