<?xml version="1.0" encoding="iso-8859-1"?>
<!-- Generator: Adobe Illustrator 21.0.0, SVG Export Plug-In . SVG Version: 6.00 Build 0)  -->
<svg version="1.1" id="Capa_1" xmlns="http://www.w3.org/2000/svg" xmlns:xlink="http://www.w3.org/1999/xlink" x="0px" y="0px"
	 viewBox="0 0 512.017 512.017" style="enable-background:new 0 0 512.017 512.017;" xml:space="preserve">
<g transform="translate(-1)">
	<path style="fill:#3F5C6C;" d="M311.13,196.041c-13.418,16.066-23.57,29.043-23.57,29.043c-2.737,4.061-5.561,8.033-8.121,11.917
		c-70.974-3.09-95.426-21.716-132.767-38.4c-20.303-9.092-70.621-35.31-61.793-82.185c2.582-38.132,10.028-75.778,22.157-112.022
		c0,0,64.441,113.434,118.554,152.629C250.653,176.552,279.954,189.918,311.13,196.041z"/>
	<path style="fill:#F0C419;" d="M405.144,168.852c46.08,6.091,46.08,34.163,46.08,34.163h-50.847L405.144,168.852z"/>
	<path style="fill:#84B5CB;" d="M407.086,180.945c0.025,7.862-2.313,15.551-6.709,22.069c-2.817,4.258-6.447,7.918-10.681,10.77
		c3.522,41.388-2.613,83.029-17.92,121.644c-19.509,51.906-70.797,70.797-94.102,76.888c-7.16,1.85-12.387,7.996-13.065,15.36
		l-7.592,75.476c-2.03,4.59-81.126,30.367-167.724-35.31l61.881-41.313c25.57-17.006,45.318-41.436,56.585-70.003l0.088-0.177
		l0.265-0.618l67.09-122.88c0.088-0.088,0.088-0.177,0.177-0.265c2.56-3.884,5.385-7.857,8.121-11.917
		c0,0,10.152-12.977,23.57-29.043c7.768-9.181,16.508-19.509,24.982-28.954l0.088-0.088c3.619-3.972,7.062-7.945,10.593-11.476
		c6.481-6.407,15.25-9.966,24.364-9.887h0.265C389.279,141.275,407.033,159.029,407.086,180.945z"/>
	<path style="fill:#FFFFFF;" d="M371.776,185.359c-2.953,0.03-5.722-1.434-7.36-3.891c-1.638-2.457-1.925-5.576-0.761-8.291
		c0.427-1.08,1.056-2.069,1.854-2.913c0.859-0.779,1.844-1.406,2.913-1.854c3.287-1.382,7.084-0.651,9.622,1.854
		c0.779,0.859,1.406,1.844,1.854,2.913c1.164,2.715,0.877,5.833-0.761,8.291C377.498,183.926,374.729,185.389,371.776,185.359z"/>
	<path style="fill:#547580;" d="M280.499,301.972c-5.41,7.52-11.402,14.604-17.92,21.186c-15.15,15.506-33.978,26.925-54.731,33.192
		c-56.412,16.27-116.875-5.74-149.628-54.466C19.467,246.181-13.46,157.994,7.55,26.463c22.273,30.286,46.763,58.878,73.269,85.539
		c18.262,19.328,39.624,35.469,63.206,47.757c37.341,16.684,101.164,40.166,131.354,72.828
		C293.652,252.272,299.743,275.224,280.499,301.972z"/>
	<g>
		<path style="fill:#FF5364;" d="M473.293,259.273c3.01-5.911,8.512-10.16,14.991-11.578s13.253,0.146,18.456,4.26
			c8.368,7.318,8.368,21.937,0,36.564c-8.623,12.309-20.1,22.347-33.448,29.255c-13.348-6.908-24.824-16.945-33.448-29.255
			c-8.369-14.627-8.369-29.246,0-36.564c5.203-4.114,11.977-5.677,18.456-4.26C464.781,249.113,470.284,253.362,473.293,259.273z"/>
		<path style="fill:#FF5364;" d="M455.638,18.156c4.091-8.788,12.018-15.188,21.471-17.334s19.366,0.202,26.851,6.361
			c12.076,10.973,12.076,32.909,0,54.846c-8.457,16.455-30.199,32.909-48.322,43.882c-18.123-10.973-39.865-27.427-48.322-43.882
			c-12.076-21.937-12.076-43.873,0-54.846c7.485-6.159,17.399-8.508,26.851-6.361S451.547,9.368,455.638,18.156z"/>
	</g>
</g>
<g>
</g>
<g>
</g>
<g>
</g>
<g>
</g>
<g>
</g>
<g>
</g>
<g>
</g>
<g>
</g>
<g>
</g>
<g>
</g>
<g>
</g>
<g>
</g>
<g>
</g>
<g>
</g>
<g>
</g>
</svg>
